<svg width="267" height="183" viewBox="0 0 267 183" fill="none" xmlns="http://www.w3.org/2000/svg">
<path d="M261.691 33.5945C306.121 15.3024 327.311 -35.5446 309.019 -79.9753C290.727 -124.406 239.88 -145.595 195.449 -127.303C151.018 -109.011 129.829 -58.1642 148.121 -13.7335C166.413 30.6972 217.26 51.8867 261.691 33.5945Z" stroke="#DCE9FA" stroke-opacity="0.15" stroke-width="1.1013" stroke-miterlimit="10"/>
<path d="M270.322 51.8985C324.831 29.0822 350.523 -33.6022 327.706 -88.111C304.89 -142.62 242.206 -168.311 187.697 -145.495C133.188 -122.679 107.496 -59.9943 130.313 -5.48557C153.129 49.0232 215.813 74.7149 270.322 51.8985Z" stroke="#DCE9FA" stroke-opacity="0.15" stroke-width="1.3544" stroke-miterlimit="10"/>
<path d="M343.226 68.2264C406.413 5.04017 406.413 -97.4049 343.226 -160.591C280.04 -223.777 177.595 -223.777 114.409 -160.591C51.2226 -97.4049 51.2226 5.04018 114.409 68.2264C177.595 131.413 280.04 131.413 343.226 68.2264Z" stroke="#DCE9FA" stroke-opacity="0.15" stroke-width="2.0487" stroke-miterlimit="10"/>
<path d="M322.163 45.872C373.556 -5.52051 373.556 -88.8442 322.163 -140.237C270.771 -191.629 187.447 -191.629 136.054 -140.237C84.6619 -88.8442 84.6619 -5.52051 136.054 45.872C187.447 97.2645 270.771 97.2645 322.163 45.872Z" stroke="#DCE9FA" stroke-opacity="0.15" stroke-width="1.6658" stroke-miterlimit="10"/>
</svg>
