<svg width="1920" height="1832" viewBox="0 0 1920 1832" fill="none" xmlns="http://www.w3.org/2000/svg">
<mask id="mask0_1_208" style="mask-type:luminance" maskUnits="userSpaceOnUse" x="1001" y="259" width="1111" height="1573">
<path d="M2111.61 1757.95L2001.3 259L1002 332.542L1112.31 1831.49L2111.61 1757.95Z" fill="white"/>
</mask>
<g mask="url(#mask0_1_208)">
<g opacity="0.5">
<path d="M1814.41 -80.9794C2023.74 45.4003 1949.86 264.029 1810.5 396.566C1702.42 499.275 1710.58 625.654 1809.41 731.852C1853.12 778.96 1916.25 816.317 1939.73 871.56C1965.88 933.253 1958.45 991.471 1931.98 1052.03C1883.58 1162.99 1767.93 1235.93 1791.51 1362.32C1804.08 1429.64 1869.34 1472.44 1895.19 1535.73C1924.5 1607.29 1902.38 1671.91 1844.51 1731.43" stroke="#DCE9FA" stroke-opacity="0.5" stroke-width="2" stroke-miterlimit="10" stroke-linecap="round" stroke-linejoin="round" stroke-dasharray="3 3"/>
<path d="M1838.35 -78.4409C2032.3 43.7159 1961.82 256.58 1830.48 387.024C1728.49 487.814 1738.9 610.616 1833.08 714.145C1877.87 763.071 1942.62 802.856 1962.76 860.457C1984.75 923.495 1971.83 980.434 1942.6 1041.15C1922.17 1083.16 1894.09 1121.05 1868.77 1158.37C1836.13 1206.62 1809.85 1252.95 1808.8 1308.25C1808.59 1323.68 1810.57 1339.74 1815.02 1356.64C1822.87 1386.21 1840.16 1411.3 1858 1436.2C1880.44 1467.18 1905.91 1498.2 1918.64 1533.65C1944.11 1604.76 1918.95 1669.74 1859.72 1727.44" stroke="#DCE9FA" stroke-opacity="0.5" stroke-width="2" stroke-miterlimit="10" stroke-linecap="round" stroke-linejoin="round" stroke-dasharray="3 3"/>
<path d="M1862.02 -76.1062C2040.87 41.8315 1974.32 249.139 1850.45 377.482C1754.82 476.558 1766.66 595.772 1857.02 696.441C1902.89 747.387 1969.26 789.599 1985.78 849.555C2003.62 913.938 1985.21 969.598 1952.94 1030.68C1930.86 1072.86 1902.48 1112.14 1877.97 1150.68C1846.41 1200.55 1825.63 1248.16 1828.71 1303.32C1829.6 1318.76 1832.96 1334.64 1838.79 1351.56C1848.57 1380.96 1867.79 1406.08 1885.34 1431.98C1906.94 1463.74 1931.56 1496.55 1942.63 1532.38C1964.25 1602.83 1936.05 1668.38 1875.47 1724.25" stroke="#DCE9FA" stroke-opacity="0.5" stroke-width="2" stroke-miterlimit="10" stroke-linecap="round" stroke-linejoin="round" stroke-dasharray="3 3"/>
<path d="M1885.96 -73.5675C2049.44 40.1473 1986.55 241.493 1870.43 367.74C1781.17 464.9 1794.43 580.727 1880.7 678.333C1927.36 731.294 1995.63 775.738 2008.54 838.048C2022.23 903.776 1998.33 957.956 1963.3 1019.4C1939.28 1061.75 1910.61 1102.44 1887.18 1142.19C1856.7 1193.88 1841.14 1242.36 1848.36 1297.58C1850.35 1313.04 1855.09 1328.94 1862.02 1345.67C1874.01 1374.9 1894.88 1400.04 1912.14 1426.74C1933.18 1459.3 1956.95 1494.1 1966.09 1530.11C1983.85 1599.9 1952.9 1666.01 1890.69 1720.05" stroke="#DCE9FA" stroke-opacity="0.5" stroke-width="2" stroke-miterlimit="10" stroke-linecap="round" stroke-linejoin="round" stroke-dasharray="3 3"/>
<path d="M1909.9 -71.2291C2058.28 38.2666 1998.78 234.048 1890.68 358.202C1807.5 453.644 1822.47 566.087 1904.65 660.63C1952.38 715.61 2022.28 762.281 2031.57 826.945C2041.38 894.022 2011.71 946.92 1973.92 1008.52C1947.98 1051.05 1919 1093.13 1896.39 1134.11C1867.26 1187.61 1856.92 1236.97 1868 1292.04C1871.09 1307.52 1877.49 1323.24 1885.52 1339.78C1899.73 1368.64 1922.24 1394.21 1938.95 1421.5C1959.43 1454.85 1982.06 1491.65 1989.55 1527.83C2003.46 1596.97 1969.46 1663.63 1905.9 1715.86" stroke="#DCE9FA" stroke-opacity="0.5" stroke-width="2" stroke-miterlimit="10" stroke-linecap="round" stroke-linejoin="round" stroke-dasharray="3 3"/>
<path d="M1933.56 -68.6943C2066.85 36.5822 2011.01 226.402 1910.38 348.656C1833.57 442.182 1849.96 551.239 1928.32 642.922C1977.13 699.721 2048.92 748.823 2054.6 815.843C2060.25 884.265 2025.09 935.683 1984.54 997.648C1956.94 1040.55 1927.4 1084.03 1905.86 1126.22C1877.81 1181.35 1872.98 1231.78 1888.19 1286.91C1892.38 1302.4 1900.16 1317.94 1909.57 1334.51C1925.98 1363.2 1949.87 1388.78 1966.56 1417.08C1986.48 1451.02 2008.26 1489.81 2013.82 1526.36C2023.88 1594.85 1986.84 1662.07 1922.21 1712.48" stroke="#DCE9FA" stroke-opacity="0.5" stroke-width="2" stroke-miterlimit="10" stroke-linecap="round" stroke-linejoin="round" stroke-dasharray="3 3"/>
<path d="M1957.51 -66.3561C2075.42 34.6975 2023.25 218.756 1930.63 338.918C1859.91 430.525 1877.72 536.394 1952.27 625.018C2001.87 683.832 2075.57 734.965 2077.62 804.74C2079.41 874.31 2038.47 924.646 1995.16 986.973C1965.63 1029.85 1935.79 1074.93 1915.07 1118.13C1888.1 1175.08 1888.76 1226.39 1907.83 1281.57C1913.13 1297.08 1922.28 1312.64 1933.07 1329.02C1951.69 1357.54 1977.23 1383.15 1993.64 1412.24C2012.99 1446.98 2033.92 1487.56 2037.27 1524.48C2043.76 1592.12 2003.41 1659.9 1937.42 1708.68" stroke="#DCE9FA" stroke-opacity="0.5" stroke-width="2" stroke-miterlimit="10" stroke-linecap="round" stroke-linejoin="round" stroke-dasharray="3 3"/>
<path d="M1981.45 -63.8173C2084.26 33.2176 2035.48 211.311 1950.6 329.577C1886.24 419.268 1905.2 521.947 1976.21 607.515C2026.89 668.348 2097.8 721.647 2100.65 793.838C2103.52 864.826 2051.85 913.809 2005.78 976.299C1974.05 1019.15 1943.91 1065.62 1924.55 1110.05C1898.66 1168.81 1904.81 1221.21 1928.02 1276.04C1934.7 1291.57 1944.95 1306.94 1956.85 1323.14C1977.68 1351.49 2004.88 1377.12 2020.72 1407.01C2039.51 1442.54 2059.31 1485.11 2060.99 1522.41C2063.92 1589.39 2020.25 1657.73 1952.91 1704.49" stroke="#DCE9FA" stroke-opacity="0.5" stroke-width="2" stroke-miterlimit="10" stroke-linecap="round" stroke-linejoin="round" stroke-dasharray="3 3"/>
<path d="M2005.11 -61.4827C2092.55 31.3293 2047.43 203.662 1970.58 319.834C1912.31 407.807 1932.69 507.299 1999.88 589.607C2051.36 652.456 2129.13 708.055 2123.4 782.531C2117.71 854.603 2064.96 902.368 2016.13 965.22C1982.74 1008.45 1952.31 1056.32 1933.76 1102.16C1909.21 1162.54 1920.32 1216.01 1947.66 1270.91C1955.44 1286.45 1967.07 1301.84 1980.35 1317.86C2003.38 1345.84 2032.23 1371.69 2047.78 1402.58C2066.02 1438.71 2081.38 1483.21 2084.71 1520.94C2090.96 1586.96 2037.08 1656.16 1968.39 1701.09" stroke="#DCE9FA" stroke-opacity="0.5" stroke-width="2" stroke-miterlimit="10" stroke-linecap="round" stroke-linejoin="round" stroke-dasharray="3 3"/>
</g>
</g>
<mask id="mask1_1_208" style="mask-type:luminance" maskUnits="userSpaceOnUse" x="-37" y="0" width="690" height="1148">
<path d="M652.196 1148L652.196 0L-36.9997 -3.01257e-05L-36.9997 1148L652.196 1148Z" fill="white"/>
</mask>
<g mask="url(#mask1_1_208)">
<g opacity="0.5">
<path d="M151.84 1263.57C46.2548 1169.28 81.6795 1001.52 150.461 898.807C203.805 819.213 198.705 722.781 148.669 642.727C126.477 607.215 94.6364 579.357 82.5065 537.417C68.9983 490.579 72.3064 446.036 85.1255 399.504C108.558 314.246 165.899 257.305 153.218 161.026C146.464 109.749 113.52 77.7579 100.15 29.695C84.9877 -24.6437 95.6013 -74.2372 124.134 -120.31" stroke="#DCE9FA" stroke-opacity="0.4" stroke-width="2" stroke-miterlimit="10" stroke-linecap="round" stroke-linejoin="round" stroke-dasharray="3 3"/>
<path d="M139.848 1262.03C41.9822 1170.81 75.7527 1007.48 140.537 906.46C190.848 828.396 184.921 734.72 136.953 656.656C114.486 620.073 81.9556 590.684 70.7906 547.519C69.2744 541.396 67.8959 535.427 66.9311 529.304C60.177 487.823 66.7932 449.25 79.3366 408.535C80.5771 404.555 81.8177 400.728 83.1961 396.902C93.8097 366.135 107.594 337.818 119.586 309.807C134.886 273.989 146.189 238.784 145.224 197.456C144.948 187.353 143.845 176.945 141.778 165.924C137.505 142.505 127.994 122.912 118.345 103.32C107.18 80.5128 94.7746 57.7059 88.2962 31.5315C75.0636 -22.501 87.1934 -72.4007 116.415 -117.096" stroke="#DCE9FA" stroke-opacity="0.4" stroke-width="2" stroke-miterlimit="10" stroke-linecap="round" stroke-linejoin="round" stroke-dasharray="3 3"/>
<path d="M127.994 1260.35C37.7093 1172.18 69.688 1013.15 130.613 913.961C177.754 837.274 171.138 746.353 125.099 670.432C102.218 632.624 69.1366 602.011 58.9365 557.622C57.5581 551.346 56.4554 545.223 55.6284 538.948C50.3905 496.395 59.3501 458.435 73.5475 417.719C74.9259 413.739 76.3042 409.912 77.8205 406.086C89.3989 375.166 103.321 345.777 114.761 316.695C129.51 279.347 138.194 243.376 135.162 202.048C134.472 191.946 132.68 181.537 130.199 170.669C124.824 147.403 114.348 127.811 104.837 107.606C93.9477 84.1866 81.9556 59.849 76.4421 33.3685C65.2771 -20.2048 78.7854 -70.5637 108.696 -113.882" stroke="#DCE9FA" stroke-opacity="0.4" stroke-width="2" stroke-miterlimit="10" stroke-linecap="round" stroke-linejoin="round" stroke-dasharray="3 3"/>
<path d="M116 1258.82C33.4348 1173.72 63.4837 1019.12 120.687 921.462C164.658 846.306 157.352 757.833 113.382 684.361C90.2246 645.482 56.454 613.338 47.3566 567.724C46.116 561.296 45.1512 555.02 44.5998 548.591C40.8782 504.967 52.3188 467.772 67.8946 426.75C69.4109 422.77 70.9271 418.944 72.5812 414.964C85.1245 383.738 99.0462 353.278 110.211 323.277C124.409 284.551 130.474 247.968 125.511 206.487C124.271 196.385 121.928 185.976 118.895 175.262C112.279 152.148 100.838 132.556 91.6029 111.586C80.9893 87.5543 69.5487 61.6861 64.8622 35.0525C55.627 -18.0617 70.5136 -68.8798 101.252 -110.82" stroke="#DCE9FA" stroke-opacity="0.4" stroke-width="2" stroke-miterlimit="10" stroke-linecap="round" stroke-linejoin="round" stroke-dasharray="3 3"/>
<path d="M104.008 1257.14C29.0237 1175.09 57.4186 1024.93 110.624 928.961C151.563 855.183 143.43 769.466 101.527 698.137C78.0945 658.186 43.7725 624.665 35.5022 577.673C34.3995 571.092 33.5724 564.663 33.2968 558.081C31.0913 513.385 44.8752 476.802 62.1051 435.781C63.7592 431.801 65.4133 427.821 67.2052 423.841C80.5756 392.463 94.773 360.778 105.387 329.858C119.033 289.755 122.479 252.407 115.587 211.079C113.933 200.823 110.9 190.568 107.316 179.853C99.5974 157.046 87.1919 137.301 78.0945 115.565C67.7565 90.9215 56.7294 63.5225 53.0077 36.5828C45.7023 -16.0721 62.1052 -67.3495 93.5325 -107.912" stroke="#DCE9FA" stroke-opacity="0.4" stroke-width="2" stroke-miterlimit="10" stroke-linecap="round" stroke-linejoin="round" stroke-dasharray="3 3"/>
<path d="M92.1552 1255.61C24.8898 1176.62 51.4927 1031.06 100.839 936.615C138.607 864.367 129.785 781.099 89.812 712.066C65.9658 671.044 31.0925 635.992 23.9249 587.929C22.96 581.194 22.4087 574.612 22.2708 567.877C21.5816 522.11 37.8466 486.14 56.4549 444.965C58.2468 440.985 60.1766 437.005 61.9685 433.025C76.3037 401.494 90.639 368.584 100.701 336.746C113.796 295.265 114.623 257.152 105.801 215.824C103.596 205.568 100.15 195.466 95.8769 184.751C86.9174 162.097 73.6848 142.352 64.7253 119.851C54.663 94.7481 44.0494 65.6654 41.1548 38.4196C35.6413 -13.7762 53.6982 -65.5127 85.6768 -104.698" stroke="#DCE9FA" stroke-opacity="0.4" stroke-width="2" stroke-miterlimit="10" stroke-linecap="round" stroke-linejoin="round" stroke-dasharray="3 3"/>
<path d="M80.1618 1253.92C20.4775 1178 45.2886 1036.87 90.7755 944.115C125.511 873.398 116 792.579 77.9564 725.842C53.8346 683.596 18.2721 647.319 12.0694 597.878C11.2423 590.99 10.8288 584.255 10.9666 577.367C11.6558 530.529 30.5398 495.171 50.5265 453.843C52.4562 449.863 54.5238 445.883 56.4535 441.75C71.7537 409.913 86.2268 375.932 95.7377 343.022C108.281 300.164 106.489 261.285 95.5999 220.11C92.8431 209.854 88.8457 199.752 84.0214 189.19C73.9591 166.69 59.6238 146.791 50.94 123.678C41.2912 97.9627 31.0912 67.5024 29.1614 39.9504C25.5776 -11.6331 45.1507 -63.8288 77.8186 -101.789" stroke="#DCE9FA" stroke-opacity="0.4" stroke-width="2" stroke-miterlimit="10" stroke-linecap="round" stroke-linejoin="round" stroke-dasharray="3 3"/>
<path d="M68.1709 1252.39C16.0677 1179.38 39.2247 1042.84 80.8521 951.616C112.417 882.429 102.355 804.059 66.1033 739.618C41.7058 696.3 5.45413 658.493 0.216244 607.828C-0.472951 600.94 -0.748621 593.899 -0.335103 586.858C1.87032 539.101 23.2354 504.202 44.7383 462.874C46.8059 458.894 49.0113 454.761 51.0789 450.781C67.206 418.791 81.817 383.585 91.0522 349.757C103.044 305.521 98.6334 265.877 85.8144 224.702C82.6441 214.447 77.9575 204.344 72.5818 193.936C61.279 171.588 46.1167 151.689 37.5707 127.811C28.0598 101.483 18.2732 69.4925 17.3083 41.6343C15.5164 -9.48992 36.7437 -62.1448 70.1007 -98.5747" stroke="#DCE9FA" stroke-opacity="0.4" stroke-width="2" stroke-miterlimit="10" stroke-linecap="round" stroke-linejoin="round" stroke-dasharray="3 3"/>
<path d="M56.3171 1250.86C11.9329 1180.91 33.2979 1048.97 71.0658 959.269C99.5985 891.46 88.9849 815.692 54.5251 753.547C29.8519 709.005 -7.08891 669.973 -11.2241 618.083C-11.7754 611.042 -11.9133 603.848 -11.3619 596.501C-7.64027 547.673 16.2059 513.386 39.0872 471.905C41.2926 467.772 43.6359 463.792 45.8413 459.659C62.9334 427.515 77.6821 391.085 86.366 356.339C97.8067 310.725 90.7769 270.316 76.0281 229.294C72.3064 219.039 67.0686 209.089 61.1415 198.681C48.736 176.486 32.6087 156.587 24.2006 132.097C14.9653 105.157 5.59228 71.7884 5.59229 43.4711C5.45445 -7.0409 28.4736 -60.3081 62.5199 -95.3604" stroke="#DCE9FA" stroke-opacity="0.4" stroke-width="2" stroke-miterlimit="10" stroke-linecap="round" stroke-linejoin="round" stroke-dasharray="3 3"/>
<path d="M44.3251 1249.18C7.52204 1182.29 27.233 1054.78 61.0036 966.769C86.366 900.491 75.2011 827.019 42.5332 767.323C17.5843 721.556 -20.0458 681.147 -23.2161 628.033C-23.6296 620.838 -23.4918 613.491 -22.8026 605.991C-17.7025 556.091 8.62477 522.417 33.1601 480.936C35.5034 476.803 37.9845 472.823 40.3278 468.537C58.2469 436.087 73.1335 398.586 81.4038 362.921C92.2931 315.93 82.6444 274.908 65.9659 233.733C61.8307 223.477 55.9036 213.528 49.4252 203.12C35.7791 181.078 18.6871 161.179 10.5545 135.923C1.595 108.371 -7.36453 73.4721 -6.53749 44.8486C-4.88342 -5.0511 19.7898 -58.9306 54.5252 -92.6052" stroke="#DCE9FA" stroke-opacity="0.4" stroke-width="2" stroke-miterlimit="10" stroke-linecap="round" stroke-linejoin="round" stroke-dasharray="3 3"/>
<path d="M32.3335 1247.65C3.24941 1183.82 21.1685 1060.9 51.0796 974.269C73.4095 909.522 61.6932 838.499 30.8173 781.099C5.59273 734.26 -32.7265 692.473 -34.7941 637.982C-35.0698 630.634 -34.7941 623.134 -33.8293 615.481C-27.213 564.51 1.59538 531.6 27.5091 489.813C29.9902 485.68 32.6092 481.547 35.0903 477.415C53.9742 444.811 68.9987 406.086 76.7177 369.503C87.0556 320.981 74.788 279.346 56.1797 238.325C51.4932 228.069 45.0147 218.12 38.1228 207.864C23.374 186.129 5.31705 166.077 -2.67761 140.056C-11.3615 111.891 -20.0453 75.4616 -18.1156 46.532C-14.8074 -2.90847 11.6577 -57.2471 47.0823 -89.5442" stroke="#DCE9FA" stroke-opacity="0.4" stroke-width="2" stroke-miterlimit="10" stroke-linecap="round" stroke-linejoin="round" stroke-dasharray="3 3"/>
<path d="M20.4794 1245.96C-1.02346 1185.19 15.2416 1066.72 41.1553 981.769C60.4528 918.706 48.1851 849.826 18.9632 794.875C-6.53702 746.812 -45.5455 703.647 -46.6482 648.084C-46.786 640.584 -46.3725 632.931 -45.132 625.124C-37.1373 573.081 -5.70998 540.784 21.5822 498.997C24.3389 494.864 26.9579 490.732 29.5768 486.446C49.2878 453.536 64.4501 413.739 71.8934 376.085C81.5422 326.185 66.7934 283.786 46.2554 242.764C41.0175 232.508 33.9877 222.559 26.5444 212.456C10.5551 190.874 -8.3289 170.822 -16.3236 144.036C-24.7318 115.259 -33.1399 77.4517 -30.1075 48.216C-25.1453 -0.612287 3.11177 -55.5632 39.0878 -86.4827" stroke="#DCE9FA" stroke-opacity="0.4" stroke-width="2" stroke-miterlimit="10" stroke-linecap="round" stroke-linejoin="round" stroke-dasharray="3 3"/>
<path d="M8.4869 1244.43C-5.29701 1186.73 9.1761 1072.84 31.2304 989.423C47.4954 927.89 34.6764 861.459 7.24637 808.958C-18.3917 759.67 -58.2272 715.281 -58.365 658.34C-58.365 650.687 -57.6758 642.88 -56.2975 634.921C-46.7866 581.807 -12.8781 550.122 15.9302 508.181C18.8249 504.049 21.5816 499.916 24.3384 495.477C45.0143 462.415 60.3145 421.393 67.2064 382.82C76.3038 331.543 58.9361 288.378 36.3305 247.509C30.6791 237.1 22.9601 227.457 14.9654 217.355C-2.12665 195.926 -22.1133 175.874 -29.8323 148.322C-38.1027 118.933 -45.9595 79.5949 -41.9622 50.053C-35.4837 1.837 -5.29695 -53.5731 31.3683 -83.2681" stroke="#DCE9FA" stroke-opacity="0.4" stroke-width="2" stroke-miterlimit="10" stroke-linecap="round" stroke-linejoin="round" stroke-dasharray="3 3"/>
<path d="M-3.5059 1242.75C-9.70865 1188.1 3.24826 1078.81 21.1673 996.923C34.3999 936.921 21.0295 872.786 -4.60857 822.733C-30.5223 772.221 -71.047 726.454 -70.0821 668.442C-69.9443 660.636 -69.1172 652.676 -67.4632 644.564C-56.5739 590.378 -20.0465 559.306 10.1402 517.365C13.1727 513.233 16.0673 508.947 18.9619 504.661C40.4648 471.292 56.0407 429.199 62.3813 389.708C70.9273 337.053 50.8028 293.276 26.4052 252.254C20.2025 241.845 12.07 232.202 3.3861 222.253C-14.9465 200.977 -35.7602 180.925 -43.3413 152.608C-51.336 122.76 -58.9171 81.8908 -53.9549 51.8897C-45.8224 3.97985 -13.8438 -52.0425 23.6485 -80.3599" stroke="#DCE9FA" stroke-opacity="0.4" stroke-width="2" stroke-miterlimit="10" stroke-linecap="round" stroke-linejoin="round" stroke-dasharray="3 3"/>
<path d="M-15.359 1241.22C-13.9806 1189.63 -2.67777 1084.94 11.3818 1004.42C21.5819 945.952 7.66016 884.113 -16.3238 836.509C-42.3754 784.773 -83.7272 737.781 -81.7974 678.391C-81.5217 670.432 -80.5569 662.319 -78.6271 654.054C-66.2216 598.95 -27.2131 568.489 4.48989 526.243C7.66019 522.11 10.6926 517.824 13.7251 513.385C36.1929 479.864 51.7687 436.546 57.6958 396.136C65.6905 342.104 42.947 297.561 16.6197 256.54C10.0034 246.131 1.18175 236.488 -8.05347 226.538C-27.4888 205.415 -49.4052 185.364 -56.7107 156.434C-64.4296 125.974 -71.873 83.5742 -65.6702 53.267C-56.0215 6.1225 -22.1131 -50.3591 15.9305 -77.2988" stroke="#DCE9FA" stroke-opacity="0.4" stroke-width="2" stroke-miterlimit="10" stroke-linecap="round" stroke-linejoin="round" stroke-dasharray="3 3"/>
<path d="M-27.3503 1239.53C-18.2529 1191.01 -8.60422 1090.91 1.45804 1011.92C8.62568 955.136 -5.70958 895.44 -28.0395 850.285C-54.2289 797.324 -96.4077 749.108 -93.3753 688.341C-92.9617 680.228 -91.859 671.963 -89.7914 663.544C-76.0075 607.368 -34.3801 577.52 -1.29872 535.121C2.00942 530.988 5.17972 526.702 8.35002 522.11C31.6448 488.283 47.3585 443.893 53.0099 402.412C60.3154 347.002 35.0908 301.694 6.83379 260.826C-0.333841 250.417 -9.70687 240.927 -19.4934 230.978C-40.1693 210.007 -62.9128 189.803 -70.0804 160.261C-77.5237 129.188 -84.6913 85.2581 -77.3859 54.7979C-66.3587 8.11253 -30.3827 -48.8283 8.35005 -74.3904" stroke="#DCE9FA" stroke-opacity="0.4" stroke-width="2" stroke-miterlimit="10" stroke-linecap="round" stroke-linejoin="round" stroke-dasharray="3 3"/>
<path d="M-39.3433 1238C-22.6648 1192.54 -14.5323 1097.03 -8.60518 1019.58C-4.33216 964.32 -19.3566 906.92 -40.0325 864.214C-66.3598 810.029 -109.366 760.435 -105.368 698.596C-104.817 690.331 -103.438 681.912 -101.233 673.34C-86.0707 616.093 -41.8244 587.011 -7.36461 544.458C-3.91864 540.172 -0.610515 535.886 2.69762 531.447C26.9573 497.467 42.8088 451.853 47.9089 409.453C54.663 352.666 26.8195 306.746 -3.36728 265.724C-11.0863 255.315 -21.0107 245.825 -31.3486 236.029C-53.1272 215.365 -76.9733 195.007 -83.8653 164.7C-91.1708 133.015 -97.9249 87.5541 -89.6546 56.7877C-77.1112 10.5616 -39.2054 -46.8384 0.216563 -71.023" stroke="#DCE9FA" stroke-opacity="0.4" stroke-width="2" stroke-miterlimit="10" stroke-linecap="round" stroke-linejoin="round" stroke-dasharray="3 3"/>
<path d="M-51.1977 1236.32C-26.8002 1193.92 -20.184 1103 -18.392 1026.92C-17.1515 973.198 -32.5895 918.094 -51.6113 877.837C-77.9385 822.274 -122.047 771.456 -116.947 708.392C-116.258 699.974 -114.742 691.402 -112.26 682.677C-95.5819 624.359 -48.8545 595.888 -12.8785 553.183C-9.29465 548.897 -5.84866 544.611 -2.40268 540.019C22.684 505.732 38.6734 459.047 43.3599 415.729C49.5626 357.411 18.9624 310.878 -13.0163 270.009C-21.1488 259.601 -31.7624 250.111 -42.6517 240.468C-65.6708 219.957 -90.344 199.599 -97.0981 168.526C-104.128 136.229 -110.744 89.2377 -101.233 58.1652C-87.1737 12.3983 -47.3382 -45.4609 -7.22702 -68.2678" stroke="#DCE9FA" stroke-opacity="0.4" stroke-width="2" stroke-miterlimit="10" stroke-linecap="round" stroke-linejoin="round" stroke-dasharray="3 3"/>
<path d="M-63.1894 1234.79C-31.2107 1195.45 -26.1107 1108.97 -28.4539 1034.58C-30.108 982.382 -46.0973 929.42 -63.6029 891.766C-90.068 834.978 -135.004 782.936 -128.801 718.495C-127.974 709.923 -126.32 701.198 -123.563 692.32C-105.368 632.93 -56.2974 605.072 -18.8052 562.367C-15.0835 558.081 -11.4997 553.795 -7.91589 549.203C17.9979 514.763 34.2629 467.006 38.3981 422.617C44.0495 362.921 10.8302 315.776 -23.216 274.754C-31.8999 264.346 -43.0649 254.856 -54.5055 245.366C-78.6274 225.008 -104.403 204.65 -110.882 172.812C-117.636 139.903 -124.114 91.3806 -113.363 60.002C-97.9249 14.6942 -56.0217 -43.6241 -15.3592 -65.0535" stroke="#DCE9FA" stroke-opacity="0.4" stroke-width="2" stroke-miterlimit="10" stroke-linecap="round" stroke-linejoin="round" stroke-dasharray="3 3"/>
<path d="M-75.1815 1233.1C-35.4838 1196.83 -31.9 1114.94 -38.3784 1042.08C-42.9271 991.413 -59.4678 940.748 -75.3193 905.542C-101.647 847.377 -147.685 794.11 -140.517 728.597C-139.552 719.872 -137.76 710.995 -134.728 701.964C-115.155 641.502 -63.4651 614.256 -24.4566 571.398C-20.5971 567.112 -16.8755 562.673 -13.1538 558.081C13.7248 523.335 29.9898 474.507 33.8493 429.199C38.8115 368.125 3.11119 320.215 -32.8648 279.347C-42.1 268.938 -53.8163 259.601 -65.6705 249.958C-91.0329 229.753 -117.636 209.395 -123.976 176.792C-130.593 143.423 -136.796 93.2176 -124.804 61.6859C-107.987 16.8374 -64.0164 -41.7872 -22.6647 -61.9919" stroke="#DCE9FA" stroke-opacity="0.4" stroke-width="2" stroke-miterlimit="10" stroke-linecap="round" stroke-linejoin="round" stroke-dasharray="3 3"/>
<path d="M-87.0346 1231.57C-39.7558 1198.21 -37.5504 1121.06 -48.3019 1049.73C-55.7452 1000.6 -72.6994 952.227 -87.1725 919.471C-113.362 859.928 -160.503 805.59 -152.233 738.7C-151.13 729.822 -149.062 720.791 -145.892 711.454C-124.803 649.921 -70.6318 623.287 -30.2449 580.429C-26.2476 576.143 -22.2502 571.704 -18.5286 566.959C9.17708 532.06 25.7178 482.007 29.0259 435.628C33.4368 373.176 -4.88251 324.501 -42.7883 283.632C-52.437 273.224 -64.8425 263.887 -77.248 254.397C-103.713 234.345 -131.419 213.987 -137.484 180.772C-143.824 146.791 -149.751 95.0543 -136.795 63.2165C-118.462 18.6741 -72.5615 -40.2565 -30.5205 -59.0837" stroke="#DCE9FA" stroke-opacity="0.4" stroke-width="2" stroke-miterlimit="10" stroke-linecap="round" stroke-linejoin="round" stroke-dasharray="3 3"/>
<path d="M-99.0289 1229.89C-6.53886 1178.92 -67.3259 1007.48 -98.8911 933.247C-128.251 864.214 -186.281 802.375 -157.059 721.097C-132.248 652.217 -66.0853 627.726 -23.9066 575.99C4.76398 540.784 21.3047 489.66 24.1993 442.363C28.0588 378.534 -13.0173 329.246 -52.7149 288.377C-84.5557 255.774 -142.31 235.11 -151.132 185.057C-157.197 150.464 -162.986 97.0442 -148.789 65.0532C-129.078 20.9701 -81.1098 -38.4198 -38.3796 -55.8694" stroke="#DCE9FA" stroke-opacity="0.4" stroke-width="2" stroke-miterlimit="10" stroke-linecap="round" stroke-linejoin="round" stroke-dasharray="3 3"/>
</g>
</g>
</svg>
