<svg width="1920" height="2143" viewBox="0 0 1920 2143" fill="none" xmlns="http://www.w3.org/2000/svg">
<mask id="mask0_1_476" style="mask-type:luminance" maskUnits="userSpaceOnUse" x="-955" y="0" width="1110" height="1573">
<path d="M154.61 1498.95L44.2975 0L-955 73.5419L-844.687 1572.49L154.61 1498.95Z" fill="white"/>
</mask>
<g mask="url(#mask0_1_476)">
<g opacity="0.5">
<path d="M-142.587 -339.979C66.7373 -213.6 -7.13576 5.02909 -146.496 137.566C-254.575 240.275 -246.418 366.654 -147.592 472.852C-103.883 519.96 -40.7472 557.317 -17.2678 612.56C8.87725 674.253 1.45106 732.471 -25.0222 793.029C-73.418 903.988 -189.074 976.93 -165.485 1103.32C-152.922 1170.64 -87.6572 1213.44 -61.81 1276.73C-32.4958 1348.29 -54.6167 1412.91 -112.491 1472.43" stroke="#DCE9FA" stroke-opacity="0.5" stroke-width="2" stroke-miterlimit="10" stroke-linecap="round" stroke-linejoin="round" stroke-dasharray="3 3"/>
<path d="M-118.646 -337.441C75.3047 -215.284 4.81898 -2.42008 -126.52 128.024C-228.51 228.814 -218.099 351.616 -123.921 455.145C-79.134 504.071 -14.3788 543.856 5.76082 601.457C27.7535 664.495 14.8337 721.435 -14.3976 782.155C-34.8249 824.158 -62.9108 862.046 -88.2332 899.372C-120.873 947.618 -147.148 993.949 -148.195 1049.25C-148.41 1064.68 -146.43 1080.74 -141.981 1097.64C-134.126 1127.21 -116.84 1152.3 -98.9999 1177.2C-76.5597 1208.18 -51.0889 1239.2 -38.3562 1274.65C-12.8936 1345.76 -38.0509 1410.74 -97.2773 1468.44" stroke="#DCE9FA" stroke-opacity="0.5" stroke-width="2" stroke-miterlimit="10" stroke-linecap="round" stroke-linejoin="round" stroke-dasharray="3 3"/>
<path d="M-94.9803 -335.106C83.8733 -217.169 17.3231 -9.86145 -106.546 118.482C-202.175 217.558 -190.335 336.772 -99.9748 437.441C-54.1142 488.387 12.2606 530.599 28.7849 590.555C46.6253 654.938 28.2119 710.598 -4.05568 771.677C-26.1389 813.858 -54.52 853.144 -79.0325 891.684C-110.592 941.549 -131.374 989.159 -128.285 1044.32C-127.399 1059.76 -124.038 1075.64 -118.211 1092.56C-108.426 1121.96 -89.2105 1147.08 -71.6598 1172.98C-50.0574 1204.74 -25.4383 1237.55 -14.3643 1273.38C7.24944 1343.83 -20.9469 1409.38 -81.5257 1465.25" stroke="#DCE9FA" stroke-opacity="0.5" stroke-width="2" stroke-miterlimit="10" stroke-linecap="round" stroke-linejoin="round" stroke-dasharray="3 3"/>
<path d="M-71.0412 -332.567C92.4392 -218.853 29.5547 -17.507 -86.5695 108.74C-175.833 205.9 -162.568 321.727 -76.2988 419.333C-29.6395 472.294 38.6332 516.738 51.5421 579.048C65.2302 644.776 41.326 698.956 6.29764 760.397C-17.717 802.751 -46.3932 843.437 -69.8205 883.194C-100.303 934.878 -115.861 983.363 -108.64 1038.58C-106.651 1054.04 -101.913 1069.94 -94.9814 1086.67C-82.9886 1115.9 -62.1205 1141.04 -44.8565 1167.74C-23.8163 1200.3 -0.0517012 1235.1 9.09086 1271.11C26.8557 1340.9 -4.10418 1407.01 -66.3109 1461.05" stroke="#DCE9FA" stroke-opacity="0.5" stroke-width="2" stroke-miterlimit="10" stroke-linecap="round" stroke-linejoin="round" stroke-dasharray="3 3"/>
<path d="M-47.0983 -330.229C101.285 -220.733 41.7845 -24.9523 -66.3188 99.2021C-149.496 194.643 -134.531 307.087 -52.3517 401.63C-4.61837 456.609 65.2767 503.281 74.5704 567.945C84.3815 635.022 54.7083 687.92 16.922 749.523C-9.02416 792.05 -37.9954 834.135 -60.6129 875.106C-89.7435 928.612 -100.077 977.971 -88.9963 1033.04C-85.9054 1048.52 -79.5111 1064.24 -71.4749 1080.78C-57.2723 1109.64 -34.7567 1135.21 -18.0521 1162.5C2.42585 1195.85 25.0604 1232.65 32.5471 1268.83C46.4631 1337.97 12.4641 1404.63 -51.0951 1456.86" stroke="#DCE9FA" stroke-opacity="0.5" stroke-width="2" stroke-miterlimit="10" stroke-linecap="round" stroke-linejoin="round" stroke-dasharray="3 3"/>
<path d="M-23.4356 -327.694C109.85 -222.418 54.0153 -32.598 -46.6211 89.6564C-123.433 183.182 -107.043 292.239 -28.6821 383.922C20.1281 440.721 91.9182 489.823 97.5966 556.843C103.255 625.265 68.0914 676.683 27.5443 738.648C-0.0604776 781.553 -29.6023 825.033 -51.1345 867.221C-79.1854 922.346 -84.0229 972.784 -68.8091 1027.91C-64.6161 1043.4 -56.8415 1058.94 -47.4276 1075.51C-31.0181 1104.2 -7.1249 1129.78 9.56571 1158.08C29.4842 1192.02 51.2643 1230.81 56.8167 1267.36C66.8838 1335.85 29.8458 1403.07 -34.7903 1453.48" stroke="#DCE9FA" stroke-opacity="0.5" stroke-width="2" stroke-miterlimit="10" stroke-linecap="round" stroke-linejoin="round" stroke-dasharray="3 3"/>
<path d="M0.506325 -325.356C118.419 -224.302 66.247 -40.2438 -26.3686 79.9179C-97.0911 171.525 -79.2786 277.394 -4.73323 366.018C44.8756 424.832 118.566 475.965 120.624 545.74C122.409 615.31 81.4727 665.646 38.1649 727.973C8.63143 770.851 -21.2083 815.93 -41.9279 859.132C-68.9019 916.076 -68.2402 967.392 -49.1692 1022.57C-43.8741 1038.08 -34.7219 1053.64 -23.9277 1070.02C-5.31122 1098.54 20.2351 1124.15 36.639 1153.24C55.9953 1187.98 76.9236 1228.56 80.2663 1265.48C86.7629 1333.12 46.4102 1400.9 -19.5811 1449.68" stroke="#DCE9FA" stroke-opacity="0.5" stroke-width="2" stroke-miterlimit="10" stroke-linecap="round" stroke-linejoin="round" stroke-dasharray="3 3"/>
<path d="M24.4457 -322.817C127.258 -225.782 78.4762 -47.689 -6.397 70.5766C-70.7546 160.268 -51.7953 262.947 19.2103 348.515C69.8932 409.348 140.798 462.647 143.649 534.838C146.516 605.826 94.8515 654.809 48.7857 717.299C17.0481 760.146 -13.0867 806.624 -32.4456 851.047C-58.3427 909.81 -52.1846 962.205 -28.9752 1017.04C-22.3025 1032.57 -12.0454 1047.94 -0.14631 1064.14C20.6771 1092.49 47.8765 1118.12 63.7182 1148.01C82.5123 1183.54 102.311 1226.11 103.995 1263.41C106.918 1330.39 63.2505 1398.73 -4.09042 1445.49" stroke="#DCE9FA" stroke-opacity="0.5" stroke-width="2" stroke-miterlimit="10" stroke-linecap="round" stroke-linejoin="round" stroke-dasharray="3 3"/>
<path d="M48.1114 -320.483C135.55 -227.671 90.4315 -55.3384 13.5792 60.8344C-44.6919 148.807 -24.3102 248.299 42.8829 330.607C94.3644 393.456 172.126 449.055 166.402 523.531C160.712 595.603 107.962 643.368 59.1355 706.22C25.7392 749.445 -4.6907 797.321 -23.2426 843.159C-47.7844 903.544 -36.681 957.01 -9.33883 1011.91C-1.56414 1027.45 10.0706 1042.84 23.3501 1058.86C46.3832 1086.84 75.2329 1112.69 90.7851 1143.58C109.02 1179.71 124.382 1224.21 127.713 1261.94C133.957 1327.96 80.0813 1397.16 11.388 1442.09" stroke="#DCE9FA" stroke-opacity="0.5" stroke-width="2" stroke-miterlimit="10" stroke-linecap="round" stroke-linejoin="round" stroke-dasharray="3 3"/>
<path d="M72.0527 -317.944C144.394 -229.351 102.665 -62.9841 33.5555 51.2926C-18.3507 137.35 2.90231 233.647 66.8311 312.904C119.111 377.767 199.325 435.405 189.432 512.429C180.14 585.853 121.346 632.331 69.761 695.345C34.4361 738.543 3.70831 788.019 -14.0338 835.07C-37.4988 897.274 -20.8962 951.619 10.3033 1006.57C19.1801 1022.12 32.4707 1037.34 46.8522 1053.38C72.0923 1081.19 102.595 1107.06 117.861 1138.74C135.533 1175.67 149.768 1221.96 151.441 1260.06C154.386 1325.44 96.9207 1395.19 26.875 1438.3" stroke="#DCE9FA" stroke-opacity="0.5" stroke-width="2" stroke-miterlimit="10" stroke-linecap="round" stroke-linejoin="round" stroke-dasharray="3 3"/>
<path d="M95.9948 -315.606C152.963 -231.236 114.9 -70.8301 53.5298 41.7509C7.71301 125.889 30.11 219.196 90.5018 295.196C143.581 362.075 225.968 421.948 212.456 501.527C199.566 576.103 134.727 621.295 80.3789 684.871C43.1226 728.243 12.0997 779.117 -4.55711 827.386C-26.6697 891.412 -4.84343 946.632 30.4916 1001.44C40.4704 1017.01 55.1415 1032.05 70.9034 1047.9C98.3504 1075.54 130.506 1101.44 145.485 1133.92C162.598 1171.43 180.111 1219.78 175.717 1258.2C168.477 1322.83 114.309 1393.23 42.9109 1434.52" stroke="#DCE9FA" stroke-opacity="0.5" stroke-width="2" stroke-miterlimit="10" stroke-linecap="round" stroke-linejoin="round" stroke-dasharray="3 3"/>
<path d="M119.657 -313.071C161.527 -232.92 126.852 -78.2793 73.5024 32.209C33.7777 114.227 57.3187 204.544 114.446 277.493C168.321 346.587 253.16 408.499 235.482 490.424C218.99 566.353 148.107 610.258 91.0006 673.996C52.0883 717.545 20.7704 769.818 4.92334 819.301C-16.1123 885.146 11.2103 941.445 50.4054 996.105C61.4863 1011.69 77.5349 1026.75 94.4017 1042.41C124.056 1069.88 157.865 1095.81 172.278 1129.28C188.829 1167.59 205.491 1217.73 199.162 1256.52C188.627 1320.31 130.866 1391.45 58.3912 1430.93" stroke="#DCE9FA" stroke-opacity="0.5" stroke-width="2" stroke-miterlimit="10" stroke-linecap="round" stroke-linejoin="round" stroke-dasharray="3 3"/>
<path d="M143.599 -310.733C170.097 -234.805 139.087 -86.1253 93.48 22.4668C59.8447 102.566 84.5298 189.893 138.123 259.384C192.796 330.495 280.084 394.645 258.24 478.917C238.147 556.199 161.219 598.817 101.355 662.717C60.511 706.439 28.898 760.111 13.8607 810.808C-6.09522 878.271 26.7238 935.648 70.0516 990.366C82.5101 1005.97 99.6636 1020.84 117.911 1036.33C149.774 1063.43 185.234 1089.58 199.361 1123.85C215.349 1162.95 231.435 1214.88 222.896 1254.05C209.061 1317.39 147.434 1389.08 73.6068 1426.73" stroke="#DCE9FA" stroke-opacity="0.5" stroke-width="2" stroke-miterlimit="10" stroke-linecap="round" stroke-linejoin="round" stroke-dasharray="3 3"/>
<path d="M167.538 -308.194C178.938 -236.485 151.043 -93.7748 113.729 12.9289C86.1831 91.1089 112.012 175.445 162.069 241.681C217.54 314.807 307.28 380.995 281.266 467.814C257.851 546.252 174.878 587.583 111.977 651.842C69.2023 695.738 37.2941 750.809 23.3422 802.723C5.01415 872.013 42.7813 930.261 89.9664 985.033C103.527 1000.65 122.336 1015.35 141.686 1030.85C175.756 1057.78 212.869 1083.95 226.709 1119.02C242.138 1158.72 257.366 1212.84 246.896 1252.18C230.044 1314.47 164.827 1386.72 89.6448 1422.74" stroke="#DCE9FA" stroke-opacity="0.5" stroke-width="2" stroke-miterlimit="10" stroke-linecap="round" stroke-linejoin="round" stroke-dasharray="3 3"/>
<path d="M191.206 -305.859C187.508 -238.37 163.003 -101.625 133.429 3.38327C111.973 79.6441 138.67 160.986 185.741 223.973C241.733 299.311 334.199 367.541 304.295 456.712C277.278 536.502 188.261 576.547 122.602 640.967C77.8957 685.037 45.9652 741.711 32.5475 794.835C15.2964 865.943 58.5627 925.07 109.608 979.695C124.27 995.332 144.457 1010.04 165.187 1025.36C201.465 1052.13 240.23 1078.32 253.506 1114.38C268.648 1154.88 283.024 1210.79 270.345 1250.5C250.473 1311.95 181.388 1384.94 104.853 1419.15" stroke="#DCE9FA" stroke-opacity="0.5" stroke-width="2" stroke-miterlimit="10" stroke-linecap="round" stroke-linejoin="round" stroke-dasharray="3 3"/>
<path d="M215.146 -303.521C196.073 -240.054 174.958 -109.274 153.405 -6.35892C138.04 67.7823 165.879 146.334 209.412 206.066C266.2 283.619 361.394 353.892 327.045 445.605C296.702 526.753 201.368 565.306 132.946 630.289C86.3077 674.532 54.0821 732.605 41.7497 786.947C25.5755 859.874 74.341 919.879 129.519 974.562C145.284 990.214 166.851 1004.74 188.685 1019.88C227.17 1046.47 267.589 1072.69 280.577 1109.55C295.158 1150.84 308.957 1208.55 294.068 1248.63C271.174 1309.44 198.224 1382.97 120.336 1415.36" stroke="#DCE9FA" stroke-opacity="0.5" stroke-width="2" stroke-miterlimit="10" stroke-linecap="round" stroke-linejoin="round" stroke-dasharray="3 3"/>
<path d="M239.086 -300.982C204.642 -241.939 186.642 -117.128 173.655 -15.897C164.104 56.3212 193.087 131.883 233.635 188.366C290.67 267.927 388.861 340.646 350.349 434.507C316.404 517.006 215.025 554.273 143.57 619.414C95.0003 663.83 62.4795 723.302 51.2324 778.862C36.4135 853.411 90.3998 914.491 149.435 969.228C166.574 985.1 189.247 999.445 212.462 1014.4C253.153 1040.82 295.225 1067.06 307.927 1104.72C321.948 1146.6 335.166 1206.51 317.794 1246.75C291.878 1306.92 215.061 1381 135.821 1411.56" stroke="#DCE9FA" stroke-opacity="0.5" stroke-width="2" stroke-miterlimit="10" stroke-linecap="round" stroke-linejoin="round" stroke-dasharray="3 3"/>
<path d="M262.753 -298.648C213.212 -243.823 198.326 -124.982 193.354 -25.4426C189.893 44.8563 219.744 117.424 257.03 170.655C314.586 252.427 415.779 327.193 372.825 423.396C335.555 507.253 227.856 543.228 153.642 608.531C103.417 653.125 70.3258 713.992 59.8884 770.765C46.1463 847.134 105.632 909.092 168.803 963.686C187.047 979.373 211.097 993.738 235.689 1008.71C278.59 1034.76 322.313 1061.23 334.45 1099.88C347.908 1142.55 360.55 1204.26 340.969 1244.87C312.305 1304.4 231.348 1379.03 150.756 1407.76" stroke="#DCE9FA" stroke-opacity="0.5" stroke-width="2" stroke-miterlimit="10" stroke-linecap="round" stroke-linejoin="round" stroke-dasharray="3 3"/>
<path d="M286.692 -296.109C222.053 -245.503 210.279 -132.431 213.604 -34.9804C215.956 33.3955 246.949 103.173 281.252 152.955C339.049 237.136 443.249 313.748 396.404 412.302C355.808 497.515 241.791 531.999 164.817 597.664C112.66 642.432 79.2738 704.697 69.9218 762.688C57.5321 840.879 122.517 903.716 189.269 958.36C208.616 974.062 234.321 988.25 260.019 1003.04C305.127 1028.92 350.499 1055.61 362.352 1094.86C375.251 1138.13 387.587 1202.03 365.521 1243.01C333.835 1301.89 249.012 1377.07 167.343 1403.99" stroke="#DCE9FA" stroke-opacity="0.5" stroke-width="2" stroke-miterlimit="10" stroke-linecap="round" stroke-linejoin="round" stroke-dasharray="3 3"/>
<path d="M310.634 -293.771C230.619 -247.188 221.963 -140.284 233.578 -44.5222C241.745 21.9306 273.881 88.718 304.923 135.248C362.689 221.633 470.442 300.298 419.153 401.396C375.231 487.965 254.894 521.159 175.159 587.186C121.071 632.127 87.3896 695.791 79.1229 755C67.8129 834.81 138.294 898.725 208.904 953.423C229.352 969.141 256.436 983.347 283.238 997.951C330.553 1023.66 377.854 1050.38 389.145 1090.42C401.757 1134.49 413.238 1200.39 388.965 1241.53C354.532 1299.78 265.571 1375.3 182.546 1400.59" stroke="#DCE9FA" stroke-opacity="0.5" stroke-width="2" stroke-miterlimit="10" stroke-linecap="round" stroke-linejoin="round" stroke-dasharray="3 3"/>
<path d="M334.3 -291.236C239.19 -249.072 233.369 -147.942 253.557 -54.2644C267.537 10.2653 300.542 74.0585 328.873 117.344C386.606 206.134 497.913 286.853 442.185 390.093C394.661 478.015 268.283 509.721 185.787 576.111C129.767 621.225 95.7908 686.288 88.3311 746.911C78.098 828.54 154.078 893.334 228.824 947.889C250.65 963.626 278.838 977.647 307.018 992.271C356.54 1017.81 405.218 1044.55 416.22 1085.59C428.273 1130.25 439.447 1198.35 412.692 1239.66C375.234 1297.46 282.41 1373.33 198.033 1396.8" stroke="#DCE9FA" stroke-opacity="0.5" stroke-width="2" stroke-miterlimit="10" stroke-linecap="round" stroke-linejoin="round" stroke-dasharray="3 3"/>
<path d="M358.24 -288.898C172.436 -224.751 290.808 1.37087 352.545 99.4359C409.969 190.627 524.833 273.199 464.938 378.786C414.086 468.265 281.39 498.48 196.136 565.032C138.185 610.32 104.189 676.786 97.5393 738.622C88.6586 822.073 169.863 887.742 248.465 942.351C311.514 985.92 426.579 1014.58 443.297 1080.35C454.788 1125.81 465.384 1195.9 436.421 1237.39C396.217 1294.55 299.251 1370.96 213.522 1392.61" stroke="#DCE9FA" stroke-opacity="0.5" stroke-width="2" stroke-miterlimit="10" stroke-linecap="round" stroke-linejoin="round" stroke-dasharray="3 3"/>
</g>
</g>
<mask id="mask1_1_476" style="mask-type:luminance" maskUnits="userSpaceOnUse" x="1705" y="52" width="1494" height="2091">
<path d="M3198.2 2143L3198.2 53L1705 52.9999L1705 2143L3198.2 2143Z" fill="white"/>
</mask>
<g mask="url(#mask1_1_476)">
<g opacity="0.5">
<path d="M2062.47 2347.54C1866.86 2187.03 1936.15 1897.49 2068.15 1716.92C2170.28 1577.31 2155.95 1411.78 2056.2 1273.56C2006.63 1204.73 1934.95 1149 1912.85 1068.18C1909.87 1056.76 1907.48 1045.61 1905.69 1034.19C1894.34 956.716 1913.75 887.606 1944.51 813.481C1947.5 806.236 1950.48 799.269 1953.77 792.302C1978.85 736.012 2009.02 682.508 2033.8 629.561C2065.76 561.566 2084.57 496.08 2078 420.84C2076.51 402.448 2072.63 383.499 2067.25 363.713C2055.6 321.356 2032.91 285.687 2012.3 248.903C1988.71 206.267 1962.73 161.959 1950.78 113.749C1926.59 16.2159 1955.86 -75.4655 2020.66 -154.328" stroke="#DCE9FA" stroke-opacity="0.3" stroke-width="2" stroke-miterlimit="10" stroke-linecap="round" stroke-linejoin="round" stroke-dasharray="3 3"/>
<path d="M2036.49 2344.75C1857.6 2189.82 1922.71 1908.36 2046.64 1730.57C2141.91 1593.75 2126.08 1432.68 2030.81 1298.92C1980.64 1228.14 1907.47 1169.62 1887.76 1086.57C1885.08 1074.87 1882.99 1063.45 1881.79 1051.74C1873.73 972.321 1898.52 904.605 1932.26 829.923C1935.55 822.677 1938.83 815.711 1942.42 808.465C1969.59 751.617 1999.75 696.163 2023.94 641.544C2054.7 571.041 2067.84 504.44 2057.09 428.921C2054.41 410.529 2049.33 391.58 2042.76 372.073C2028.42 329.995 2003.64 294.325 1983.63 256.148C1960.63 212.397 1935.85 165.303 1925.69 116.815C1905.68 20.1173 1937.94 -72.4 2004.53 -148.755" stroke="#DCE9FA" stroke-opacity="0.3" stroke-width="2" stroke-miterlimit="10" stroke-linecap="round" stroke-linejoin="round" stroke-dasharray="3 3"/>
<path d="M2010.5 2341.69C1848.05 2192.32 1909.56 1918.95 2024.84 1744.23C2113.54 1609.91 2095.92 1453.86 2005.13 1324C1954.36 1251.27 1880 1190.24 1862.08 1104.69C1859.69 1092.71 1857.9 1081 1857.3 1069.02C1852.52 987.648 1882.39 921.047 1919.72 846.364C1923.3 839.119 1926.89 831.873 1930.77 824.628C1959.74 767.501 1990.5 709.817 2013.49 653.527C2043.06 580.516 2050.52 512.521 2035.59 437.281C2032.01 418.611 2025.44 399.94 2017.67 380.433C2000.95 338.912 1974.07 302.964 1954.36 263.393C1931.96 218.528 1908.07 168.647 1900.01 119.601C1884.18 23.7399 1919.72 -69.6134 1987.81 -143.46" stroke="#DCE9FA" stroke-opacity="0.3" stroke-width="2" stroke-miterlimit="10" stroke-linecap="round" stroke-linejoin="round" stroke-dasharray="3 3"/>
<path d="M1984.82 2338.9C1839.09 2195.11 1896.73 1930.1 2003.64 1758.16C2085.47 1626.63 2066.35 1475.04 1979.75 1349.36C1928.08 1274.67 1852.53 1210.86 1837 1123.36C1834.91 1111.1 1833.71 1099.11 1833.41 1086.85C1831.92 1003.53 1867.16 938.045 1907.48 863.084C1911.36 855.839 1915.54 848.593 1919.42 841.348C1950.48 783.943 1981.54 724.029 2003.34 666.067C2031.71 590.548 2033.5 521.16 2014.39 445.92C2009.61 427.249 2002.15 408.857 1992.89 389.351C1973.48 348.108 1944.81 312.16 1925.4 271.196C1903.59 225.495 1880.6 172.548 1874.33 122.945C1862.38 27.92 1901.5 -66.2694 1970.79 -137.608" stroke="#DCE9FA" stroke-opacity="0.3" stroke-width="2" stroke-miterlimit="10" stroke-linecap="round" stroke-linejoin="round" stroke-dasharray="3 3"/>
<path d="M1958.84 2335.84C1829.53 2197.62 1883.28 1940.69 1981.84 1771.82C2057.09 1643.07 2036.49 1495.94 1954.06 1374.44C1901.8 1297.53 1824.75 1231.48 1811.31 1141.47C1809.52 1128.93 1808.62 1116.67 1808.92 1104.13C1810.42 1018.86 1851.33 954.487 1894.63 879.247C1898.81 872.002 1903.29 864.756 1907.47 857.232C1940.62 799.27 1971.98 737.406 1992.59 677.492C2019.76 599.466 2015.88 528.684 1992.29 453.723C1986.31 435.052 1977.65 416.66 1967.2 397.432C1945.4 356.468 1914.34 320.242 1895.53 278.163C1874.62 231.347 1852.52 175.892 1848.34 125.732C1840.58 31.8215 1882.99 -63.2038 1953.76 -132.313" stroke="#DCE9FA" stroke-opacity="0.3" stroke-width="2" stroke-miterlimit="10" stroke-linecap="round" stroke-linejoin="round" stroke-dasharray="3 3"/>
<path d="M1932.86 2333.05C1819.97 2200.13 1870.15 1951.56 1960.34 1785.47C2028.72 1659.51 2006.92 1516.84 1928.38 1399.52C1875.52 1320.65 1796.98 1251.82 1785.63 1159.59C1784.14 1147.05 1783.54 1134.23 1784.44 1121.41C1789.22 1034.46 1835.5 970.928 1882.09 895.688C1886.57 888.443 1891.35 880.919 1895.83 873.673C1930.77 815.432 1962.43 751.339 1982.43 689.753C2008.42 609.219 1998.86 537.044 1971.09 462.083C1964.22 443.412 1954.06 425.02 1942.42 406.071C1917.93 365.385 1885.08 329.159 1866.56 285.687C1845.96 237.756 1824.75 179.515 1822.66 128.797C1818.78 35.7227 1864.77 -60.1387 1937.04 -126.461" stroke="#DCE9FA" stroke-opacity="0.3" stroke-width="2" stroke-miterlimit="10" stroke-linecap="round" stroke-linejoin="round" stroke-dasharray="3 3"/>
<path d="M1907.18 2330.26C1811.02 2202.91 1857.31 1962.7 1939.13 1799.4C2000.95 1675.95 1977.96 1538.01 1903.3 1424.88C1849.84 1343.78 1769.8 1272.72 1760.85 1178.26C1759.65 1165.44 1759.35 1152.34 1760.55 1138.96C1768.61 1050.07 1820.27 987.648 1869.85 912.129C1874.63 904.605 1879.7 897.36 1884.48 889.836C1921.51 831.316 1953.47 764.993 1972.28 701.736C1997.07 618.693 1981.84 545.125 1949.88 470.443C1941.82 451.772 1930.47 433.659 1917.63 414.709C1890.75 374.303 1855.81 338.076 1837.6 293.489C1817.59 244.444 1797.28 183.695 1797.28 132.141C1796.98 40.1814 1846.85 -56.7946 1920.62 -120.609" stroke="#DCE9FA" stroke-opacity="0.3" stroke-width="2" stroke-miterlimit="10" stroke-linecap="round" stroke-linejoin="round" stroke-dasharray="3 3"/>
<path d="M1881.2 2327.2C1801.46 2205.42 1844.17 1973.29 1917.33 1813.06C1972.28 1692.4 1948.09 1558.64 1877.31 1449.96C1823.26 1366.63 1741.73 1293.07 1734.86 1196.37C1733.97 1183.27 1734.27 1169.9 1735.76 1156.24C1746.81 1065.4 1803.85 1004.09 1857.01 928.571C1862.08 921.047 1867.46 913.801 1872.54 905.999C1911.36 846.921 1943.61 778.648 1961.53 713.719C1985.12 628.168 1964.22 553.485 1928.08 478.524C1919.12 459.853 1906.28 441.74 1892.25 422.791C1862.68 382.663 1825.65 346.436 1808.03 300.456C1788.62 250.296 1769.21 186.76 1771 134.649C1774.58 43.8039 1828.04 -54.2867 1903.3 -115.593" stroke="#DCE9FA" stroke-opacity="0.3" stroke-width="2" stroke-miterlimit="10" stroke-linecap="round" stroke-linejoin="round" stroke-dasharray="3 3"/>
<path d="M1855.22 2324.41C1792.2 2208.21 1831.03 1984.44 1895.83 1826.71C1944.21 1708.84 1918.83 1579.54 1851.93 1475.04C1797.28 1389.76 1714.26 1313.69 1709.78 1214.48C1709.18 1201.11 1709.78 1187.45 1711.87 1173.52C1726.2 1080.72 1788.62 1020.81 1844.76 944.733C1850.14 937.209 1855.81 929.685 1861.19 922.161C1902.1 862.805 1934.65 792.302 1951.38 725.701C1973.78 637.364 1947.2 561.567 1906.88 486.884C1896.73 468.213 1882.69 450.1 1867.76 431.429C1835.8 391.859 1796.68 355.353 1779.36 307.98C1760.55 256.705 1741.73 190.383 1745.91 137.715C1753.08 47.7052 1810.42 -51.2215 1887.17 -110.02" stroke="#DCE9FA" stroke-opacity="0.3" stroke-width="2" stroke-miterlimit="10" stroke-linecap="round" stroke-linejoin="round" stroke-dasharray="3 3"/>
<path d="M1829.53 2321.35C1782.95 2210.72 1818.18 1995.03 1874.33 1840.37C1916.14 1725.56 1889.56 1600.16 1826.25 1500.12C1771 1412.61 1686.49 1334.03 1684.1 1232.87C1683.8 1219.22 1684.69 1205.29 1687.38 1191.07C1704.7 1096.33 1772.79 1037.53 1831.92 961.453C1837.9 953.929 1843.57 946.405 1849.24 938.603C1891.95 878.689 1924.8 806.236 1940.93 737.684C1961.83 646.839 1929.88 569.648 1885.38 494.965C1874.03 476.295 1858.8 458.181 1842.67 439.789C1808.03 400.497 1767.12 363.992 1749.8 315.225C1731.58 262.836 1713.36 194.005 1719.93 140.78C1730.68 51.8852 1791.9 -48.1561 1869.85 -104.447" stroke="#DCE9FA" stroke-opacity="0.3" stroke-width="2" stroke-miterlimit="10" stroke-linecap="round" stroke-linejoin="round" stroke-dasharray="3 3"/>
<path d="M1803.55 2318.56C1773.69 2213.5 1805.04 2006.17 1852.83 1854.3C1888.06 1742.28 1860.29 1621.34 1800.86 1525.75C1745.32 1436.02 1659.01 1355.21 1658.71 1251.55C1658.71 1237.61 1660.2 1223.4 1663.19 1208.91C1683.8 1112.21 1757.26 1054.53 1819.68 978.173C1825.95 970.649 1831.92 963.125 1837.89 955.044C1882.69 894.852 1915.84 820.169 1930.77 749.945C1950.48 656.592 1912.85 578.008 1863.88 503.604C1851.63 484.655 1834.91 467.099 1817.59 448.707C1780.55 409.693 1737.25 373.188 1720.53 323.028C1702.61 269.524 1685.59 197.907 1694.25 144.124C1708.28 56.3439 1773.69 -44.5334 1853.12 -98.5947" stroke="#DCE9FA" stroke-opacity="0.3" stroke-width="2" stroke-miterlimit="10" stroke-linecap="round" stroke-linejoin="round" stroke-dasharray="3 3"/>
<path d="M1777.57 2315.49C1764.13 2216.01 1792.2 2017.04 1831.02 1867.96C1859.69 1758.72 1830.72 1641.96 1775.18 1550.83C1719.03 1458.87 1631.23 1375.55 1633.32 1269.94C1633.62 1255.73 1635.42 1241.23 1639 1226.47C1662.59 1127.82 1741.73 1071.25 1807.13 994.893C1813.7 987.369 1819.97 979.567 1826.25 971.764C1872.83 911.015 1906.58 834.381 1920.32 762.485C1938.83 666.624 1895.23 586.925 1842.37 512.243C1828.93 493.293 1811.31 475.737 1792.5 457.624C1752.78 418.889 1707.69 382.384 1691.26 330.831C1673.94 276.491 1657.51 202.087 1668.27 147.468C1685.89 60.2453 1755.17 -41.7467 1836.4 -93.3001" stroke="#DCE9FA" stroke-opacity="0.3" stroke-width="2" stroke-miterlimit="10" stroke-linecap="round" stroke-linejoin="round" stroke-dasharray="3 3"/>
<path d="M1751.89 2312.71C1754.87 2218.8 1779.36 2028.19 1809.82 1881.61C1831.92 1775.16 1801.76 1662.58 1749.8 1575.91C1693.35 1481.72 1603.76 1396.17 1607.94 1288.05C1608.54 1273.56 1610.63 1258.79 1614.81 1243.74C1641.69 1143.42 1726.2 1087.97 1794.89 1011.06C1801.76 1003.53 1808.33 995.729 1814.9 987.648C1863.58 926.62 1897.32 847.757 1910.17 774.189C1927.49 675.82 1878.21 594.728 1821.17 520.045C1806.84 501.096 1787.72 483.54 1767.71 465.427C1725.61 426.971 1678.12 390.465 1662.29 337.797C1645.57 282.343 1629.44 205.152 1642.88 149.976C1663.79 64.1466 1737.25 -38.6814 1819.68 -87.7267" stroke="#DCE9FA" stroke-opacity="0.3" stroke-width="2" stroke-miterlimit="10" stroke-linecap="round" stroke-linejoin="round" stroke-dasharray="3 3"/>
<path d="M1725.91 2309.64C1745.62 2221.31 1766.52 2039.06 1788.32 1895.27C1803.85 1791.88 1772.79 1683.2 1724.41 1600.99C1667.67 1504.57 1576.29 1416.79 1582.86 1306.16C1583.75 1291.39 1586.14 1276.35 1590.62 1261.02C1620.49 1158.75 1710.68 1104.41 1782.35 1027.22C1789.52 1019.69 1796.39 1011.89 1803.25 1003.53C1853.72 941.947 1887.77 861.133 1900.01 785.615C1915.84 684.737 1861.19 602.252 1799.97 527.848C1784.44 508.899 1764.13 491.621 1742.93 473.508C1698.13 435.331 1648.86 398.547 1633.33 344.764C1617.2 288.195 1601.67 208.217 1617.5 152.763C1641.39 67.7693 1719.34 -35.8947 1803.25 -82.432" stroke="#DCE9FA" stroke-opacity="0.3" stroke-width="2" stroke-miterlimit="10" stroke-linecap="round" stroke-linejoin="round" stroke-dasharray="3 3"/>
<path d="M1699.92 2306.86C1736.06 2224.09 1753.68 2050.2 1766.52 1909.2C1775.78 1808.6 1743.23 1704.1 1698.43 1626.35C1641.39 1527.7 1548.21 1437.42 1556.87 1324.83C1558.07 1309.79 1561.06 1294.46 1565.83 1278.85C1598.68 1174.63 1694.55 1121.69 1769.21 1044.22C1776.67 1036.41 1783.84 1028.61 1791.01 1020.53C1843.57 958.667 1877.91 875.624 1888.96 798.433C1903.59 695.048 1843.27 611.448 1777.87 536.765C1761.14 517.816 1739.64 500.539 1717.24 482.704C1670.06 445.084 1618.39 408.021 1603.46 352.845C1587.63 295.161 1573 212.397 1590.92 156.385C1618.1 72.2279 1700.22 -32.2721 1785.63 -76.3014" stroke="#DCE9FA" stroke-opacity="0.3" stroke-width="2" stroke-miterlimit="10" stroke-linecap="round" stroke-linejoin="round" stroke-dasharray="3 3"/>
<path d="M1674.24 2303.79C1727.1 2226.6 1741.43 2061.07 1745.32 1922.57C1748 1824.76 1714.56 1724.44 1673.34 1651.15C1616.3 1550 1520.74 1457.48 1531.79 1342.67C1533.28 1327.34 1536.57 1311.74 1541.94 1295.85C1578.08 1189.68 1679.32 1137.85 1757.26 1060.1C1765.03 1052.3 1772.49 1044.5 1779.96 1036.14C1834.31 973.715 1868.95 888.722 1879.11 809.859C1892.54 703.687 1826.25 618.972 1756.96 544.568C1739.34 525.619 1716.35 508.342 1692.75 490.786C1642.88 453.444 1589.43 416.381 1574.79 359.812C1559.56 301.013 1545.23 215.463 1565.83 158.893C1596.29 75.5722 1682.6 -29.7638 1769.51 -71.2852" stroke="#DCE9FA" stroke-opacity="0.3" stroke-width="2" stroke-miterlimit="10" stroke-linecap="round" stroke-linejoin="round" stroke-dasharray="3 3"/>
<path d="M1648.26 2301C1717.54 2229.39 1728.59 2071.94 1723.52 1936.51C1719.93 1841.48 1685.29 1745.06 1647.36 1676.51C1590.02 1573.13 1492.67 1478.38 1506.11 1361.06C1507.9 1345.46 1511.48 1329.57 1517.45 1313.41C1556.87 1205.29 1663.19 1154.57 1744.42 1076.82C1752.48 1069.02 1760.25 1061.22 1768.01 1052.86C1824.16 990.156 1859.4 903.212 1868.36 822.399C1880.6 713.719 1808.63 627.889 1734.86 553.207C1716.05 534.257 1691.86 516.98 1667.07 499.703C1614.81 462.64 1558.97 425.577 1544.93 367.615C1530.3 307.701 1516.26 219.364 1539.55 162.237C1573 79.7519 1663.79 -26.42 1751.89 -65.4334" stroke="#DCE9FA" stroke-opacity="0.3" stroke-width="2" stroke-miterlimit="10" stroke-linecap="round" stroke-linejoin="round" stroke-dasharray="3 3"/>
<path d="M1622.28 2297.94C1708.28 2231.89 1716.05 2082.81 1702.01 1950.16C1692.16 1857.92 1656.32 1765.69 1621.98 1701.59C1564.94 1595.7 1465.19 1498.72 1480.72 1379.45C1482.81 1363.57 1486.69 1347.41 1493.26 1330.97C1535.67 1220.89 1647.66 1171.29 1732.18 1093.26C1740.54 1085.46 1748.6 1077.38 1756.66 1069.02C1814.9 1005.76 1850.14 916.867 1858.5 834.381C1869.25 723.193 1791.9 635.971 1713.96 561.567C1693.95 542.617 1668.57 525.619 1642.88 508.063C1587.93 471.279 1530.3 434.216 1516.56 374.86C1502.22 314.111 1488.78 222.708 1514.77 165.303C1551.2 83.6535 1646.47 -23.0759 1736.06 -59.8599" stroke="#DCE9FA" stroke-opacity="0.3" stroke-width="2" stroke-miterlimit="10" stroke-linecap="round" stroke-linejoin="round" stroke-dasharray="3 3"/>
<path d="M1596.6 2295.15C1699.03 2234.4 1703.81 2093.95 1680.51 1964.1C1664.39 1874.64 1627.65 1786.59 1596.3 1726.95C1539.56 1618.55 1437.42 1519.62 1455.34 1397.85C1457.73 1381.68 1462.21 1365.24 1469.08 1348.24C1514.77 1236.22 1632.13 1187.73 1719.63 1109.7C1728.3 1101.9 1736.96 1093.82 1745.02 1085.18C1805.05 1021.65 1840.88 930.521 1848.05 846.085C1857.61 732.389 1774.58 643.773 1692.46 569.369C1671.55 550.42 1644.68 533.421 1617.8 516.144C1560.46 479.638 1500.43 442.576 1487.29 382.105C1473.56 320.241 1460.71 226.052 1488.79 168.089C1528.51 86.9972 1627.95 -20.2894 1719.04 -54.5654" stroke="#DCE9FA" stroke-opacity="0.3" stroke-width="2" stroke-miterlimit="10" stroke-linecap="round" stroke-linejoin="round" stroke-dasharray="3 3"/>
<path d="M1570.61 2292.09C1771 2199.29 1639.3 1887.18 1570.91 1752.03C1507.3 1626.35 1381.57 1513.77 1444.88 1365.8C1498.64 1240.4 1641.98 1195.81 1733.37 1101.62C1795.48 1037.53 1831.32 944.455 1837.59 858.347C1845.95 742.143 1756.96 652.412 1670.95 578.008C1601.97 518.652 1476.84 481.032 1457.72 389.908C1444.58 326.929 1432.04 229.675 1462.8 171.433C1505.51 91.1773 1609.43 -16.9454 1702.01 -48.7134" stroke="#DCE9FA" stroke-opacity="0.3" stroke-width="2" stroke-miterlimit="10" stroke-linecap="round" stroke-linejoin="round" stroke-dasharray="3 3"/>
</g>
</g>
</svg>
