<svg width="264" height="184" viewBox="0 0 264 184" fill="none" xmlns="http://www.w3.org/2000/svg">
<path d="M261.691 34.3695C306.121 16.0773 327.311 -34.7696 309.019 -79.2003C290.727 -123.631 239.88 -144.821 195.449 -126.528C151.018 -108.236 129.829 -57.3892 148.121 -12.9585C166.413 31.4722 217.26 52.6616 261.691 34.3695Z" stroke="#DCE9FA" stroke-opacity="0.15" stroke-width="1.1013" stroke-miterlimit="10"/>
<path d="M270.322 52.6735C324.831 29.8571 350.523 -32.8273 327.706 -87.336C304.89 -141.845 242.206 -167.537 187.697 -144.72C133.188 -121.904 107.496 -59.2194 130.313 -4.71064C153.129 49.7981 215.813 75.4898 270.322 52.6735Z" stroke="#DCE9FA" stroke-opacity="0.15" stroke-width="1.3544" stroke-miterlimit="10"/>
<path d="M343.226 69.0013C406.413 5.8151 406.413 -96.63 343.226 -159.816C280.04 -223.002 177.595 -223.002 114.409 -159.816C51.2226 -96.63 51.2226 5.81512 114.409 69.0013C177.595 132.188 280.04 132.188 343.226 69.0013Z" stroke="#DCE9FA" stroke-opacity="0.15" stroke-width="2.0487" stroke-miterlimit="10"/>
<path d="M322.163 46.6469C373.556 -4.74557 373.556 -88.0693 322.163 -139.462C270.771 -190.854 187.447 -190.854 136.054 -139.462C84.6619 -88.0693 84.6619 -4.74558 136.054 46.6469C187.447 98.0394 270.771 98.0394 322.163 46.6469Z" stroke="#DCE9FA" stroke-opacity="0.15" stroke-width="1.6658" stroke-miterlimit="10"/>
</svg>
