<svg width="40" height="40" viewBox="0 0 40 40" fill="none" xmlns="http://www.w3.org/2000/svg">
<mask id="path-1-inside-1_101_190" fill="white">
<path fill-rule="evenodd" clip-rule="evenodd" d="M20.2836 0.735659C18.7573 0.815092 16.8506 0.931857 16.8355 0.946848C16.827 0.955268 16.8005 1.2326 16.7766 1.56314C16.7527 1.89367 16.7101 2.33931 16.682 2.55347C16.6539 2.76763 16.61 3.21522 16.5842 3.54814C16.5353 4.18171 16.5144 4.23111 16.2949 4.23126C16.0986 4.2314 14.9588 4.52718 14.4115 4.71997C14.2664 4.77108 14.1451 4.80827 14.1419 4.80267C14.1122 4.74976 13.025 3.50837 12.8115 3.28356C12.659 3.12294 12.3776 2.8108 12.1862 2.58998C11.9947 2.36915 11.8238 2.18853 11.8062 2.18862C11.7887 2.18872 11.7091 2.23219 11.6293 2.28524C11.4306 2.41743 11.336 2.47934 11.052 2.66289C10.9175 2.74982 10.753 2.85714 10.6866 2.90138C10.6201 2.94563 10.4243 3.07397 10.2514 3.18665C10.0786 3.29933 9.7196 3.53373 9.45369 3.70754C9.18778 3.88135 8.77092 4.15275 8.52734 4.31064C8.28377 4.46853 8.05141 4.61961 8.01104 4.64638C7.94785 4.68824 7.96767 4.763 8.15313 5.18178C8.38965 5.71581 8.47672 5.9106 8.61021 6.2039C8.85819 6.74888 9.04259 7.15836 9.16278 7.43112L9.29612 7.73352L9.01788 7.99085C8.86486 8.13234 8.72146 8.25524 8.69917 8.2639C8.64952 8.28323 7.83747 9.17919 7.73154 9.33158L7.65505 9.44153L7.17646 9.28962C6.91325 9.2061 6.14505 8.9531 5.46944 8.72741C4.66517 8.45874 4.22462 8.33355 4.19354 8.36485C4.14553 8.41318 4.07823 8.54348 3.08893 10.5043C2.787 11.1027 2.44847 11.7707 2.33669 11.9888C2.2249 12.2069 2.13246 12.409 2.13121 12.4379C2.13 12.4669 2.2323 12.5614 2.35864 12.6481C2.48492 12.7346 2.74319 12.919 2.93257 13.0578C3.5917 13.5408 4.218 13.9928 4.5033 14.1914C4.66125 14.3014 4.80272 14.4037 4.81771 14.4187C4.83265 14.4338 4.80199 14.5848 4.74954 14.7542C4.54309 15.4207 4.45384 15.7614 4.37556 16.1817C4.33065 16.4226 4.26204 16.6453 4.22303 16.6766C4.18401 16.7078 3.9852 16.7683 3.78118 16.811C3.57715 16.8536 3.19264 16.9335 2.92672 16.9885C2.66081 17.0434 2.20392 17.1403 1.91142 17.2037C1.61891 17.2672 1.24654 17.3448 1.08389 17.3763C0.921252 17.4077 0.760785 17.4505 0.72728 17.4713C0.678497 17.5016 0.67753 17.7407 0.722397 18.6707C0.828473 20.8685 0.901429 22.044 0.933774 22.0766C0.963798 22.1068 1.55045 22.176 3.4102 22.3687C3.80907 22.4101 4.17217 22.4541 4.21708 22.4667C4.27205 22.482 4.31682 22.5801 4.35405 22.767C4.4345 23.1705 4.64196 23.9756 4.7463 24.2889C4.89956 24.7494 4.98074 24.6371 3.62777 25.8349C3.2156 26.1998 2.71409 26.6547 2.5133 26.8459L2.14827 27.1934L2.74092 28.1123C3.06693 28.6177 3.4015 29.1407 3.48442 29.2746C3.56738 29.4084 3.7043 29.6206 3.78862 29.746C3.87299 29.8714 3.98003 30.0357 4.02649 30.1111C4.25054 30.4745 4.43721 30.755 4.5544 30.9044L4.6833 31.0686L6.15457 30.4028C6.96372 30.0366 7.63668 29.737 7.64997 29.737C7.66327 29.737 8.05561 30.1183 8.52183 30.5843L9.36947 31.4318L9.04307 32.4217C8.38554 34.4159 8.26433 34.8134 8.30262 34.8504C8.32409 34.8711 8.73331 35.0894 9.21195 35.3354C9.69059 35.5815 10.5892 36.0451 11.2088 36.3655C12.1668 36.861 12.3467 36.9387 12.4111 36.8849C12.4528 36.8501 12.5928 36.6677 12.7222 36.4795C12.8517 36.2913 13.0977 35.9403 13.2691 35.6993C13.4404 35.4584 13.6802 35.1189 13.8019 34.9449C13.9236 34.7709 14.0861 34.5527 14.163 34.4601L14.3026 34.2916L14.7307 34.4289C14.9661 34.5044 15.2131 34.5848 15.2796 34.6075C15.3461 34.6302 15.5963 34.6942 15.8356 34.7498C16.6967 34.9499 16.6111 34.8934 16.7022 35.3225C16.8897 36.2066 17.0341 36.8959 17.1173 37.3055C17.1663 37.5464 17.2356 37.8859 17.2714 38.0599L17.3364 38.3763L18.0365 38.3608C18.4215 38.3523 19.2151 38.3146 19.8001 38.2772C20.3852 38.2396 21.1054 38.1943 21.4007 38.1763L21.9376 38.1435L22.0393 37.2134C22.0953 36.7019 22.1672 35.9944 22.199 35.6412C22.2308 35.2879 22.2698 34.9792 22.2856 34.9552C22.3013 34.9311 22.5209 34.8622 22.7735 34.8019C23.597 34.6058 24.82 34.2183 24.9137 34.124C24.9494 34.088 23.5405 32.578 21.7545 30.7383L21.3327 30.3039L20.9049 30.372C20.367 30.4577 18.2884 30.4603 17.8662 30.3758C16.7609 30.1547 15.8096 29.8774 15.2554 29.615C14.4522 29.2347 14.4588 29.2382 13.7665 28.8283C13.0036 28.3766 11.5022 27.0068 11.0104 26.3139C10.8988 26.1567 10.76 25.9687 10.7022 25.8963C10.4056 25.5252 9.7781 24.3742 9.50378 23.6982C9.19034 22.9259 8.95029 22.0402 8.80554 21.122C8.65387 20.16 8.6604 18.778 8.82115 17.8072C8.96847 16.9177 9.21712 16.0171 9.49836 15.3543C9.86677 14.4862 9.96289 14.3066 10.5401 13.4078C10.8867 12.8682 11.1498 12.5404 11.726 11.9309C13.8199 9.71585 16.6622 8.53243 19.664 8.62588C21.3189 8.67737 22.5788 8.98503 23.9757 9.67881C24.7136 10.0453 24.7208 10.0493 25.1909 10.3591C26.8297 11.4391 28.0944 12.8917 28.9858 14.7177C29.4823 15.7348 29.6145 16.1248 29.886 17.3742C30.0686 18.2143 30.1296 19.2261 30.0685 20.3982L30.0237 21.2563L30.6653 21.8853C32.4111 23.5968 33.791 24.9184 33.832 24.9184C33.8571 24.9184 33.9153 24.7925 33.9613 24.6385C34.1853 23.8891 34.2561 23.6281 34.3998 23.021L34.555 22.3647L34.7199 22.332C34.8105 22.3139 35.1458 22.2436 35.4649 22.1757C35.784 22.1077 36.2626 22.0072 36.5285 21.9521C36.7944 21.8971 37.2677 21.7932 37.5801 21.7211C38.1243 21.5955 38.1481 21.5848 38.1468 21.4655C38.146 21.397 38.1241 21.0563 38.0981 20.7082C38.0722 20.3602 38.0303 19.5498 38.0052 18.9074C37.98 18.2649 37.9445 17.5604 37.9263 17.3417L37.8932 16.9442L37.4284 16.9136C37.1728 16.8967 36.5044 16.8292 35.9432 16.7635C35.3819 16.6978 34.8334 16.6441 34.7242 16.6441C34.5317 16.6441 34.5242 16.638 34.4705 16.4373C34.44 16.3235 34.3838 16.0771 34.3455 15.8897C34.2742 15.5414 34.1961 15.2508 34.0269 14.7051L33.9312 14.3966L34.0937 14.2253C34.1831 14.1311 34.7674 13.6 35.3923 13.0451C36.0172 12.4903 36.5586 11.9995 36.5955 11.9545C36.6542 11.8828 36.6387 11.8385 36.4694 11.5936C36.3633 11.4401 36.2679 11.2919 36.2574 11.2642C36.247 11.2365 36.0017 10.8532 35.7124 10.4124C34.9443 9.24222 34.4113 8.4199 34.2835 8.20793C34.1532 7.99182 34.1275 7.9927 33.6138 8.23124C32.5064 8.74532 31.1607 9.34326 31.1109 9.34326C31.0788 9.34326 30.9907 9.2611 30.9151 9.16074C30.8396 9.06038 30.4766 8.67762 30.1086 8.31024L29.4395 7.64221L29.5332 7.36113C29.5848 7.2065 29.6745 6.93763 29.7326 6.76363C29.7907 6.58962 29.8935 6.27204 29.9611 6.05788C30.0287 5.84372 30.1229 5.55899 30.1703 5.42514C30.4483 4.64113 30.5311 4.32719 30.4812 4.24746C30.453 4.20254 29.5395 3.71144 28.4512 3.15608C26.1889 2.00172 26.4638 2.05974 26.0554 2.65082C25.926 2.83821 25.7001 3.15579 25.5534 3.35657C25.4068 3.55734 25.1572 3.90778 24.9988 4.13532C24.5386 4.79634 24.5616 4.77741 24.3139 4.69958C23.5022 4.44459 22.7947 4.26148 22.4202 4.20945C22.2923 4.19173 22.1808 4.15134 22.1723 4.11975C22.1638 4.08816 22.1087 3.82139 22.0498 3.52692C21.9165 2.86011 21.7886 2.2371 21.6303 1.48268C21.5628 1.16144 21.4984 0.849308 21.487 0.789101C21.4636 0.664938 21.5606 0.669221 20.2836 0.735659ZM18.664 11.7596C18.0089 11.8583 17.5421 11.9619 17.1047 12.1059C16.8189 12.2001 16.585 12.2906 16.585 12.3071C16.585 12.3236 17.5327 13.2897 18.691 14.454C19.9672 15.737 20.8244 16.6358 20.8666 16.7352C20.9592 16.9532 20.9549 17.272 20.8566 17.4762C20.7329 17.7336 17.866 20.6132 17.6155 20.7317C17.3815 20.8424 17.1378 20.8572 16.9378 20.7728C16.8634 20.7414 15.8423 19.753 14.6687 18.5763C13.4951 17.3995 12.5123 16.4508 12.4847 16.468C12.3996 16.521 12.1365 17.4174 12.0331 18.0069C11.7674 19.5207 12.0039 21.1578 12.6974 22.6065C13.2693 23.8008 14.453 25.1044 15.512 25.706C16.3848 26.2018 17.0805 26.4681 17.9742 26.6486C18.7169 26.7985 20.0257 26.8183 20.6362 26.689C20.8411 26.6455 21.0306 26.6072 21.0572 26.6038C21.1095 26.5971 22.3774 27.8988 26.3134 32.0002C28.9165 34.7126 32.256 38.167 32.7444 38.6524C33.257 39.1617 33.9906 39.3995 34.6811 39.28C35.1027 39.207 35.4005 39.1285 35.4624 39.0738C35.4877 39.0516 35.546 39.0334 35.5921 39.0334C35.7328 39.0334 36.5539 38.593 36.9636 38.2979C37.4312 37.9612 38.0534 37.3284 38.3625 36.8753C39.0539 35.8619 39.415 34.6987 39.2837 33.908C39.1677 33.2093 39.1252 33.153 37.4848 31.524C36.6664 30.7112 34.5499 28.6409 32.7816 26.9234C27.5776 21.869 26.7135 21.011 26.7179 20.9029C26.7201 20.8494 26.7607 20.58 26.8082 20.3044C26.9782 19.3177 26.8584 17.9931 26.4948 16.8399C26.3471 16.3712 25.9183 15.513 25.5705 14.9899C25.1868 14.4128 24.2977 13.5036 23.7405 13.1185C22.7637 12.4434 21.8249 12.0566 20.6506 11.8455C20.0414 11.7359 19.0937 11.695 18.664 11.7596Z"/>
</mask>
<path fill-rule="evenodd" clip-rule="evenodd" d="M20.2836 0.735659C18.7573 0.815092 16.8506 0.931857 16.8355 0.946848C16.827 0.955268 16.8005 1.2326 16.7766 1.56314C16.7527 1.89367 16.7101 2.33931 16.682 2.55347C16.6539 2.76763 16.61 3.21522 16.5842 3.54814C16.5353 4.18171 16.5144 4.23111 16.2949 4.23126C16.0986 4.2314 14.9588 4.52718 14.4115 4.71997C14.2664 4.77108 14.1451 4.80827 14.1419 4.80267C14.1122 4.74976 13.025 3.50837 12.8115 3.28356C12.659 3.12294 12.3776 2.8108 12.1862 2.58998C11.9947 2.36915 11.8238 2.18853 11.8062 2.18862C11.7887 2.18872 11.7091 2.23219 11.6293 2.28524C11.4306 2.41743 11.336 2.47934 11.052 2.66289C10.9175 2.74982 10.753 2.85714 10.6866 2.90138C10.6201 2.94563 10.4243 3.07397 10.2514 3.18665C10.0786 3.29933 9.7196 3.53373 9.45369 3.70754C9.18778 3.88135 8.77092 4.15275 8.52734 4.31064C8.28377 4.46853 8.05141 4.61961 8.01104 4.64638C7.94785 4.68824 7.96767 4.763 8.15313 5.18178C8.38965 5.71581 8.47672 5.9106 8.61021 6.2039C8.85819 6.74888 9.04259 7.15836 9.16278 7.43112L9.29612 7.73352L9.01788 7.99085C8.86486 8.13234 8.72146 8.25524 8.69917 8.2639C8.64952 8.28323 7.83747 9.17919 7.73154 9.33158L7.65505 9.44153L7.17646 9.28962C6.91325 9.2061 6.14505 8.9531 5.46944 8.72741C4.66517 8.45874 4.22462 8.33355 4.19354 8.36485C4.14553 8.41318 4.07823 8.54348 3.08893 10.5043C2.787 11.1027 2.44847 11.7707 2.33669 11.9888C2.2249 12.2069 2.13246 12.409 2.13121 12.4379C2.13 12.4669 2.2323 12.5614 2.35864 12.6481C2.48492 12.7346 2.74319 12.919 2.93257 13.0578C3.5917 13.5408 4.218 13.9928 4.5033 14.1914C4.66125 14.3014 4.80272 14.4037 4.81771 14.4187C4.83265 14.4338 4.80199 14.5848 4.74954 14.7542C4.54309 15.4207 4.45384 15.7614 4.37556 16.1817C4.33065 16.4226 4.26204 16.6453 4.22303 16.6766C4.18401 16.7078 3.9852 16.7683 3.78118 16.811C3.57715 16.8536 3.19264 16.9335 2.92672 16.9885C2.66081 17.0434 2.20392 17.1403 1.91142 17.2037C1.61891 17.2672 1.24654 17.3448 1.08389 17.3763C0.921252 17.4077 0.760785 17.4505 0.72728 17.4713C0.678497 17.5016 0.67753 17.7407 0.722397 18.6707C0.828473 20.8685 0.901429 22.044 0.933774 22.0766C0.963798 22.1068 1.55045 22.176 3.4102 22.3687C3.80907 22.4101 4.17217 22.4541 4.21708 22.4667C4.27205 22.482 4.31682 22.5801 4.35405 22.767C4.4345 23.1705 4.64196 23.9756 4.7463 24.2889C4.89956 24.7494 4.98074 24.6371 3.62777 25.8349C3.2156 26.1998 2.71409 26.6547 2.5133 26.8459L2.14827 27.1934L2.74092 28.1123C3.06693 28.6177 3.4015 29.1407 3.48442 29.2746C3.56738 29.4084 3.7043 29.6206 3.78862 29.746C3.87299 29.8714 3.98003 30.0357 4.02649 30.1111C4.25054 30.4745 4.43721 30.755 4.5544 30.9044L4.6833 31.0686L6.15457 30.4028C6.96372 30.0366 7.63668 29.737 7.64997 29.737C7.66327 29.737 8.05561 30.1183 8.52183 30.5843L9.36947 31.4318L9.04307 32.4217C8.38554 34.4159 8.26433 34.8134 8.30262 34.8504C8.32409 34.8711 8.73331 35.0894 9.21195 35.3354C9.69059 35.5815 10.5892 36.0451 11.2088 36.3655C12.1668 36.861 12.3467 36.9387 12.4111 36.8849C12.4528 36.8501 12.5928 36.6677 12.7222 36.4795C12.8517 36.2913 13.0977 35.9403 13.2691 35.6993C13.4404 35.4584 13.6802 35.1189 13.8019 34.9449C13.9236 34.7709 14.0861 34.5527 14.163 34.4601L14.3026 34.2916L14.7307 34.4289C14.9661 34.5044 15.2131 34.5848 15.2796 34.6075C15.3461 34.6302 15.5963 34.6942 15.8356 34.7498C16.6967 34.9499 16.6111 34.8934 16.7022 35.3225C16.8897 36.2066 17.0341 36.8959 17.1173 37.3055C17.1663 37.5464 17.2356 37.8859 17.2714 38.0599L17.3364 38.3763L18.0365 38.3608C18.4215 38.3523 19.2151 38.3146 19.8001 38.2772C20.3852 38.2396 21.1054 38.1943 21.4007 38.1763L21.9376 38.1435L22.0393 37.2134C22.0953 36.7019 22.1672 35.9944 22.199 35.6412C22.2308 35.2879 22.2698 34.9792 22.2856 34.9552C22.3013 34.9311 22.5209 34.8622 22.7735 34.8019C23.597 34.6058 24.82 34.2183 24.9137 34.124C24.9494 34.088 23.5405 32.578 21.7545 30.7383L21.3327 30.3039L20.9049 30.372C20.367 30.4577 18.2884 30.4603 17.8662 30.3758C16.7609 30.1547 15.8096 29.8774 15.2554 29.615C14.4522 29.2347 14.4588 29.2382 13.7665 28.8283C13.0036 28.3766 11.5022 27.0068 11.0104 26.3139C10.8988 26.1567 10.76 25.9687 10.7022 25.8963C10.4056 25.5252 9.7781 24.3742 9.50378 23.6982C9.19034 22.9259 8.95029 22.0402 8.80554 21.122C8.65387 20.16 8.6604 18.778 8.82115 17.8072C8.96847 16.9177 9.21712 16.0171 9.49836 15.3543C9.86677 14.4862 9.96289 14.3066 10.5401 13.4078C10.8867 12.8682 11.1498 12.5404 11.726 11.9309C13.8199 9.71585 16.6622 8.53243 19.664 8.62588C21.3189 8.67737 22.5788 8.98503 23.9757 9.67881C24.7136 10.0453 24.7208 10.0493 25.1909 10.3591C26.8297 11.4391 28.0944 12.8917 28.9858 14.7177C29.4823 15.7348 29.6145 16.1248 29.886 17.3742C30.0686 18.2143 30.1296 19.2261 30.0685 20.3982L30.0237 21.2563L30.6653 21.8853C32.4111 23.5968 33.791 24.9184 33.832 24.9184C33.8571 24.9184 33.9153 24.7925 33.9613 24.6385C34.1853 23.8891 34.2561 23.6281 34.3998 23.021L34.555 22.3647L34.7199 22.332C34.8105 22.3139 35.1458 22.2436 35.4649 22.1757C35.784 22.1077 36.2626 22.0072 36.5285 21.9521C36.7944 21.8971 37.2677 21.7932 37.5801 21.7211C38.1243 21.5955 38.1481 21.5848 38.1468 21.4655C38.146 21.397 38.1241 21.0563 38.0981 20.7082C38.0722 20.3602 38.0303 19.5498 38.0052 18.9074C37.98 18.2649 37.9445 17.5604 37.9263 17.3417L37.8932 16.9442L37.4284 16.9136C37.1728 16.8967 36.5044 16.8292 35.9432 16.7635C35.3819 16.6978 34.8334 16.6441 34.7242 16.6441C34.5317 16.6441 34.5242 16.638 34.4705 16.4373C34.44 16.3235 34.3838 16.0771 34.3455 15.8897C34.2742 15.5414 34.1961 15.2508 34.0269 14.7051L33.9312 14.3966L34.0937 14.2253C34.1831 14.1311 34.7674 13.6 35.3923 13.0451C36.0172 12.4903 36.5586 11.9995 36.5955 11.9545C36.6542 11.8828 36.6387 11.8385 36.4694 11.5936C36.3633 11.4401 36.2679 11.2919 36.2574 11.2642C36.247 11.2365 36.0017 10.8532 35.7124 10.4124C34.9443 9.24222 34.4113 8.4199 34.2835 8.20793C34.1532 7.99182 34.1275 7.9927 33.6138 8.23124C32.5064 8.74532 31.1607 9.34326 31.1109 9.34326C31.0788 9.34326 30.9907 9.2611 30.9151 9.16074C30.8396 9.06038 30.4766 8.67762 30.1086 8.31024L29.4395 7.64221L29.5332 7.36113C29.5848 7.2065 29.6745 6.93763 29.7326 6.76363C29.7907 6.58962 29.8935 6.27204 29.9611 6.05788C30.0287 5.84372 30.1229 5.55899 30.1703 5.42514C30.4483 4.64113 30.5311 4.32719 30.4812 4.24746C30.453 4.20254 29.5395 3.71144 28.4512 3.15608C26.1889 2.00172 26.4638 2.05974 26.0554 2.65082C25.926 2.83821 25.7001 3.15579 25.5534 3.35657C25.4068 3.55734 25.1572 3.90778 24.9988 4.13532C24.5386 4.79634 24.5616 4.77741 24.3139 4.69958C23.5022 4.44459 22.7947 4.26148 22.4202 4.20945C22.2923 4.19173 22.1808 4.15134 22.1723 4.11975C22.1638 4.08816 22.1087 3.82139 22.0498 3.52692C21.9165 2.86011 21.7886 2.2371 21.6303 1.48268C21.5628 1.16144 21.4984 0.849308 21.487 0.789101C21.4636 0.664938 21.5606 0.669221 20.2836 0.735659ZM18.664 11.7596C18.0089 11.8583 17.5421 11.9619 17.1047 12.1059C16.8189 12.2001 16.585 12.2906 16.585 12.3071C16.585 12.3236 17.5327 13.2897 18.691 14.454C19.9672 15.737 20.8244 16.6358 20.8666 16.7352C20.9592 16.9532 20.9549 17.272 20.8566 17.4762C20.7329 17.7336 17.866 20.6132 17.6155 20.7317C17.3815 20.8424 17.1378 20.8572 16.9378 20.7728C16.8634 20.7414 15.8423 19.753 14.6687 18.5763C13.4951 17.3995 12.5123 16.4508 12.4847 16.468C12.3996 16.521 12.1365 17.4174 12.0331 18.0069C11.7674 19.5207 12.0039 21.1578 12.6974 22.6065C13.2693 23.8008 14.453 25.1044 15.512 25.706C16.3848 26.2018 17.0805 26.4681 17.9742 26.6486C18.7169 26.7985 20.0257 26.8183 20.6362 26.689C20.8411 26.6455 21.0306 26.6072 21.0572 26.6038C21.1095 26.5971 22.3774 27.8988 26.3134 32.0002C28.9165 34.7126 32.256 38.167 32.7444 38.6524C33.257 39.1617 33.9906 39.3995 34.6811 39.28C35.1027 39.207 35.4005 39.1285 35.4624 39.0738C35.4877 39.0516 35.546 39.0334 35.5921 39.0334C35.7328 39.0334 36.5539 38.593 36.9636 38.2979C37.4312 37.9612 38.0534 37.3284 38.3625 36.8753C39.0539 35.8619 39.415 34.6987 39.2837 33.908C39.1677 33.2093 39.1252 33.153 37.4848 31.524C36.6664 30.7112 34.5499 28.6409 32.7816 26.9234C27.5776 21.869 26.7135 21.011 26.7179 20.9029C26.7201 20.8494 26.7607 20.58 26.8082 20.3044C26.9782 19.3177 26.8584 17.9931 26.4948 16.8399C26.3471 16.3712 25.9183 15.513 25.5705 14.9899C25.1868 14.4128 24.2977 13.5036 23.7405 13.1185C22.7637 12.4434 21.8249 12.0566 20.6506 11.8455C20.0414 11.7359 19.0937 11.695 18.664 11.7596Z" stroke="#D72326" stroke-width="2.6" mask="url(#path-1-inside-1_101_190)"/>
</svg>
