<svg width="42" height="34" viewBox="0 0 42 34" fill="none" xmlns="http://www.w3.org/2000/svg">
<path fill-rule="evenodd" clip-rule="evenodd" d="M15.7617 0.222907C13.9555 0.559232 12.4021 1.88576 11.811 3.59652C11.6265 4.13078 11.5983 4.35785 11.5624 5.60673L11.5219 7.01466H6.00233H0.482788V10.4214C0.482788 14.0971 0.520056 14.5429 0.919421 15.6399C1.0301 15.944 1.28376 16.48 1.483 16.831L1.84526 17.469V25.6828V33.8966H21H40.1548V25.6828V17.469L40.5171 16.831C40.7163 16.48 40.97 15.944 41.0806 15.6399C41.48 14.5429 41.5173 14.0971 41.5173 10.4214V7.01466H35.9977H30.4782L30.4376 5.60673C30.4017 4.3589 30.3735 4.13048 30.1896 3.59809C29.5883 1.8579 28.0325 0.545415 26.1824 0.217726C25.3056 0.062441 16.6004 0.0667962 15.7617 0.222907ZM26.1661 2.58972C26.753 2.79547 27.4204 3.3717 27.7087 3.92173C27.9241 4.33284 27.9337 4.39945 27.9591 5.68182L27.9857 7.01466H21H14.0144L14.0409 5.68182C14.0664 4.39945 14.0759 4.33284 14.2914 3.92173C14.5717 3.38687 15.2473 2.79644 15.8112 2.59333C16.2149 2.44795 16.4173 2.44187 20.9769 2.43812C25.5857 2.43436 25.7354 2.43872 26.1661 2.58972ZM39.1129 11.36C39.1129 13.6369 39.024 14.3431 38.6241 15.2431C38.1229 16.3709 37.1314 17.407 36.0273 17.9564C35.7187 18.1098 33.2122 18.9845 30.4572 19.9L25.4481 21.5644L25.4263 20.184L25.4045 18.8037H21H16.5956L16.5738 20.1822L16.552 21.5606L11.5429 19.8965C8.78786 18.9813 6.26328 18.0999 5.93268 17.938C5.22219 17.5899 4.19617 16.6696 3.78037 16.0073C3.02965 14.8117 2.88715 14.0701 2.88715 11.36V9.34242H21H39.1129V11.36ZM4.66101 19.8988C4.8415 20.0055 5.15631 20.1614 5.36068 20.2451C5.69425 20.3817 16.485 23.9848 16.5607 23.9848C16.5779 23.9848 16.592 24.2649 16.592 24.6073C16.592 25.7954 17.0186 26.7874 17.8744 27.5891C18.7495 28.4091 19.789 28.8177 21 28.8177C22.211 28.8177 23.2505 28.4091 24.1257 27.5891C24.978 26.7906 25.408 25.7949 25.408 24.6202V24.0106L30.7978 22.2264C33.9926 21.1688 36.5059 20.2936 36.969 20.0773L37.7504 19.7126V25.6407V31.5689H21H4.24963V25.6368C4.24963 22.3742 4.26838 19.7047 4.2913 19.7047C4.31422 19.7047 4.4806 19.7921 4.66101 19.8988ZM23.0037 22.9299C23.0037 23.9465 22.9656 24.8945 22.9161 25.1107C22.7309 25.9197 21.9011 26.5379 21 26.5379C20.099 26.5379 19.2691 25.9197 19.0839 25.1107C19.0345 24.8945 18.9964 23.9465 18.9964 22.9299V21.1314H21H23.0037V22.9299Z" fill="#D72326"/>
</svg>
