<svg width="42" height="28" viewBox="0 0 42 28" fill="none" xmlns="http://www.w3.org/2000/svg">
<path d="M19.5936 1.60039L19.5935 1.60041C17.5909 2.08092 15.8559 3.81746 15.3847 5.8066L15.3847 5.80663C15.3079 6.13078 15.2604 6.66446 15.2597 7.2297C15.2591 7.79913 15.3062 8.30609 15.3776 8.58421C15.8956 10.5986 17.2065 12.0201 19.172 12.6992C19.5046 12.8141 19.6758 12.8615 19.8824 12.8888C20.1086 12.9187 20.3972 12.9272 20.9682 12.9278L20.9683 12.9278C21.65 12.9287 22.0781 12.8985 22.4468 12.8199C22.8074 12.7429 23.1471 12.6118 23.64 12.3652L23.64 12.3652C24.7919 11.7891 25.6487 10.912 26.2316 9.69624L26.2317 9.69622C26.4774 9.18379 26.6118 8.81106 26.6856 8.42933C26.7602 8.04344 26.7803 7.61066 26.7547 6.96838C26.7197 6.09373 26.583 5.42447 26.3255 4.83571C26.0681 4.24714 25.6706 3.69469 25.0545 3.07984C23.9443 1.97192 22.6724 1.46085 20.9823 1.47464L19.5936 1.60039ZM19.5936 1.60039C19.8314 1.54332 20.4679 1.47887 20.9822 1.47464L19.5936 1.60039ZM4.71763 7.0495L4.71762 7.04951C3.10628 8.64966 3.1097 11.2037 4.74386 12.8283L4.74387 12.8283C6.71428 14.7872 10.2387 14.0496 11.2758 11.4395L11.2758 11.4395C11.699 10.3747 11.6606 9.26315 11.1523 8.19271C10.3637 6.53224 8.55726 5.62823 6.68181 5.99293L4.71763 7.0495ZM4.71763 7.0495C4.93354 6.83507 5.26817 6.5967 5.64776 6.39304M4.71763 7.0495L5.64776 6.39304M32.6018 23.2019L32.6026 21.3252C32.6035 19.1029 32.5855 18.5291 32.3959 17.865L32.3959 17.8649C32.1477 16.9964 31.8208 16.323 31.3207 15.6922C31.3684 15.7086 31.4078 15.728 31.4379 15.7483C31.438 15.7483 31.438 15.7483 31.438 15.7483L31.8568 15.1261L32.6018 23.2019ZM32.6018 23.2019L34.3309 23.2012C36.9287 23.2001 38.6155 23.0909 39.6758 22.8771C40.0294 22.8058 40.1384 22.7357 40.1999 22.6776C40.2777 22.6042 40.382 22.4524 40.5394 22.0173L40.5394 22.0172C40.6733 21.6472 40.7124 21.4303 40.7511 19.7752C40.7887 18.1645 40.7596 17.8855 40.6615 17.5507C40.497 16.9897 40.1946 16.5729 39.8486 16.3351C39.6734 16.2146 39.3597 16.062 38.9885 15.9276C38.6206 15.7943 38.2606 15.7022 38.0098 15.6733L38.0958 14.9282L38.0098 15.6733C37.8037 15.6495 37.7732 15.6577 37.7484 15.6644L37.7459 15.665C37.6762 15.6835 37.561 15.7333 37.2109 15.9189L32.6018 23.2019ZM33.3383 5.30157L33.5136 6.03079C32.5597 6.26015 31.6213 6.92798 31.0857 7.76169C30.2757 9.02306 30.2757 10.8251 31.0857 12.0865C31.4373 12.6338 32.173 13.2793 32.7281 13.5369M33.3383 5.30157L32.7281 13.5369M33.3383 5.30157L33.5136 6.03079C36.4568 5.32309 39.0996 7.94976 38.4102 10.8505C37.816 13.3511 35.121 14.6476 32.7281 13.5369M33.3383 5.30157L32.4123 14.2172L32.7281 13.5369M3.51363 15.7524L3.51362 15.7524C2.39857 16.0574 1.72519 16.6165 1.46222 17.2028C1.4128 17.3131 1.34674 17.5839 1.2988 18.0233C1.25346 18.439 1.23088 18.9383 1.23291 19.4557C1.23709 20.5201 1.3448 21.5359 1.51004 22.0284L1.51005 22.0284C1.65919 22.473 1.75615 22.6149 1.82445 22.6801C1.87801 22.7312 1.98186 22.8012 2.35731 22.8777C3.37099 23.0839 5.22529 23.2022 7.78652 23.2022H9.42813V21.3249C9.42813 19.1056 9.44651 18.5283 9.63587 17.8651L3.51363 15.7524ZM3.51363 15.7524C3.84698 15.6612 4.03925 15.6429 4.17256 15.6537C4.28875 15.6631 4.40463 15.6977 4.57717 15.8028L4.57725 15.8028M3.51363 15.7524L4.57725 15.8028M10.7316 15.661C10.2141 16.2982 9.89514 16.9568 9.6359 17.865L10.7316 15.661ZM10.7316 15.661C10.7105 15.6727 10.673 15.6951 10.611 15.7368L10.611 15.7369C10.166 16.0364 9.74485 16.2519 9.23829 16.3841C8.74487 16.5128 8.20979 16.5518 7.55515 16.5531L10.7316 15.661ZM4.57725 15.8028C5.04404 16.0868 5.44857 16.2916 5.93365 16.4118M4.57725 15.8028L5.93365 16.4118M15.2204 15.8929L15.2204 15.8929C13.9304 16.2588 12.9736 16.9688 12.6153 17.6254L11.957 17.2661L12.6153 17.6254C12.366 18.0823 12.2541 18.3551 12.1876 18.7736C12.1138 19.2383 12.0955 19.8879 12.0967 21.1073C12.0991 23.6355 12.2299 24.3415 12.7107 25.3377L12.7107 25.3378C12.8965 25.7228 12.9816 25.8291 13.0418 25.881C13.0922 25.9244 13.1838 25.9812 13.5462 26.0766L15.2204 15.8929ZM15.2204 15.8929C15.4708 15.8218 15.6379 15.7784 15.759 15.7555M15.2204 15.8929L27.0412 15.9893M29.7755 23.9884L29.7755 23.9884C29.8852 23.4747 29.9509 22.2987 29.9505 21.0922C29.9503 20.5023 29.9343 19.929 29.9034 19.4575C29.8706 18.9586 29.8251 18.6489 29.7903 18.5361L29.7755 23.9884ZM29.7755 23.9884C29.6862 24.4067 29.5178 24.893 29.3333 25.2967C29.2414 25.4978 29.1522 25.6637 29.0759 25.7824C29.031 25.8522 29.002 25.8877 28.9906 25.9014C28.9108 25.9448 28.7323 26.0156 28.3743 26.0964C27.9847 26.1843 27.4457 26.2709 26.7069 26.3627C25.6434 26.4949 24.6599 26.5261 21.0159 26.5261C16.44 26.5261 14.8359 26.4161 13.5463 26.0767L29.7755 23.9884ZM27.0412 15.9893L27.0412 15.9893C26.7195 15.8871 26.4961 15.8195 26.33 15.7794C26.3082 15.7741 26.2885 15.7696 26.2707 15.7658C26.2694 15.7683 26.2682 15.7709 26.2669 15.7735L26.2669 15.7735C26.1029 16.1085 25.6354 16.7617 25.2423 17.2435C24.3046 18.3927 23.5531 19.4459 23.0398 20.3198L23.0397 20.3199L22.5931 21.0801L21.5799 22.8046L21.2094 20.8391L21.0114 19.7886L20.8161 20.8572L20.4258 22.993L19.4146 21.0716L19.2371 20.7342L19.237 20.734C18.8818 20.0587 17.8819 18.614 17.0408 17.5801L17.0408 17.5801C16.5468 16.9729 15.9772 16.1887 15.7964 15.8283M27.0412 15.9893C27.896 16.2609 28.4682 16.5747 28.8769 16.9584M27.0412 15.9893L28.8769 16.9584M15.7964 15.8283L16.4667 15.4919L15.7964 15.8284C15.7964 15.8284 15.7964 15.8283 15.7964 15.8283ZM15.7964 15.8283C15.7825 15.8007 15.7701 15.7766 15.759 15.7555M15.759 15.7555C15.7632 15.7547 15.7674 15.7539 15.7716 15.7531C15.8528 15.7383 15.8842 15.7389 15.8842 15.7386C15.8842 15.7385 15.8738 15.738 15.8564 15.7342C15.8253 15.7273 15.7875 15.7132 15.7506 15.6899C15.7155 15.6678 15.6965 15.647 15.6922 15.642C15.6896 15.639 15.698 15.6482 15.718 15.6819C15.7298 15.7016 15.7431 15.7255 15.759 15.7555ZM5.64776 6.39304C6.02843 6.1888 6.40239 6.04732 6.68174 5.99295L5.64776 6.39304ZM5.93365 16.4118C6.40586 16.5288 6.90991 16.5543 7.55509 16.5531L5.93365 16.4118ZM28.8769 16.9584C29.2787 17.3356 29.5712 17.8262 29.7903 18.536L28.8769 16.9584ZM21.5938 15.8352C21.3631 16.1418 21.1637 16.4299 21.0184 16.7415C20.8709 16.428 20.6663 16.1414 20.4324 15.8355C20.5988 15.833 20.792 15.8322 21.0159 15.8322C21.2374 15.8322 21.4287 15.8329 21.5938 15.8352ZM19.9983 15.2286C19.9984 15.2286 19.9994 15.2308 20.001 15.235C19.9989 15.2306 19.9982 15.2285 19.9983 15.2286ZM19.6968 15.887C19.6966 15.887 19.6986 15.8862 19.7034 15.8849C19.6993 15.8864 19.697 15.887 19.6968 15.887ZM22.3358 15.8849C22.3356 15.885 22.3333 15.8843 22.329 15.8828C22.3338 15.8841 22.336 15.8849 22.3358 15.8849ZM22.0294 15.2207C22.0295 15.2207 22.0287 15.2228 22.0266 15.2272C22.0282 15.2229 22.0292 15.2207 22.0294 15.2207ZM29.0175 25.8855L29.0173 25.8856L29.0175 25.8855Z" stroke="#D72326" stroke-width="1.5"/>
</svg>
