<svg width="35" height="35" viewBox="0 0 35 35" fill="none" xmlns="http://www.w3.org/2000/svg">
<g clip-path="url(#clip0_101_228)">
<path d="M21.8064 8.71117L21.8064 8.71118C21.7407 8.7331 21.673 8.73538 21.6212 8.73118C21.5742 8.72738 21.5047 8.71549 21.4407 8.67873L21.8064 8.71117ZM21.8064 8.71117C21.8259 8.70464 21.8403 8.69709 21.845 8.6946C21.8515 8.69113 21.8567 8.68801 21.8597 8.68613C21.8658 8.68236 21.8707 8.67899 21.8733 8.67718C21.8789 8.67331 21.8841 8.66943 21.8878 8.66661C21.8957 8.66061 21.9054 8.65306 21.9158 8.64477C21.9371 8.6279 21.9666 8.60402 22.003 8.57435C22.0759 8.51482 22.1792 8.4297 22.305 8.32548C22.5567 8.11693 22.9 7.83073 23.274 7.51717L23.1164 7.32919M21.8064 8.71117L23.1164 7.32919M23.1164 7.32919L23.274 7.51717C23.6476 7.20396 23.9883 6.91931 24.2363 6.71305C24.3345 6.63136 24.418 6.5621 24.4831 6.50827C24.5479 6.56176 24.6307 6.63049 24.7281 6.7115C24.9749 6.9168 25.314 7.20012 25.6859 7.51187C26.0581 7.82395 26.4001 8.10937 26.6513 8.31785C26.7768 8.42205 26.8799 8.50727 26.9529 8.56707C26.9893 8.5969 27.0188 8.62085 27.0399 8.63781C27.0504 8.64618 27.0597 8.6536 27.0673 8.65942L27.0801 8.66904C27.0823 8.67066 27.0861 8.67334 27.0906 8.67634L27.0908 8.67648C27.0929 8.67786 27.1064 8.68696 27.1244 8.69533L27.1245 8.69538M23.1164 7.32919L27.1245 8.69538M27.1245 8.69538C27.1974 8.72933 27.2749 8.73449 27.3293 8.73197M27.1245 8.69538L27.3293 8.73197M22.0784 2.0337V4.88212C22.0784 6.26036 22.0787 7.02589 22.0817 7.4486C22.3107 7.25725 22.6218 6.99665 22.9607 6.7124C23.3018 6.42631 23.618 6.16322 23.8528 5.96975C23.9702 5.87309 24.0677 5.7934 24.138 5.73677C24.173 5.70857 24.2022 5.68539 24.224 5.66847C24.2347 5.66013 24.245 5.65232 24.2539 5.64584C24.2582 5.64268 24.2636 5.63877 24.2694 5.63487L24.2698 5.63463C24.2729 5.63253 24.2877 5.62256 24.3064 5.6137L22.0784 2.0337ZM22.0784 2.0337H24.4828H26.8872V4.88257V7.45127C26.6968 7.29235 26.4528 7.08847 26.2008 6.87769C25.6601 6.4255 25.0834 5.94246 24.9186 5.80308L24.9186 5.80306C24.8218 5.72115 24.7298 5.64493 24.6426 5.60581C24.589 5.58179 24.527 5.56623 24.4574 5.57135C24.3924 5.57613 24.3402 5.59775 24.3064 5.6137L22.0784 2.0337ZM21.4411 1.28703C21.4408 1.28717 21.4405 1.28732 21.4402 1.28749C21.44 1.28759 21.4397 1.2877 21.4395 1.28782C21.4318 1.2915 21.4061 1.30381 21.3791 1.32538C21.3118 1.3792 21.2852 1.44853 21.2726 1.4973C21.2524 1.57586 21.2457 1.70079 21.2412 1.89568C21.2326 2.26415 21.2327 2.99002 21.2328 4.43184C21.2328 4.60502 21.2328 4.78853 21.2328 4.98299C21.2328 5.17745 21.2328 5.36096 21.2328 5.53414C21.2327 6.97596 21.2326 7.70184 21.2412 8.0703C21.2457 8.2652 21.2524 8.39012 21.2726 8.46868C21.2852 8.51745 21.3118 8.58678 21.3791 8.6406C21.406 8.66218 21.4318 8.67448 21.4395 8.67816L21.4402 8.67849C21.4404 8.67857 21.4405 8.67865 21.4407 8.67873L21.4411 1.28703ZM21.4411 1.28703C21.4904 1.2594 21.5391 1.25295 21.5561 1.25069C21.5564 1.25065 21.5567 1.25061 21.557 1.25057C21.5834 1.24707 21.6149 1.24495 21.6512 1.24335C21.7254 1.24008 21.8461 1.23792 22.0437 1.23641C22.4406 1.23338 23.1633 1.23291 24.4828 1.23291C25.8023 1.23291 26.525 1.23338 26.9219 1.23641C27.1195 1.23792 27.2401 1.24008 27.3143 1.24335C27.3507 1.24495 27.3822 1.24707 27.4085 1.25057L27.4095 1.25069C27.4265 1.25295 27.4752 1.2594 27.5244 1.28702C27.5247 1.28717 27.5251 1.28732 27.5254 1.28749L27.5261 1.28782C27.5338 1.2915 27.5595 1.30381 27.5865 1.32538C27.6537 1.3792 27.6804 1.44853 27.6929 1.4973C27.7132 1.57586 27.7199 1.70079 27.7244 1.89568C27.7329 2.26414 27.7329 2.99001 27.7328 4.43182C27.7328 4.60501 27.7327 4.78852 27.7327 4.98299C27.7327 5.17746 27.7328 5.36098 27.7328 5.53416C27.7329 6.97597 27.7329 7.70184 27.7244 8.0703C27.7199 8.2652 27.7132 8.39012 27.6929 8.46868C27.6804 8.51745 27.6537 8.58678 27.5865 8.6406C27.5595 8.66218 27.5338 8.67448 27.5261 8.67816L27.5254 8.67849L21.4411 1.28703ZM27.3293 8.73197C27.3809 8.72958 27.4561 8.71828 27.5249 8.67871L27.3293 8.73197Z" fill="#D72326" stroke="#D72326" stroke-width="0.5"/>
<path fill-rule="evenodd" clip-rule="evenodd" d="M6.79062 0.493609C5.76439 0.673026 4.93693 1.40119 4.58934 2.43068L4.48279 2.74626V17.4789V32.2116L4.59169 32.5353C4.896 33.4397 5.57102 34.1067 6.47363 34.3949L6.70993 34.4704L14.0046 34.4803C19.3529 34.4876 21.3338 34.4802 21.4284 34.4527C21.5394 34.4204 22.1704 33.785 25.9246 29.925C28.3264 27.4554 30.3346 25.3686 30.3872 25.2876L30.4828 25.1403L30.4745 13.9433L30.4661 2.74626L30.3596 2.43068C30.0505 1.5153 29.3825 0.852077 28.4798 0.564167L28.239 0.487364L17.5551 0.483444C11.679 0.481285 6.835 0.485869 6.79062 0.493609ZM28.0789 1.9504C28.4761 2.0562 28.792 2.33006 28.9778 2.72965L29.0782 2.94558L29.0865 13.5674L29.0948 24.1892L26.1654 24.1893C24.2864 24.1893 23.1318 24.2021 22.9455 24.2249C21.8496 24.3591 20.9413 25.1484 20.5975 26.2654L20.5259 26.4979L20.5163 29.7783L20.5067 33.0587H13.7846C6.36304 33.0587 6.86764 33.0732 6.50458 32.8497C6.27996 32.7114 6.09627 32.4974 5.9711 32.2282L5.87072 32.0123V17.4789V2.94558L5.9711 2.72965C6.09621 2.46061 6.27986 2.24661 6.50458 2.10802C6.8627 1.88722 5.98508 1.90376 17.4596 1.90137C26.755 1.89941 27.9074 1.90472 28.0789 1.9504ZM8.57685 5.60094C8.24456 5.70791 8.09918 5.93875 8.11974 6.32688C8.13988 6.70677 8.31402 6.91509 8.66781 6.98239C8.78595 7.00488 10.4595 7.01335 13.6043 7.00734L18.3621 6.9983L18.4974 6.92386C19.0492 6.6203 18.9482 5.72252 18.3472 5.58988C18.0874 5.53254 8.75654 5.54311 8.57685 5.60094ZM8.90754 10.3449C8.7203 10.3958 8.51992 10.6168 8.47108 10.8263C8.39058 11.1717 8.52995 11.5271 8.79834 11.6608L8.9413 11.732H17.5018C26.7283 11.732 26.1796 11.7419 26.3611 11.573C26.4524 11.488 26.5431 11.2861 26.5655 11.118C26.6111 10.7751 26.3922 10.4221 26.0845 10.3424C25.8842 10.2905 9.09849 10.2929 8.90754 10.3449ZM8.90754 15.095C8.72023 15.1462 8.51988 15.3673 8.47108 15.5766C8.39055 15.9223 8.52992 16.2774 8.79873 16.4113L8.94204 16.4827L17.5438 16.4742L26.1456 16.4657L26.2798 16.3744C26.3536 16.3241 26.4436 16.2232 26.4798 16.1502C26.6715 15.7636 26.5458 15.3469 26.1763 15.1433L26.0441 15.0705L17.539 15.0655C11.7402 15.0621 8.99368 15.0715 8.90754 15.095ZM8.86474 19.8594C8.34862 20.0474 8.30463 20.9155 8.79873 21.1616L8.94204 21.233L17.512 21.2246L26.0819 21.2161L26.2106 21.1243C26.543 20.8872 26.6015 20.3667 26.3322 20.0429C26.1156 19.7825 26.9235 19.804 17.4606 19.8069C10.0249 19.8092 8.98507 19.8156 8.86474 19.8594ZM11.8724 23.6062C10.8407 23.7712 9.90536 24.4632 9.44554 25.4017C9.17666 25.9504 9.07548 26.3871 9.0768 26.9933C9.07877 27.8927 9.38508 28.6897 9.97853 29.3395C10.4891 29.8985 11.0601 30.239 11.7291 30.3833C12.8008 30.6144 13.9459 30.2502 14.7478 29.423C15.5401 28.6059 15.8931 27.503 15.7116 26.4124C15.4054 24.5726 13.6864 23.316 11.8724 23.6062ZM12.9921 25.1073C13.5923 25.2995 14.0718 25.7861 14.2808 26.4149C14.3664 26.6724 14.3827 27.1595 14.3152 27.4446C14.1448 28.1647 13.5667 28.7693 12.8702 28.956C12.6516 29.0146 12.1918 29.0213 11.9485 28.9695C11.2679 28.8245 10.6775 28.201 10.5168 27.4576C10.4446 27.1232 10.4667 26.6169 10.5665 26.3244C10.9119 25.3115 11.9708 24.7801 12.9921 25.1073ZM25.0112 28.84L21.9126 32.0291L21.9035 31.5224C21.8985 31.2437 21.8985 30.044 21.9035 28.8565L21.9126 26.6972L22.0139 26.4772C22.1864 26.1025 22.456 25.8491 22.8189 25.7207C23.0047 25.6549 23.0804 25.653 25.5599 25.6519L28.1097 25.6508L25.0112 28.84Z" fill="#D72326"/>
</g>
<defs>
<clipPath id="clip0_101_228">
<rect width="34" height="34" fill="white" transform="translate(0.482788 0.48291)"/>
</clipPath>
</defs>
</svg>
