<svg width="40" height="38" viewBox="0 0 40 38" fill="none" xmlns="http://www.w3.org/2000/svg">
<mask id="path-1-outside-1_101_207" maskUnits="userSpaceOnUse" x="0.0102692" y="-0.502686" width="40" height="39" fill="black">
<rect fill="white" x="0.0102692" y="-0.502686" width="40" height="39"/>
<path fill-rule="evenodd" clip-rule="evenodd" d="M10.7949 0.548392C10.6429 0.583115 10.3856 0.689262 10.2231 0.784357C10.0606 0.879453 7.94156 2.82416 5.51415 5.10604C1.23001 9.13303 1.09893 9.26565 1.04518 9.62591C1.01475 9.83004 1.00173 15.2116 1.01615 21.585C1.04633 34.8444 0.964074 33.6064 1.87177 34.4574C2.70046 35.2343 2.27556 35.1936 9.54942 35.1936H15.8697L23.2554 36.3483C27.3176 36.9833 30.8725 37.5029 31.1553 37.5029C31.8437 37.5029 32.3982 37.3128 32.8876 36.9089C33.6887 36.2478 33.4732 37.227 36.3314 21.2661C37.7582 13.2991 38.9479 6.46129 38.9754 6.07118C39.0445 5.08822 38.8749 4.6271 38.2177 4.01092C37.8721 3.68695 37.5939 3.50888 37.286 3.41445C37.0447 3.34038 35.5209 3.07415 33.9 2.82276C32.2791 2.57137 30.8515 2.3463 30.7275 2.32246C30.5727 2.29277 30.4693 2.19437 30.3977 2.00855C30.2202 1.54858 29.7103 1.07385 29.0818 0.78378L28.4936 0.512268L19.7825 0.498742C14.9914 0.491319 10.9469 0.513587 10.7949 0.548392ZM28.507 2.11693C28.6616 2.20534 28.8595 2.37986 28.9468 2.50473C29.0983 2.72156 29.1055 3.41849 29.1055 17.8845V33.0371L28.9234 33.27C28.8232 33.3981 28.6054 33.5677 28.4395 33.647C28.1566 33.7822 27.3757 33.7912 15.8658 33.7912C4.35767 33.7912 3.57464 33.7822 3.28758 33.647C3.11921 33.5677 2.89154 33.3767 2.78175 33.2226L2.58205 32.9423V21.6576V10.3727L6.84631 10.3499L11.1106 10.327L11.3109 10.1392L11.5112 9.95136L11.5356 5.95348L11.56 1.9556L19.893 1.95593C27.9973 1.95618 28.2336 1.96064 28.507 2.11693ZM9.97168 5.95571V8.88362H6.82713H3.68267L6.8047 5.95571C8.52182 4.34536 9.93685 3.0278 9.94925 3.0278C9.96157 3.0278 9.97168 4.34536 9.97168 5.95571ZM33.9591 4.30329C35.7214 4.57992 36.8721 4.7984 37.0086 4.88228C37.1291 4.95626 37.2985 5.15387 37.3848 5.32138L37.542 5.6258L34.9171 20.3891C33.4733 28.5089 32.2433 35.2637 32.1837 35.3998C32.0547 35.6941 31.7388 35.976 31.4438 36.0602C31.3119 36.0978 30.1406 35.9522 28.3671 35.6779L25.5035 35.2348L27.1286 35.1936C28.7282 35.153 28.7611 35.1486 29.2251 34.9076C29.8123 34.6026 30.239 34.1429 30.4684 33.5681C30.6429 33.131 30.6451 32.9431 30.6451 18.4498V3.77421L30.887 3.8166C31.02 3.83994 32.4026 4.05892 33.9591 4.30329ZM15.1367 8.05985C14.641 8.42538 14.7936 9.13022 15.4045 9.29724C15.6297 9.35877 17.2272 9.37939 20.4553 9.36223L25.1767 9.33724L25.3962 9.14383C25.517 9.03752 25.6397 8.86086 25.6691 8.75141C25.7323 8.51545 25.5249 8.09985 25.2836 7.97885C25.1734 7.92351 23.4143 7.8939 20.2381 7.8939C15.485 7.8939 15.356 7.89811 15.1367 8.05985ZM7.23778 13.166C6.91545 13.4682 6.89936 13.8169 7.19292 14.1369L7.40519 14.3683L16.188 14.3902C22.8162 14.4068 25.0329 14.3881 25.2236 14.3142C25.573 14.1787 25.7692 13.7335 25.6242 13.4052C25.4018 12.902 25.8502 12.925 16.2593 12.925H7.49492L7.23778 13.166ZM7.45191 18.0378C6.94545 18.2294 6.83602 18.8228 7.23778 19.1995L7.49492 19.4406H16.2593C25.7952 19.4406 25.3844 19.4607 25.6167 18.9828C25.6988 18.8138 25.7012 18.6925 25.6265 18.4803C25.4317 17.9267 25.9458 17.9554 16.332 17.9612C11.5517 17.9641 7.55563 17.9986 7.45191 18.0378ZM7.44944 23.1067C6.92056 23.3236 6.823 23.8417 7.23778 24.2306L7.49492 24.4717H16.2492C21.6104 24.4717 25.0892 24.4411 25.2248 24.3927C25.5034 24.2934 25.7399 23.8788 25.6691 23.6141C25.6397 23.5047 25.517 23.328 25.3962 23.2217L25.1766 23.0283L16.4526 23.0103C9.17475 22.9952 7.68213 23.0112 7.44944 23.1067ZM7.19661 28.3031C6.8939 28.5868 6.90965 28.954 7.23778 29.2616L7.49492 29.5027H16.3379H25.181L25.4234 29.3072C25.742 29.0503 25.7569 28.6083 25.457 28.309L25.2481 28.1006H16.3303H7.41249L7.19661 28.3031Z"/>
</mask>
<path fill-rule="evenodd" clip-rule="evenodd" d="M10.7949 0.548392C10.6429 0.583115 10.3856 0.689262 10.2231 0.784357C10.0606 0.879453 7.94156 2.82416 5.51415 5.10604C1.23001 9.13303 1.09893 9.26565 1.04518 9.62591C1.01475 9.83004 1.00173 15.2116 1.01615 21.585C1.04633 34.8444 0.964074 33.6064 1.87177 34.4574C2.70046 35.2343 2.27556 35.1936 9.54942 35.1936H15.8697L23.2554 36.3483C27.3176 36.9833 30.8725 37.5029 31.1553 37.5029C31.8437 37.5029 32.3982 37.3128 32.8876 36.9089C33.6887 36.2478 33.4732 37.227 36.3314 21.2661C37.7582 13.2991 38.9479 6.46129 38.9754 6.07118C39.0445 5.08822 38.8749 4.6271 38.2177 4.01092C37.8721 3.68695 37.5939 3.50888 37.286 3.41445C37.0447 3.34038 35.5209 3.07415 33.9 2.82276C32.2791 2.57137 30.8515 2.3463 30.7275 2.32246C30.5727 2.29277 30.4693 2.19437 30.3977 2.00855C30.2202 1.54858 29.7103 1.07385 29.0818 0.78378L28.4936 0.512268L19.7825 0.498742C14.9914 0.491319 10.9469 0.513587 10.7949 0.548392ZM28.507 2.11693C28.6616 2.20534 28.8595 2.37986 28.9468 2.50473C29.0983 2.72156 29.1055 3.41849 29.1055 17.8845V33.0371L28.9234 33.27C28.8232 33.3981 28.6054 33.5677 28.4395 33.647C28.1566 33.7822 27.3757 33.7912 15.8658 33.7912C4.35767 33.7912 3.57464 33.7822 3.28758 33.647C3.11921 33.5677 2.89154 33.3767 2.78175 33.2226L2.58205 32.9423V21.6576V10.3727L6.84631 10.3499L11.1106 10.327L11.3109 10.1392L11.5112 9.95136L11.5356 5.95348L11.56 1.9556L19.893 1.95593C27.9973 1.95618 28.2336 1.96064 28.507 2.11693ZM9.97168 5.95571V8.88362H6.82713H3.68267L6.8047 5.95571C8.52182 4.34536 9.93685 3.0278 9.94925 3.0278C9.96157 3.0278 9.97168 4.34536 9.97168 5.95571ZM33.9591 4.30329C35.7214 4.57992 36.8721 4.7984 37.0086 4.88228C37.1291 4.95626 37.2985 5.15387 37.3848 5.32138L37.542 5.6258L34.9171 20.3891C33.4733 28.5089 32.2433 35.2637 32.1837 35.3998C32.0547 35.6941 31.7388 35.976 31.4438 36.0602C31.3119 36.0978 30.1406 35.9522 28.3671 35.6779L25.5035 35.2348L27.1286 35.1936C28.7282 35.153 28.7611 35.1486 29.2251 34.9076C29.8123 34.6026 30.239 34.1429 30.4684 33.5681C30.6429 33.131 30.6451 32.9431 30.6451 18.4498V3.77421L30.887 3.8166C31.02 3.83994 32.4026 4.05892 33.9591 4.30329ZM15.1367 8.05985C14.641 8.42538 14.7936 9.13022 15.4045 9.29724C15.6297 9.35877 17.2272 9.37939 20.4553 9.36223L25.1767 9.33724L25.3962 9.14383C25.517 9.03752 25.6397 8.86086 25.6691 8.75141C25.7323 8.51545 25.5249 8.09985 25.2836 7.97885C25.1734 7.92351 23.4143 7.8939 20.2381 7.8939C15.485 7.8939 15.356 7.89811 15.1367 8.05985ZM7.23778 13.166C6.91545 13.4682 6.89936 13.8169 7.19292 14.1369L7.40519 14.3683L16.188 14.3902C22.8162 14.4068 25.0329 14.3881 25.2236 14.3142C25.573 14.1787 25.7692 13.7335 25.6242 13.4052C25.4018 12.902 25.8502 12.925 16.2593 12.925H7.49492L7.23778 13.166ZM7.45191 18.0378C6.94545 18.2294 6.83602 18.8228 7.23778 19.1995L7.49492 19.4406H16.2593C25.7952 19.4406 25.3844 19.4607 25.6167 18.9828C25.6988 18.8138 25.7012 18.6925 25.6265 18.4803C25.4317 17.9267 25.9458 17.9554 16.332 17.9612C11.5517 17.9641 7.55563 17.9986 7.45191 18.0378ZM7.44944 23.1067C6.92056 23.3236 6.823 23.8417 7.23778 24.2306L7.49492 24.4717H16.2492C21.6104 24.4717 25.0892 24.4411 25.2248 24.3927C25.5034 24.2934 25.7399 23.8788 25.6691 23.6141C25.6397 23.5047 25.517 23.328 25.3962 23.2217L25.1766 23.0283L16.4526 23.0103C9.17475 22.9952 7.68213 23.0112 7.44944 23.1067ZM7.19661 28.3031C6.8939 28.5868 6.90965 28.954 7.23778 29.2616L7.49492 29.5027H16.3379H25.181L25.4234 29.3072C25.742 29.0503 25.7569 28.6083 25.457 28.309L25.2481 28.1006H16.3303H7.41249L7.19661 28.3031Z" fill="#D72326"/>
<path fill-rule="evenodd" clip-rule="evenodd" d="M10.7949 0.548392C10.6429 0.583115 10.3856 0.689262 10.2231 0.784357C10.0606 0.879453 7.94156 2.82416 5.51415 5.10604C1.23001 9.13303 1.09893 9.26565 1.04518 9.62591C1.01475 9.83004 1.00173 15.2116 1.01615 21.585C1.04633 34.8444 0.964074 33.6064 1.87177 34.4574C2.70046 35.2343 2.27556 35.1936 9.54942 35.1936H15.8697L23.2554 36.3483C27.3176 36.9833 30.8725 37.5029 31.1553 37.5029C31.8437 37.5029 32.3982 37.3128 32.8876 36.9089C33.6887 36.2478 33.4732 37.227 36.3314 21.2661C37.7582 13.2991 38.9479 6.46129 38.9754 6.07118C39.0445 5.08822 38.8749 4.6271 38.2177 4.01092C37.8721 3.68695 37.5939 3.50888 37.286 3.41445C37.0447 3.34038 35.5209 3.07415 33.9 2.82276C32.2791 2.57137 30.8515 2.3463 30.7275 2.32246C30.5727 2.29277 30.4693 2.19437 30.3977 2.00855C30.2202 1.54858 29.7103 1.07385 29.0818 0.78378L28.4936 0.512268L19.7825 0.498742C14.9914 0.491319 10.9469 0.513587 10.7949 0.548392ZM28.507 2.11693C28.6616 2.20534 28.8595 2.37986 28.9468 2.50473C29.0983 2.72156 29.1055 3.41849 29.1055 17.8845V33.0371L28.9234 33.27C28.8232 33.3981 28.6054 33.5677 28.4395 33.647C28.1566 33.7822 27.3757 33.7912 15.8658 33.7912C4.35767 33.7912 3.57464 33.7822 3.28758 33.647C3.11921 33.5677 2.89154 33.3767 2.78175 33.2226L2.58205 32.9423V21.6576V10.3727L6.84631 10.3499L11.1106 10.327L11.3109 10.1392L11.5112 9.95136L11.5356 5.95348L11.56 1.9556L19.893 1.95593C27.9973 1.95618 28.2336 1.96064 28.507 2.11693ZM9.97168 5.95571V8.88362H6.82713H3.68267L6.8047 5.95571C8.52182 4.34536 9.93685 3.0278 9.94925 3.0278C9.96157 3.0278 9.97168 4.34536 9.97168 5.95571ZM33.9591 4.30329C35.7214 4.57992 36.8721 4.7984 37.0086 4.88228C37.1291 4.95626 37.2985 5.15387 37.3848 5.32138L37.542 5.6258L34.9171 20.3891C33.4733 28.5089 32.2433 35.2637 32.1837 35.3998C32.0547 35.6941 31.7388 35.976 31.4438 36.0602C31.3119 36.0978 30.1406 35.9522 28.3671 35.6779L25.5035 35.2348L27.1286 35.1936C28.7282 35.153 28.7611 35.1486 29.2251 34.9076C29.8123 34.6026 30.239 34.1429 30.4684 33.5681C30.6429 33.131 30.6451 32.9431 30.6451 18.4498V3.77421L30.887 3.8166C31.02 3.83994 32.4026 4.05892 33.9591 4.30329ZM15.1367 8.05985C14.641 8.42538 14.7936 9.13022 15.4045 9.29724C15.6297 9.35877 17.2272 9.37939 20.4553 9.36223L25.1767 9.33724L25.3962 9.14383C25.517 9.03752 25.6397 8.86086 25.6691 8.75141C25.7323 8.51545 25.5249 8.09985 25.2836 7.97885C25.1734 7.92351 23.4143 7.8939 20.2381 7.8939C15.485 7.8939 15.356 7.89811 15.1367 8.05985ZM7.23778 13.166C6.91545 13.4682 6.89936 13.8169 7.19292 14.1369L7.40519 14.3683L16.188 14.3902C22.8162 14.4068 25.0329 14.3881 25.2236 14.3142C25.573 14.1787 25.7692 13.7335 25.6242 13.4052C25.4018 12.902 25.8502 12.925 16.2593 12.925H7.49492L7.23778 13.166ZM7.45191 18.0378C6.94545 18.2294 6.83602 18.8228 7.23778 19.1995L7.49492 19.4406H16.2593C25.7952 19.4406 25.3844 19.4607 25.6167 18.9828C25.6988 18.8138 25.7012 18.6925 25.6265 18.4803C25.4317 17.9267 25.9458 17.9554 16.332 17.9612C11.5517 17.9641 7.55563 17.9986 7.45191 18.0378ZM7.44944 23.1067C6.92056 23.3236 6.823 23.8417 7.23778 24.2306L7.49492 24.4717H16.2492C21.6104 24.4717 25.0892 24.4411 25.2248 24.3927C25.5034 24.2934 25.7399 23.8788 25.6691 23.6141C25.6397 23.5047 25.517 23.328 25.3962 23.2217L25.1766 23.0283L16.4526 23.0103C9.17475 22.9952 7.68213 23.0112 7.44944 23.1067ZM7.19661 28.3031C6.8939 28.5868 6.90965 28.954 7.23778 29.2616L7.49492 29.5027H16.3379H25.181L25.4234 29.3072C25.742 29.0503 25.7569 28.6083 25.457 28.309L25.2481 28.1006H16.3303H7.41249L7.19661 28.3031Z" stroke="#D72326" stroke-width="0.4" mask="url(#path-1-outside-1_101_207)"/>
</svg>
