<svg width="59" height="59" viewBox="0 0 59 59" fill="none" xmlns="http://www.w3.org/2000/svg">
<circle cx="29.2295" cy="29.4612" r="29.2295" fill="white"/>
<g clip-path="url(#clip0_0_82)">
<path d="M27.1139 10.6097C24.3382 11.0995 22.0893 12.2573 20.13 14.2093C18.1409 16.1909 16.9534 18.5511 16.4932 21.4456C16.3225 22.5292 16.3819 24.7335 16.6046 25.7874C17.1241 28.2515 18.2745 30.4186 20.0335 32.237L20.9241 33.1573L19.6475 40.0374C18.6678 45.3292 18.3858 46.9917 18.4229 47.2366C18.4897 47.6522 18.8311 48.1198 19.2022 48.3128C19.603 48.5132 20.2264 48.5132 20.6346 48.3054C20.8053 48.2163 22.787 46.9175 25.0507 45.4108C27.3069 43.9042 29.1846 42.6722 29.2292 42.6722C29.2737 42.6722 31.1514 43.9042 33.4077 45.4108C35.6714 46.9175 37.653 48.2163 37.8237 48.3054C38.2319 48.5132 38.8553 48.5132 39.2561 48.3128C39.6272 48.1198 39.9686 47.6522 40.0354 47.2366C40.0725 46.9917 39.7905 45.3292 38.8108 40.0374L37.5343 33.1573L38.4249 32.237C40.1839 30.4186 41.3343 28.2515 41.8538 25.7874C42.0764 24.7335 42.1358 22.5292 41.9651 21.4456C41.505 18.5511 40.3175 16.1909 38.3284 14.2093C36.3245 12.2128 33.9792 11.0327 31.144 10.58C30.1421 10.4167 28.1011 10.4315 27.1139 10.6097ZM30.8323 13.6155C34.1944 14.1573 37.2003 16.6065 38.3878 19.7682C38.8331 20.9557 39.0261 21.9948 39.0261 23.264C39.0261 26.5222 37.4007 29.5577 34.6397 31.4429C33.6971 32.0886 32.1534 32.7046 30.9065 32.9272C30.0233 33.0831 28.435 33.0831 27.5518 32.9272C23.4401 32.1925 20.271 28.9788 19.5511 24.8225C19.4175 24.0655 19.3952 22.6108 19.5065 21.8909C19.9444 19.078 21.503 16.6436 23.878 15.085C24.9468 14.38 26.3346 13.8233 27.5593 13.6155C28.3682 13.4819 30.0085 13.4819 30.8323 13.6155ZM24.3678 35.1686C25.8374 35.7921 27.4331 36.089 29.2292 36.089C31.0253 36.089 32.621 35.7921 34.0905 35.1686C34.3725 35.0499 34.6397 34.9534 34.6843 34.9534C34.7659 34.9534 36.3913 43.5479 36.3245 43.6147C36.3096 43.6296 34.8772 42.7018 33.1479 41.5515C30.8471 40.0151 29.9046 39.4214 29.6225 39.3397C28.9323 39.1542 28.7987 39.221 25.3104 41.5515C23.5811 42.7018 22.1487 43.6296 22.1339 43.6147C22.0671 43.5479 23.6925 34.9534 23.7741 34.9534C23.8186 34.9534 24.0858 35.0499 24.3678 35.1686Z" fill="#D72326"/>
<path d="M28.294 17.3637C25.9042 17.7941 24.019 19.5012 23.4327 21.7797C23.2175 22.6109 23.2175 23.9246 23.4327 24.7484C23.9893 26.8488 25.5331 28.4223 27.6483 29.0309C28.4796 29.2684 29.9788 29.2684 30.81 29.0309C32.9253 28.4223 34.469 26.8488 35.0257 24.7484C35.2409 23.9246 35.2409 22.6109 35.0257 21.7797C34.3651 19.2266 32.1089 17.423 29.4518 17.3266C29.0214 17.3117 28.5018 17.3266 28.294 17.3637ZM29.7561 20.4066C31.1292 20.6664 32.1386 21.8762 32.1311 23.2641C32.1237 23.8578 31.9975 24.3402 31.7155 24.7781C30.5354 26.6484 27.9229 26.6484 26.7429 24.7781C26.0378 23.6723 26.2307 22.1656 27.1882 21.2156C27.8858 20.518 28.8061 20.2285 29.7561 20.4066Z" fill="#D72326"/>
</g>
<defs>
<clipPath id="clip0_0_82">
<rect width="38" height="38" fill="white" transform="translate(10.2305 10.4612)"/>
</clipPath>
</defs>
</svg>
