<svg width="38" height="38" viewBox="0 0 38 38" fill="none" xmlns="http://www.w3.org/2000/svg">
<g clip-path="url(#clip0_65_118)">
<path d="M6.62773 0.192968C6.44961 0.296875 6.22695 0.519531 6.12305 0.697657C5.95234 0.994532 5.9375 1.08359 5.9375 1.98906V2.96875H3.47344H1.0168L0.697656 3.1543C0.504687 3.26562 0.296875 3.47344 0.185547 3.66641L0 3.98555V16.3281V28.6707L0.185547 28.9898C0.296875 29.1828 0.504687 29.3906 0.697656 29.502L1.0168 29.6875H7.42188H13.827L14.1461 29.502C14.6137 29.2273 14.8438 28.7969 14.8438 28.2031C14.8438 27.6094 14.6137 27.1789 14.1461 26.9043L13.827 26.7188H8.40156H2.96875V16.3281V5.9375H17.8125H32.6562V10.4574C32.6562 13.4781 32.6859 15.0516 32.7379 15.1926C32.8418 15.4746 33.1535 15.7937 33.4875 15.9645C34.2 16.3281 35.2687 15.9273 35.5434 15.1926C35.6027 15.0516 35.625 13.1887 35.625 9.48516V3.98555L35.4395 3.66641C35.3281 3.47344 35.1203 3.26562 34.9273 3.1543L34.6082 2.96875H32.1516H29.6875V1.98906C29.6875 1.08359 29.6727 0.994532 29.502 0.697657C29.2273 0.230078 28.7969 0 28.2031 0C27.6094 0 27.1789 0.230078 26.9043 0.697657C26.7336 0.994532 26.7188 1.08359 26.7188 1.98906V2.96875H23.0078H19.2969V1.98906C19.2969 1.08359 19.282 0.994532 19.1113 0.697657C18.8367 0.230078 18.4062 0 17.8125 0C17.2188 0 16.7883 0.230078 16.5137 0.697657C16.343 0.994532 16.3281 1.08359 16.3281 1.98906V2.96875H12.6172H8.90625V1.98906C8.90625 1.08359 8.89141 0.994532 8.7207 0.697657C8.44609 0.230078 8.01562 0 7.41445 0C7.03594 0 6.87266 0.0371094 6.62773 0.192968Z" fill="#13447E"/>
<path d="M6.62773 9.0992C6.16758 9.37381 5.9375 9.80428 5.9375 10.3906C5.9375 10.9844 6.16758 11.4148 6.63516 11.6894L6.9543 11.875H8.90625H10.8582L11.1773 11.6894C11.6449 11.4148 11.875 10.9844 11.875 10.3906C11.875 9.79686 11.6449 9.36639 11.1773 9.09178L10.8582 8.90623H8.89883H6.93945L6.62773 9.0992Z" fill="#13447E"/>
<path d="M15.534 9.0992C15.0738 9.37381 14.8438 9.80428 14.8438 10.3906C14.8438 10.9844 15.0738 11.4148 15.5414 11.6894L15.8605 11.875H17.8125H19.7645L20.0836 11.6894C20.5512 11.4148 20.7812 10.9844 20.7812 10.3906C20.7812 9.79686 20.5512 9.36639 20.0836 9.09178L19.7645 8.90623H17.8051H15.8457L15.534 9.0992Z" fill="#13447E"/>
<path d="M24.4402 9.0992C23.9801 9.37381 23.75 9.80428 23.75 10.3906C23.75 10.9844 23.9801 11.4148 24.4477 11.6894L24.7668 11.875H26.7188H28.6707L28.9898 11.6894C29.4574 11.4148 29.6875 10.9844 29.6875 10.3906C29.6875 9.79686 29.4574 9.36639 28.9898 9.09178L28.6707 8.90623H26.7113H24.752L24.4402 9.0992Z" fill="#13447E"/>
<path d="M6.62773 15.0367C6.16758 15.3113 5.9375 15.7418 5.9375 16.3281C5.9375 16.9219 6.16758 17.3523 6.63516 17.6269L6.9543 17.8125H8.90625H10.8582L11.1773 17.6269C11.6449 17.3523 11.875 16.9219 11.875 16.3281C11.875 15.7344 11.6449 15.3039 11.1773 15.0293L10.8582 14.8437H8.89883H6.93945L6.62773 15.0367Z" fill="#13447E"/>
<path d="M15.534 15.0367C15.0738 15.3113 14.8438 15.7418 14.8438 16.3281C14.8438 16.9219 15.0738 17.3523 15.5414 17.6269L15.8605 17.8125H17.8125H19.7645L20.0836 17.6269C20.5512 17.3523 20.7812 16.9219 20.7812 16.3281C20.7812 15.7344 20.5512 15.3039 20.0836 15.0293L19.7645 14.8437H17.8051H15.8457L15.534 15.0367Z" fill="#13447E"/>
<path d="M25.8281 17.3301C23.7723 17.7086 21.9168 18.6437 20.4324 20.0613C19.527 20.9297 18.8887 21.7906 18.332 22.8742C17.5453 24.4328 17.2188 25.8058 17.2188 27.6094C17.2188 29.4129 17.5453 30.7859 18.332 32.3445C19.8312 35.2836 22.5996 37.3172 25.8949 37.8887C26.7187 38.0371 28.5148 38.0297 29.3609 37.8887C30.3629 37.718 31.3871 37.3691 32.3445 36.8867C35.2836 35.3875 37.3172 32.6191 37.8887 29.3238C38.0297 28.5148 38.0297 26.7039 37.8887 25.8949C37.6363 24.4328 37.0648 22.993 36.2484 21.7609C35.7141 20.9668 34.6676 19.8683 33.8512 19.2523C32.6266 18.332 30.9047 17.5973 29.3609 17.3301C28.5445 17.189 26.6074 17.189 25.8281 17.3301ZM28.4629 20.2914C29.4797 20.373 30.7859 20.8555 31.773 21.5308C32.3816 21.939 33.2797 22.8371 33.6879 23.4457C34.1109 24.0617 34.534 24.9746 34.7492 25.7168C34.8977 26.2363 34.9199 26.4738 34.9199 27.6094C34.9199 29.1308 34.816 29.6133 34.2148 30.8379C33.1016 33.1312 30.7637 34.7492 28.2773 34.9422C26.3922 35.098 24.648 34.5933 23.1785 33.4801C21.8648 32.493 20.9445 31.1273 20.4695 29.5019C20.3211 28.9824 20.2988 28.7449 20.2988 27.6094C20.2988 26.4738 20.3211 26.2363 20.4695 25.7168C20.8406 24.4328 21.4863 23.3344 22.4066 22.4066C23.3418 21.4789 24.4699 20.8258 25.7094 20.4844C26.2734 20.3285 27.3793 20.1949 27.7578 20.232C27.8617 20.2469 28.1809 20.2691 28.4629 20.2914Z" fill="#13447E"/>
<path d="M26.8152 23.3492C26.6371 23.4531 26.4145 23.6758 26.3105 23.8539C26.125 24.173 26.125 24.173 26.125 26.125V28.077L26.3105 28.3961C26.4219 28.5891 26.6297 28.7969 26.8227 28.9082L27.1418 29.0938H29.0938H31.0457L31.3648 28.9082C31.8324 28.6336 32.0625 28.2031 32.0625 27.6094C32.0625 27.0156 31.8324 26.5852 31.3648 26.3105C31.068 26.1398 30.9789 26.125 30.0734 26.125H29.0938V25.1453C29.0938 24.2398 29.0789 24.1508 28.9082 23.8539C28.6336 23.3863 28.2031 23.1562 27.602 23.1562C27.2234 23.1562 27.0602 23.1934 26.8152 23.3492Z" fill="#D72326"/>
<path d="M6.62773 20.9742C6.16758 21.2488 5.9375 21.6793 5.9375 22.2656C5.9375 22.8594 6.16758 23.2898 6.63516 23.5644L6.9543 23.75H8.90625H10.8582L11.1773 23.5644C11.6449 23.2898 11.875 22.8594 11.875 22.2656C11.875 21.6719 11.6449 21.2414 11.1773 20.9668L10.8582 20.7812H8.89883H6.93945L6.62773 20.9742Z" fill="#13447E"/>
</g>
<defs>
<clipPath id="clip0_65_118">
<rect width="38" height="38" fill="white"/>
</clipPath>
</defs>
</svg>
