<svg width="38" height="38" viewBox="0 0 38 38" fill="none" xmlns="http://www.w3.org/2000/svg">
<g clip-path="url(#clip0_65_112)">
<path d="M14.6846 1.4547C12.8333 2.24884 9.57907 3.63673 7.45299 4.5422C3.32377 6.30118 3.12128 6.41251 2.96219 6.96915C2.91157 7.1547 2.8971 8.8172 2.91157 12.3203C2.94772 17.9461 2.95496 18.0797 3.49009 20.4844C5.16058 28.0547 10.3962 34.5414 17.353 37.666C18.3799 38.1262 18.6764 38.1262 19.6888 37.6586C25.2137 35.15 29.6756 30.5856 32.0837 24.982C32.966 22.9262 33.5734 20.7738 33.935 18.4063C34.0941 17.3598 34.1013 17.1742 34.1013 12.1274V6.92462L33.8988 6.65743C33.7831 6.50157 33.6168 6.33087 33.5228 6.26407C33.4216 6.19728 30.1023 4.76485 26.1394 3.07267C19.2405 0.133606 18.9078 1.14441e-05 18.4884 0.00743484C18.0834 0.0148544 17.7507 0.141026 14.6846 1.4547ZM24.9462 5.87814L31.2666 8.57228L31.2232 12.5059C31.1798 16.6844 31.1292 17.4043 30.7748 19.1781C29.7913 24.1434 27.1012 28.7078 23.2757 31.877C21.9812 32.9457 18.9729 34.8086 18.5318 34.8086C18.2353 34.8086 16.4418 33.8141 15.1835 32.9457C11.0182 30.0809 7.8218 25.457 6.55628 20.4844C5.94159 18.05 5.86205 17.2336 5.81143 12.5059L5.76804 8.57228L12.0523 5.88556C15.509 4.4086 18.4016 3.19884 18.4811 3.19884C18.5607 3.19142 21.4678 4.40118 24.9462 5.87814Z" fill="#13447E"/>
<path d="M23.8318 13.0551C23.7161 13.0848 23.5353 13.1516 23.4341 13.2035C23.3329 13.2555 21.8287 14.7547 20.0931 16.5359L16.9257 19.7793L15.3564 18.1688C14.344 17.1371 13.6859 16.5137 13.5124 16.4469C12.8326 16.15 12.001 16.3949 11.6394 16.9813C11.4658 17.2707 11.4297 17.3969 11.4297 17.8125C11.4297 18.2281 11.4586 18.3543 11.6394 18.6363C11.907 19.0594 15.9494 23.1785 16.2531 23.3344C16.5496 23.4828 17.2077 23.4902 17.5621 23.3418C17.9309 23.1859 25.2564 15.675 25.4589 15.2445C25.6831 14.7695 25.6542 14.1461 25.3938 13.7082C25.0684 13.1961 24.3959 12.9141 23.8318 13.0551Z" fill="#D72326"/>
</g>
<defs>
<clipPath id="clip0_65_112">
<rect width="37.0256" height="38" fill="white" transform="translate(0.00585938)"/>
</clipPath>
</defs>
</svg>
