<svg width="60" height="60" viewBox="0 0 60 60" fill="none" xmlns="http://www.w3.org/2000/svg">
<circle cx="29.999" cy="30" r="29.2295" fill="white"/>
<g clip-path="url(#clip0_0_120)">
<path d="M17.6277 11.193C17.4496 11.2969 17.227 11.5195 17.123 11.6977C16.9523 11.9945 16.9375 12.0836 16.9375 12.9891V13.9688H14.4734H12.0168L11.6977 14.1543C11.5047 14.2656 11.2969 14.4734 11.1855 14.6664L11 14.9855V27.3281V39.6707L11.1855 39.9898C11.2969 40.1828 11.5047 40.3906 11.6977 40.502L12.0168 40.6875H18.4219H24.827L25.1461 40.502C25.6137 40.2273 25.8438 39.7969 25.8438 39.2031C25.8438 38.6094 25.6137 38.1789 25.1461 37.9043L24.827 37.7188H19.4016H13.9688V27.3281V16.9375H28.8125H43.6562V21.4574C43.6562 24.4781 43.6859 26.0516 43.7379 26.1926C43.8418 26.4746 44.1535 26.7937 44.4875 26.9645C45.2 27.3281 46.2687 26.9273 46.5434 26.1926C46.6027 26.0516 46.625 24.1887 46.625 20.4852V14.9855L46.4395 14.6664C46.3281 14.4734 46.1203 14.2656 45.9273 14.1543L45.6082 13.9688H43.1516H40.6875V12.9891C40.6875 12.0836 40.6727 11.9945 40.502 11.6977C40.2273 11.2301 39.7969 11 39.2031 11C38.6094 11 38.1789 11.2301 37.9043 11.6977C37.7336 11.9945 37.7188 12.0836 37.7188 12.9891V13.9688H34.0078H30.2969V12.9891C30.2969 12.0836 30.282 11.9945 30.1113 11.6977C29.8367 11.2301 29.4062 11 28.8125 11C28.2188 11 27.7883 11.2301 27.5137 11.6977C27.343 11.9945 27.3281 12.0836 27.3281 12.9891V13.9688H23.6172H19.9062V12.9891C19.9062 12.0836 19.8914 11.9945 19.7207 11.6977C19.4461 11.2301 19.0156 11 18.4145 11C18.0359 11 17.8727 11.0371 17.6277 11.193Z" fill="#D72326"/>
<path d="M17.6277 20.0992C17.1676 20.3738 16.9375 20.8043 16.9375 21.3906C16.9375 21.9844 17.1676 22.4148 17.6352 22.6895L17.9543 22.875H19.9062H21.8582L22.1773 22.6895C22.6449 22.4148 22.875 21.9844 22.875 21.3906C22.875 20.7969 22.6449 20.3664 22.1773 20.0918L21.8582 19.9062H19.8988H17.9395L17.6277 20.0992Z" fill="#D72326"/>
<path d="M26.534 20.0992C26.0738 20.3738 25.8438 20.8043 25.8438 21.3906C25.8438 21.9844 26.0738 22.4148 26.5414 22.6895L26.8605 22.875H28.8125H30.7645L31.0836 22.6895C31.5512 22.4148 31.7812 21.9844 31.7812 21.3906C31.7812 20.7969 31.5512 20.3664 31.0836 20.0918L30.7645 19.9062H28.8051H26.8457L26.534 20.0992Z" fill="#D72326"/>
<path d="M35.4402 20.0992C34.9801 20.3738 34.75 20.8043 34.75 21.3906C34.75 21.9844 34.9801 22.4148 35.4477 22.6895L35.7668 22.875H37.7188H39.6707L39.9898 22.6895C40.4574 22.4148 40.6875 21.9844 40.6875 21.3906C40.6875 20.7969 40.4574 20.3664 39.9898 20.0918L39.6707 19.9062H37.7113H35.752L35.4402 20.0992Z" fill="#D72326"/>
<path d="M17.6277 26.0367C17.1676 26.3113 16.9375 26.7418 16.9375 27.3281C16.9375 27.9219 17.1676 28.3523 17.6352 28.627L17.9543 28.8125H19.9062H21.8582L22.1773 28.627C22.6449 28.3523 22.875 27.9219 22.875 27.3281C22.875 26.7344 22.6449 26.3039 22.1773 26.0293L21.8582 25.8438H19.8988H17.9395L17.6277 26.0367Z" fill="#D72326"/>
<path d="M26.534 26.0367C26.0738 26.3113 25.8438 26.7418 25.8438 27.3281C25.8438 27.9219 26.0738 28.3523 26.5414 28.627L26.8605 28.8125H28.8125H30.7645L31.0836 28.627C31.5512 28.3523 31.7812 27.9219 31.7812 27.3281C31.7812 26.7344 31.5512 26.3039 31.0836 26.0293L30.7645 25.8438H28.8051H26.8457L26.534 26.0367Z" fill="#D72326"/>
<path d="M36.8281 28.3302C34.7723 28.7087 32.9168 29.6438 31.4324 31.0614C30.527 31.9298 29.8887 32.7907 29.332 33.8743C28.5453 35.4329 28.2188 36.8059 28.2188 38.6095C28.2188 40.413 28.5453 41.786 29.332 43.3446C30.8312 46.2837 33.5996 48.3173 36.8949 48.8888C37.7187 49.0372 39.5148 49.0298 40.3609 48.8888C41.3629 48.718 42.3871 48.3692 43.3445 47.8868C46.2836 46.3876 48.3172 43.6192 48.8887 40.3239C49.0297 39.5149 49.0297 37.704 48.8887 36.895C48.6363 35.4329 48.0648 33.993 47.2484 32.761C46.7141 31.9669 45.6676 30.8684 44.8512 30.2524C43.6266 29.3321 41.9047 28.5973 40.3609 28.3302C39.5445 28.1891 37.6074 28.1891 36.8281 28.3302ZM39.4629 31.2915C40.4797 31.3731 41.7859 31.8555 42.773 32.5309C43.3816 32.9391 44.2797 33.8372 44.6879 34.4458C45.1109 35.0618 45.534 35.9747 45.7492 36.7169C45.8977 37.2364 45.9199 37.4739 45.9199 38.6095C45.9199 40.1309 45.816 40.6134 45.2148 41.838C44.1016 44.1313 41.7637 45.7493 39.2773 45.9423C37.3922 46.0981 35.648 45.5934 34.1785 44.4802C32.8648 43.493 31.9445 42.1274 31.4695 40.502C31.3211 39.9825 31.2988 39.745 31.2988 38.6095C31.2988 37.4739 31.3211 37.2364 31.4695 36.7169C31.8406 35.4329 32.4863 34.3345 33.4066 33.4067C34.3418 32.479 35.4699 31.8259 36.7094 31.4845C37.2734 31.3286 38.3793 31.195 38.7578 31.2321C38.8617 31.247 39.1809 31.2692 39.4629 31.2915Z" fill="#D72326"/>
<path d="M37.8152 34.3492C37.6371 34.4531 37.4145 34.6758 37.3105 34.8539C37.125 35.173 37.125 35.173 37.125 37.125V39.077L37.3105 39.3961C37.4219 39.5891 37.6297 39.7969 37.8227 39.9082L38.1418 40.0938H40.0938H42.0457L42.3648 39.9082C42.8324 39.6336 43.0625 39.2031 43.0625 38.6094C43.0625 38.0156 42.8324 37.5852 42.3648 37.3105C42.068 37.1398 41.9789 37.125 41.0734 37.125H40.0938V36.1453C40.0938 35.2398 40.0789 35.1508 39.9082 34.8539C39.6336 34.3863 39.2031 34.1562 38.602 34.1562C38.2234 34.1562 38.0602 34.1934 37.8152 34.3492Z" fill="#D72326"/>
<path d="M17.6277 31.9742C17.1676 32.2488 16.9375 32.6793 16.9375 33.2656C16.9375 33.8594 17.1676 34.2898 17.6352 34.5645L17.9543 34.75H19.9062H21.8582L22.1773 34.5645C22.6449 34.2898 22.875 33.8594 22.875 33.2656C22.875 32.6719 22.6449 32.2414 22.1773 31.9668L21.8582 31.7812H19.8988H17.9395L17.6277 31.9742Z" fill="#D72326"/>
</g>
<defs>
<clipPath id="clip0_0_120">
<rect width="38" height="38" fill="white" transform="translate(11 11)"/>
</clipPath>
</defs>
</svg>
