<svg width="59" height="60" viewBox="0 0 59 60" fill="none" xmlns="http://www.w3.org/2000/svg">
<circle cx="29.5186" cy="30" r="29.2295" fill="white"/>
<g clip-path="url(#clip0_0_114)">
<path d="M25.6844 12.4547C23.8332 13.2489 20.579 14.6368 18.4529 15.5422C14.3236 17.3012 14.1212 17.4125 13.9621 17.9692C13.9114 18.1547 13.897 19.8172 13.9114 23.3204C13.9476 28.9461 13.9548 29.0797 14.49 31.4844C16.1605 39.0547 21.3961 45.5414 28.3529 48.6661C29.3798 49.1262 29.6763 49.1262 30.6887 48.6586C36.2136 46.15 40.6755 41.5856 43.0836 35.9821C43.9659 33.9262 44.5733 31.7739 44.9349 29.4063C45.094 28.3598 45.1012 28.1743 45.1012 23.1274V17.9247L44.8987 17.6575C44.783 17.5016 44.6167 17.3309 44.5227 17.2641C44.4214 17.1973 41.1021 15.7649 37.1392 14.0727C30.2403 11.1336 29.9077 11 29.4882 11.0075C29.0833 11.0149 28.7506 11.1411 25.6844 12.4547ZM35.946 16.8782L42.2664 19.5723L42.223 23.5059C42.1797 27.6844 42.129 28.4043 41.7747 30.1782C40.7912 35.1434 38.101 39.7079 34.2755 42.877C32.9811 43.9457 29.9728 45.8086 29.5316 45.8086C29.2351 45.8086 27.4417 44.8141 26.1834 43.9457C22.018 41.0809 18.8217 36.4571 17.5562 31.4844C16.9415 29.05 16.8619 28.2336 16.8113 23.5059L16.7679 19.5723L23.0521 16.8856C26.5088 15.4086 29.4015 14.1989 29.481 14.1989C29.5606 14.1914 32.4677 15.4012 35.946 16.8782Z" fill="#D72326"/>
<path d="M34.8317 24.0551C34.716 24.0847 34.5352 24.1515 34.434 24.2035C34.3327 24.2554 32.8286 25.7547 31.093 27.5359L27.9256 30.7793L26.3563 29.1687C25.3439 28.1371 24.6858 27.5137 24.5123 27.4469C23.8325 27.15 23.0009 27.3949 22.6393 27.9812C22.4657 28.2707 22.4296 28.3969 22.4296 28.8125C22.4296 29.2281 22.4585 29.3543 22.6393 29.6363C22.9068 30.0594 26.9493 34.1785 27.253 34.3344C27.5495 34.4828 28.2076 34.4902 28.5619 34.3418C28.9307 34.1859 36.2563 26.675 36.4588 26.2445C36.683 25.7695 36.6541 25.1461 36.3937 24.7082C36.0683 24.1961 35.3958 23.914 34.8317 24.0551Z" fill="#D72326"/>
</g>
<defs>
<clipPath id="clip0_0_114">
<rect width="37.0256" height="38" fill="white" transform="translate(11.0057 11)"/>
</clipPath>
</defs>
</svg>
