<svg width="39" height="39" viewBox="0 0 39 39" fill="none" xmlns="http://www.w3.org/2000/svg">
<g clip-path="url(#clip0_65_106)">
<path d="M17.1139 0.609596C14.3382 1.09944 12.0893 2.25725 10.13 4.20921C8.14089 6.19085 6.9534 8.551 6.49324 11.4455C6.32254 12.5291 6.38191 14.7334 6.60457 15.7873C7.1241 18.2514 8.27449 20.4186 10.0335 22.2369L10.9241 23.1573L9.64754 30.0373C8.66785 35.3291 8.38582 36.9916 8.42293 37.2365C8.48972 37.6522 8.83113 38.1198 9.20222 38.3127C9.603 38.5131 10.2264 38.5131 10.6346 38.3053C10.8053 38.2162 12.787 36.9174 15.0507 35.4108C17.3069 33.9041 19.1846 32.6721 19.2292 32.6721C19.2737 32.6721 21.1514 33.9041 23.4077 35.4108C25.6714 36.9174 27.653 38.2162 27.8237 38.3053C28.2319 38.5131 28.8553 38.5131 29.2561 38.3127C29.6272 38.1198 29.9686 37.6522 30.0354 37.2365C30.0725 36.9916 29.7905 35.3291 28.8108 30.0373L27.5343 23.1573L28.4249 22.2369C30.1839 20.4186 31.3343 18.2514 31.8538 15.7873C32.0764 14.7334 32.1358 12.5291 31.9651 11.4455C31.505 8.551 30.3175 6.19085 28.3284 4.20921C26.3245 2.21272 23.9792 1.03264 21.144 0.57991C20.1421 0.416626 18.1011 0.431473 17.1139 0.609596ZM20.8323 3.61546C24.1944 4.15725 27.2003 6.60647 28.3878 9.76819C28.8331 10.9557 29.0261 11.9948 29.0261 13.2639C29.0261 16.5221 27.4007 19.5576 24.6397 21.4428C23.6971 22.0885 22.1534 22.7045 20.9065 22.9272C20.0233 23.083 18.435 23.083 17.5518 22.9272C13.4401 22.1924 10.271 18.9787 9.55105 14.8225C9.41746 14.0655 9.39519 12.6108 9.50652 11.8908C9.94441 9.07795 11.503 6.64358 13.878 5.08499C14.9468 4.37991 16.3346 3.82327 17.5593 3.61546C18.3682 3.48186 20.0085 3.48186 20.8323 3.61546ZM14.3678 25.1686C15.8374 25.792 17.4331 26.0889 19.2292 26.0889C21.0253 26.0889 22.621 25.792 24.0905 25.1686C24.3725 25.0498 24.6397 24.9533 24.6843 24.9533C24.7659 24.9533 26.3913 33.5479 26.3245 33.6147C26.3096 33.6295 24.8772 32.7018 23.1479 31.5514C20.8471 30.0151 19.9046 29.4213 19.6225 29.3397C18.9323 29.1541 18.7987 29.2209 15.3104 31.5514C13.5811 32.7018 12.1487 33.6295 12.1339 33.6147C12.0671 33.5479 13.6925 24.9533 13.7741 24.9533C13.8186 24.9533 14.0858 25.0498 14.3678 25.1686Z" fill="#13447E"/>
<path d="M18.294 7.36349C15.9042 7.79396 14.019 9.50099 13.4327 11.7795C13.2174 12.6108 13.2174 13.9244 13.4327 14.7483C13.9893 16.8486 15.5331 18.4221 17.6483 19.0307C18.4795 19.2682 19.9788 19.2682 20.81 19.0307C22.9252 18.4221 24.469 16.8486 25.0256 14.7483C25.2409 13.9244 25.2409 12.6108 25.0256 11.7795C24.3651 9.22638 22.1088 7.42286 19.4518 7.32638C19.0213 7.31154 18.5018 7.32638 18.294 7.36349ZM19.7561 10.4065C21.1292 10.6662 22.1385 11.876 22.1311 13.2639C22.1237 13.8576 21.9975 14.3401 21.7155 14.7779C20.5354 16.6483 17.9229 16.6483 16.7428 14.7779C16.0377 13.6721 16.2307 12.1654 17.1881 11.2154C17.8858 10.5178 18.8061 10.2283 19.7561 10.4065Z" fill="#D72326"/>
</g>
<defs>
<clipPath id="clip0_65_106">
<rect width="38" height="38" fill="white" transform="translate(0.230469 0.461151)"/>
</clipPath>
</defs>
</svg>
