<svg width="317" height="54" viewBox="0 0 317 54" fill="none" xmlns="http://www.w3.org/2000/svg">
<g clip-path="url(#clip0_0_52)">
<path fill-rule="evenodd" clip-rule="evenodd" d="M63.586 0.984274L27.4004 27.6209H40.6182L62.9681 11.2585L64.0532 10.5007L102.824 38.6941L116.177 38.6271L64.3491 0.422363L63.586 0.984274Z" fill="#13447E"/>
<path fill-rule="evenodd" clip-rule="evenodd" d="M32.3867 13.3462L32.6411 20.7335L43.1334 12.9699L43.0503 5.52588L32.3867 13.3462Z" fill="#D72326"/>
<path fill-rule="evenodd" clip-rule="evenodd" d="M70.5807 24.1155C69.127 24.4815 68.5352 25.1259 68.5352 26.3322C68.5352 27.9612 70.6118 28.5953 71.9668 28.353C73.0415 28.1571 74.1836 27.4302 74.1836 26.2342C74.1784 24.7856 72.2887 23.6824 70.5807 24.1155Z" fill="#D72326"/>
<path fill-rule="evenodd" clip-rule="evenodd" d="M66.271 24.9711L50.1614 36.9001C49.7928 37.194 49.4294 37.4311 49.3307 37.4311C49.149 37.4311 40.7542 31.2449 39.6328 30.2809L0 30.3531C2.49717 32.1729 5.23315 34.0751 7.59533 36.0289H34.0103L46.8284 45.2824C47.8563 45.834 49.1906 46.0247 50.3379 45.8185C51.4022 45.6278 52.4665 45.0968 53.5879 44.2153L71.9973 30.6005C72.5632 30.1417 73.2174 29.7809 73.8196 29.2808C72.1842 29.8582 70.5073 29.9922 68.8927 29.2241C66.7538 28.0848 66.598 26.528 66.8317 25.3011C66.8317 25.0433 67.2418 24.2494 67.2262 24.2649C67.2055 24.27 66.7797 24.5896 66.271 24.9711Z" fill="#D72326"/>
<path fill-rule="evenodd" clip-rule="evenodd" d="M78.1858 31.6831C77.0021 31.9202 75.6886 32.6626 74.2194 33.8843L56.2616 47.133C55.8359 47.4681 55.2752 47.8754 54.9896 48.0455C54.3822 48.4218 54.4549 48.4527 55.2025 48.1434C55.597 47.9733 56.1889 47.9063 57.2376 47.8908C59.3713 47.8908 62.0398 48.8136 62.0398 51.2984C62.0398 51.917 61.7595 52.7006 61.4324 53.0202L61.1209 53.3295L62.3929 52.4738L77.6251 41.2459C79.1358 40.0705 79.1099 40.0808 79.7588 40.4881C82.8738 42.4522 86.0355 44.9833 88.9635 47.2464H108.406H127.859L127.449 46.9217L121.686 42.6893C120.259 41.5242 121.743 41.6377 107.425 41.6377H94.6328L84.1873 33.8585C82.8738 32.8636 81.8874 32.245 81.1502 31.9821C80.278 31.6418 78.9801 31.5181 78.1858 31.6831Z" fill="#13447E"/>
<path fill-rule="evenodd" clip-rule="evenodd" d="M12.0459 38.9467L0.832031 47.2464H14.2056L25.6116 38.8333L12.0459 38.9467Z" fill="#13447E"/>
<path fill-rule="evenodd" clip-rule="evenodd" d="M55.892 49.4322C54.7342 49.8498 53.7842 51.3602 54.8173 52.3912C56.1152 53.7522 58.3061 53.7677 59.7441 52.4325C60.4035 51.7778 60.3568 50.8086 59.7441 50.1333C58.8564 49.1538 57.0757 49.0146 55.892 49.4322Z" fill="#13447E"/>
<path fill-rule="evenodd" clip-rule="evenodd" d="M188.757 34.9514C194.826 34.9514 201.186 34.9514 207.255 34.9514C206.85 35.8793 205.573 38.4621 200.303 38.1321H193.668V44.6637C198.227 44.6637 202.686 44.6637 207.193 44.6482V47.8393H188.752C187.968 47.8393 187.324 47.2 187.324 46.4216V36.3691C187.335 35.5907 187.973 34.9514 188.757 34.9514Z" fill="#13447E"/>
<path fill-rule="evenodd" clip-rule="evenodd" d="M163.428 34.9514H183.031C183.815 34.9514 184.459 35.5907 184.459 36.3691V46.4268C184.459 47.2052 183.815 47.8444 183.031 47.8444H163.428C162.644 47.8444 162 47.2052 162 46.4268V36.3691C162 35.5907 162.644 34.9514 163.428 34.9514ZM168.344 38.1321H178.12V44.6637H168.344V38.1321Z" fill="#13447E"/>
<path fill-rule="evenodd" clip-rule="evenodd" d="M237.449 34.9514H257.053C257.837 34.9514 258.48 35.5907 258.48 36.3691V46.4268C258.48 47.2052 257.837 47.8444 257.053 47.8444H237.449C236.665 47.8444 236.021 47.2052 236.021 46.4268V36.3691C236.027 35.5907 236.665 34.9514 237.449 34.9514ZM242.366 38.1321H252.141V44.6637H242.366V38.1321Z" fill="#13447E"/>
<path fill-rule="evenodd" clip-rule="evenodd" d="M232.875 36.3691C232.875 42.3954 232.875 42.6223 232.875 48.6538C231.951 48.4837 226.027 48.128 226.359 42.8903V38.1373H216.781C216.781 42.6635 216.781 43.3646 216.796 47.8444H210.566V36.3691C210.566 35.5907 211.21 34.9514 211.994 34.9514H231.452C232.236 34.9514 232.875 35.5907 232.875 36.3691Z" fill="#13447E"/>
<path fill-rule="evenodd" clip-rule="evenodd" d="M282.424 44.3183C276.355 44.3183 274.657 44.3183 268.588 44.3183C268.993 43.3904 270.27 40.8077 275.539 41.1376H277.445V38.1219C272.887 38.1219 270.685 38.1219 266.174 38.1373V34.9463H282.424C283.208 34.9463 283.851 35.5855 283.851 36.364V42.9007C283.846 43.6791 283.208 44.3183 282.424 44.3183Z" fill="#13447E"/>
<path fill-rule="evenodd" clip-rule="evenodd" d="M262.851 34.9412H267.768V38.1219V44.6534V47.8342H262.851C262.068 47.8342 261.424 47.1949 261.424 46.4165V36.3537C261.424 35.5752 262.068 34.9412 262.851 34.9412Z" fill="#13447E"/>
<path fill-rule="evenodd" clip-rule="evenodd" d="M290.363 44.2771H286.277C286.625 43.4729 287.638 41.416 291.35 41.1067H294.62H298.706C298.358 41.9109 297.346 43.9678 293.634 44.2771H290.363Z" fill="#D72326"/>
<path fill-rule="evenodd" clip-rule="evenodd" d="M303.975 34.9412H308.891V38.1219V44.6534V47.8342H303.975C303.191 47.8342 302.547 47.1949 302.547 46.4165V36.3537C302.547 35.5752 303.191 34.9412 303.975 34.9412Z" fill="#13447E"/>
<path fill-rule="evenodd" clip-rule="evenodd" d="M308.652 38.0962H304.566C304.914 37.292 305.927 35.2351 309.639 34.9258H312.909H316.995C316.647 35.73 315.635 37.7869 311.923 38.0962H308.652Z" fill="#13447E"/>
<path fill-rule="evenodd" clip-rule="evenodd" d="M299.571 38.0961H295.537L295.516 36.4722C295.511 35.8845 295.314 34.838 297.147 34.9308C301.881 34.9308 306.621 34.9308 311.356 34.9308C311.008 35.735 306.554 37.7919 302.842 38.1012L299.571 38.0961Z" fill="#13447E"/>
<path fill-rule="evenodd" clip-rule="evenodd" d="M157.918 40.0964C151.849 40.0964 150.151 40.0964 144.082 40.0964C144.487 41.0244 145.764 43.6071 151.034 43.2772H152.939V44.6536C148.381 44.6536 146.179 44.6536 141.668 44.6381V47.8291H157.918C158.702 47.8291 159.345 47.1899 159.345 46.4115V41.5089C159.345 40.7305 158.702 40.0964 157.918 40.0964Z" fill="#13447E"/>
<path fill-rule="evenodd" clip-rule="evenodd" d="M138.346 47.8342H143.262V44.6534V38.1219V34.9412H138.346C137.562 34.9412 136.918 35.5804 136.918 36.3588V46.4165C136.918 47.1949 137.562 47.8342 138.346 47.8342Z" fill="#13447E"/>
<path fill-rule="evenodd" clip-rule="evenodd" d="M141.668 37.8796V34.936H157.918C158.702 34.936 159.345 35.5753 159.345 36.3537V37.8796H141.668Z" fill="#13447E"/>
</g>
<defs>
<clipPath id="clip0_0_52">
<rect width="317" height="53" fill="white" transform="translate(0 0.422363)"/>
</clipPath>
</defs>
</svg>
