<svg width="236" height="39" viewBox="0 0 236 39" fill="none" xmlns="http://www.w3.org/2000/svg">
<g clip-path="url(#clip0_110_6)">
<path fill-rule="evenodd" clip-rule="evenodd" d="M47.3385 0.413481L20.399 20.014H30.2395L46.8785 7.97374L47.6863 7.41611L76.5505 28.1622L86.4914 28.1129L47.9066 0L47.3385 0.413481Z" fill="white"/>
<path fill-rule="evenodd" clip-rule="evenodd" d="M24.1113 9.50997L24.3007 14.9459L32.1119 9.23305L32.0501 3.75537L24.1113 9.50997Z" fill="#D72326"/>
<path fill-rule="evenodd" clip-rule="evenodd" d="M52.5458 17.4343C51.4636 17.7036 51.023 18.1778 51.023 19.0655C51.023 20.2642 52.569 20.7308 53.5778 20.5525C54.3779 20.4083 55.2282 19.8735 55.2282 18.9934C55.2243 17.9274 53.8174 17.1157 52.5458 17.4343Z" fill="#D72326"/>
<path fill-rule="evenodd" clip-rule="evenodd" d="M49.3374 18.0645L37.3441 26.8425C37.0697 27.0587 36.7992 27.2332 36.7257 27.2332C36.5904 27.2332 30.3407 22.6811 29.5058 21.9717L0 22.0249C1.85909 23.3639 3.89597 24.7637 5.65457 26.2014H25.32L34.8628 33.0106C35.628 33.4164 36.6214 33.5568 37.4755 33.4051C38.2679 33.2647 39.0602 32.874 39.8951 32.2253L53.6005 22.2069C54.0218 21.8693 54.5088 21.6038 54.9572 21.2358C53.7397 21.6607 52.4913 21.7593 51.2892 21.1941C49.6968 20.3558 49.5809 19.2101 49.7548 18.3073C49.7548 18.1176 50.0601 17.5335 50.0485 17.5448C50.0331 17.5486 49.7162 17.7838 49.3374 18.0645Z" fill="#D72326"/>
<path fill-rule="evenodd" clip-rule="evenodd" d="M58.2077 23.0033C57.3265 23.1778 56.3486 23.724 55.2548 24.6231L41.8856 34.3721C41.5686 34.6187 41.1512 34.9184 40.9386 35.0436C40.4864 35.3205 40.5405 35.3432 41.0971 35.1156C41.3908 34.9904 41.8315 34.9411 42.6122 34.9298C44.2007 34.9298 46.1874 35.6088 46.1874 37.4372C46.1874 37.8924 45.9787 38.469 45.7352 38.7042L45.5033 38.9318L46.4502 38.3021L57.7903 30.0401C58.915 29.1752 58.8957 29.1827 59.3788 29.4824C61.6978 30.9277 64.0516 32.7903 66.2315 34.4556H80.7061H95.1885L94.8831 34.2166L90.5929 31.1022C89.5301 30.2449 90.6355 30.3283 79.9756 30.3283H70.4522L62.6757 24.6041C61.6978 23.872 60.9635 23.4168 60.4146 23.2233C59.7653 22.9729 58.799 22.8819 58.2077 23.0033Z" fill="white"/>
<path fill-rule="evenodd" clip-rule="evenodd" d="M8.96796 28.3483L0.619446 34.4557H10.5758L19.0673 28.2649L8.96796 28.3483Z" fill="white"/>
<path fill-rule="evenodd" clip-rule="evenodd" d="M41.6104 36.0638C40.7485 36.3711 40.0412 37.4825 40.8104 38.2412C41.7766 39.2427 43.4077 39.2541 44.4783 38.2716C44.9692 37.7898 44.9344 37.0766 44.4783 36.5797C43.8174 35.859 42.4917 35.7565 41.6104 36.0638Z" fill="white"/>
<path fill-rule="evenodd" clip-rule="evenodd" d="M140.526 25.4082C145.044 25.4082 149.779 25.4082 154.297 25.4082C153.995 26.091 153.045 27.9915 149.122 27.7487H144.182V32.555C147.576 32.555 150.896 32.555 154.251 32.5436V34.8917H140.522C139.938 34.8917 139.459 34.4213 139.459 33.8485V26.4514C139.467 25.8786 139.942 25.4082 140.526 25.4082Z" fill="white"/>
<path fill-rule="evenodd" clip-rule="evenodd" d="M121.669 25.4084H136.263C136.847 25.4084 137.326 25.8788 137.326 26.4516V33.8526C137.326 34.4254 136.847 34.8958 136.263 34.8958H121.669C121.085 34.8958 120.606 34.4254 120.606 33.8526V26.4516C120.606 25.8788 121.085 25.4084 121.669 25.4084ZM125.329 27.749H132.607V32.5552H125.329V27.749Z" fill="white"/>
<path fill-rule="evenodd" clip-rule="evenodd" d="M176.776 25.4082H191.37C191.954 25.4082 192.433 25.8786 192.433 26.4514V33.8523C192.433 34.4251 191.954 34.8955 191.37 34.8955H176.776C176.192 34.8955 175.713 34.4251 175.713 33.8523V26.4514C175.717 25.8786 176.192 25.4082 176.776 25.4082ZM180.436 27.7487H187.714V32.555H180.436V27.7487Z" fill="white"/>
<path fill-rule="evenodd" clip-rule="evenodd" d="M173.371 26.4514C173.371 30.8859 173.371 31.0528 173.371 35.4911C172.683 35.3659 168.273 35.1041 168.52 31.25V27.7525H161.389C161.389 31.0831 161.389 31.599 161.4 34.8955H156.762V26.4514C156.762 25.8786 157.242 25.4082 157.825 25.4082H172.311C172.895 25.4082 173.371 25.8786 173.371 26.4514Z" fill="white"/>
<path fill-rule="evenodd" clip-rule="evenodd" d="M210.259 32.3012C205.74 32.3012 204.476 32.3012 199.958 32.3012C200.26 31.6184 201.21 29.7179 205.133 29.9607H206.552V27.7415C203.158 27.7415 201.52 27.7415 198.161 27.7529V25.4048H210.259C210.842 25.4048 211.321 25.8752 211.321 26.448V31.258C211.318 31.8308 210.842 32.3012 210.259 32.3012Z" fill="white"/>
<path fill-rule="evenodd" clip-rule="evenodd" d="M195.688 25.4004H199.348V27.7409V32.5472V34.8877H195.688C195.104 34.8877 194.625 34.4173 194.625 33.8445V26.4398C194.625 25.867 195.104 25.4004 195.688 25.4004Z" fill="white"/>
<path fill-rule="evenodd" clip-rule="evenodd" d="M216.169 32.2707H213.128C213.387 31.6789 214.14 30.1653 216.904 29.9377H219.339H222.381C222.122 30.5295 221.368 32.0431 218.604 32.2707H216.169Z" fill="#D72326"/>
<path fill-rule="evenodd" clip-rule="evenodd" d="M226.303 25.4004H229.963V27.7409V32.5472V34.8877H226.303C225.719 34.8877 225.24 34.4173 225.24 33.8445V26.4398C225.24 25.867 225.719 25.4004 226.303 25.4004Z" fill="white"/>
<path fill-rule="evenodd" clip-rule="evenodd" d="M229.785 27.7219H226.743C227.002 27.1301 227.756 25.6165 230.52 25.3889H232.955H235.996C235.737 25.9807 234.984 27.4943 232.22 27.7219H229.785Z" fill="white"/>
<path fill-rule="evenodd" clip-rule="evenodd" d="M223.024 27.7223H220.021L220.006 26.5274C220.002 26.0949 219.855 25.3249 221.219 25.3932C224.744 25.3932 228.273 25.3932 231.798 25.3932C231.539 25.9849 228.223 27.4985 225.459 27.7261L223.024 27.7223Z" fill="white"/>
<path fill-rule="evenodd" clip-rule="evenodd" d="M117.566 29.1938C113.048 29.1938 111.784 29.1938 107.266 29.1938C107.568 29.8767 108.518 31.7772 112.441 31.5344H113.86V32.5472C110.466 32.5472 108.828 32.5472 105.469 32.5358V34.884H117.566C118.15 34.884 118.629 34.4136 118.629 33.8408V30.2332C118.629 29.6604 118.15 29.1938 117.566 29.1938Z" fill="white"/>
<path fill-rule="evenodd" clip-rule="evenodd" d="M102.996 34.8877H106.656V32.5472V27.7409V25.4004H102.996C102.412 25.4004 101.933 25.8708 101.933 26.4436V33.8445C101.933 34.4173 102.412 34.8877 102.996 34.8877Z" fill="white"/>
<path fill-rule="evenodd" clip-rule="evenodd" d="M105.469 27.563V25.397H117.566C118.15 25.397 118.629 25.8674 118.629 26.4402V27.563H105.469Z" fill="white"/>
</g>
<defs>
<clipPath id="clip0_110_6">
<rect width="236" height="39" fill="white"/>
</clipPath>
</defs>
</svg>
