<svg width="49" height="18" viewBox="0 0 49 18" fill="none" xmlns="http://www.w3.org/2000/svg">
<g clip-path="url(#clip0_155_1582)">
<path d="M48.8303 11.2427C48.8303 11.2427 47.7799 11.3778 46.5786 11.3778C45.1089 11.3778 44.8169 10.8955 44.8169 9.70416V8.27169C44.8169 7.04661 45.0712 6.58358 46.5786 6.58358C47.6621 6.58358 48.7126 6.73793 48.7126 6.73793L48.8633 4.53374C48.8633 4.53374 47.5255 4.34564 46.3761 4.34564C43.3095 4.34564 42.1978 5.3778 42.1978 7.89548V10.0852C42.1978 12.8633 43.5544 13.6399 46.3572 13.6399C47.4925 13.6399 48.9952 13.4518 48.9952 13.4518L48.8303 11.2427Z" fill="#E30613"/>
<path d="M33.5068 6.78135H36.0458V13.5H38.6838V6.78135H41.2181L41.3688 4.5H33.3513L33.5068 6.78135Z" fill="#E30613"/>
<path d="M28.1271 12.5981L29.5262 9.14952H29.6816L29.9784 13.5H32.5316L31.9427 4.5H29.4791L27.3546 9.61254H27.1991L24.9898 4.5H22.5591L21.9797 13.5H24.4622L24.7166 9.14952H24.8721L26.4454 12.5981H28.1271Z" fill="#E30613"/>
<path d="M17.5848 16.201C17.5848 17.1945 16.7981 18 15.823 18H1.75707C0.786676 18 0 17.1945 0 16.201V1.79904C0 0.805466 0.786676 0 1.75707 0H15.823C16.7934 0 17.5848 0.805466 17.5848 1.79904V16.201ZM8.79004 15.6704C12.0781 15.6704 13.5525 12.9887 13.5525 10.336C13.5525 6.59325 11.0182 2.32958 8.79004 2.32958C6.57133 2.32958 4.03701 6.59325 4.03701 10.336C4.0323 12.9936 5.50202 15.6704 8.79004 15.6704Z" fill="#E30613"/>
<path d="M13.5477 10.3457C13.5477 6.6029 11.0134 2.33923 8.78997 2.33923C6.57126 2.33923 4.03223 6.6029 4.03223 10.3457C4.03223 12.9984 5.50194 15.6801 8.78997 15.6801C12.0733 15.6801 13.5477 13.0032 13.5477 10.3457Z" fill="white"/>
</g>
<defs>
<clipPath id="clip0_155_1582">
<rect width="49" height="18" fill="white"/>
</clipPath>
</defs>
</svg>
