<svg width="46" height="33" viewBox="0 0 46 33" fill="none" xmlns="http://www.w3.org/2000/svg">
<path d="M9.94033 1.00231H18.7637V9.87155V19.5056L15.5696 25.9249L15.5696 25.9249L12.5467 32H8.25721C6.96337 32 5.78467 31.9919 4.91104 31.9789C4.99749 31.8024 5.09131 31.6113 5.19179 31.4069C5.77471 30.2213 6.57922 28.5957 7.46448 26.8165L10.6856 20.3433L11.3982 18.9112L9.79865 18.8978L4.92832 18.8571L1.04575 18.8246L1.01005 10.098L1.01005 10.098C0.99909 7.42829 0.997409 4.98066 1.00348 3.18816C1.00646 2.30592 1.01132 1.58461 1.01783 1.07436C1.29973 1.06183 1.66751 1.0509 2.13899 1.04171C3.62995 1.01268 6.07998 1.00231 9.94033 1.00231ZM0.365526 1.12377C0.36067 1.12487 0.359789 1.1249 0.363695 1.12412L0.365526 1.12377ZM27.2071 18.8934V9.9468V1.00404L36.06 1.03977L44.925 1.07541L44.9604 9.90486L44.9991 19.4893L41.8062 25.9162L38.7838 32H34.4929C33.038 32 31.8971 31.9886 31.0906 31.967C31.186 31.769 31.2913 31.5513 31.4056 31.3159C31.9739 30.1459 32.7587 28.5513 33.6226 26.8151C34.4879 25.0759 35.2749 23.4855 35.8459 22.324C36.1312 21.7435 36.3633 21.2687 36.5244 20.9356C36.6047 20.7695 36.6687 20.6358 36.7133 20.541C36.7351 20.4944 36.7547 20.452 36.7698 20.418C36.7768 20.4022 36.7867 20.3797 36.7963 20.3559C36.8005 20.3453 36.8096 20.3223 36.8192 20.2939C36.8237 20.2803 36.8326 20.2533 36.8413 20.2187C36.8446 20.2058 36.8723 20.1036 36.8723 19.9713C36.8723 19.4184 36.4578 19.1573 36.4056 19.1244L36.4043 19.1236C36.2953 19.0548 36.1981 19.0235 36.1668 19.0136C36.0896 18.9893 36.024 18.9789 36.0028 18.9756C35.9464 18.9667 35.8902 18.9617 35.8517 18.9587C35.7664 18.952 35.6549 18.9466 35.5289 18.9418C35.2725 18.9321 34.9091 18.9235 34.4688 18.9164C33.586 18.9022 32.3723 18.8934 31.0397 18.8934H27.2071Z" stroke="#D72326" stroke-width="2"/>
</svg>
