<svg width="434" height="261" viewBox="0 0 434 261" fill="none" xmlns="http://www.w3.org/2000/svg">
<g clip-path="url(#clip0_0_546)">
<rect x="-1.99994" width="436" height="261" rx="8" fill="#D72326"/>
<rect x="-1.49994" y="0.5" width="435" height="260" rx="7.5" stroke="#212121" stroke-opacity="0.05"/>
<mask id="mask0_0_546" style="mask-type:luminance" maskUnits="userSpaceOnUse" x="-604" y="-620" width="1110" height="1573">
<path d="M505.611 878.946L395.298 -620L-604 -546.458L-493.687 952.488L505.611 878.946Z" fill="white"/>
</mask>
<g mask="url(#mask0_0_546)">
<g opacity="0.5">
<path d="M208.413 -959.979C417.737 -833.6 343.864 -614.971 204.504 -482.434C96.4247 -379.725 104.582 -253.346 203.408 -147.148C247.117 -100.04 310.253 -62.683 333.732 -7.44043C359.877 54.2528 352.451 112.471 325.978 173.029C277.582 283.988 161.926 356.93 185.515 483.323C198.079 550.638 263.343 593.437 289.19 656.729C318.504 728.287 296.383 792.915 238.509 852.433" stroke="#DCE9FA" stroke-opacity="0.5" stroke-width="2" stroke-miterlimit="10" stroke-linecap="round" stroke-linejoin="round" stroke-dasharray="3 3"/>
<path d="M232.354 -957.441C426.305 -835.284 355.819 -622.42 224.48 -491.976C122.49 -391.186 132.901 -268.384 227.08 -164.855C271.866 -115.929 336.621 -76.144 356.761 -18.543C378.754 44.4953 365.834 101.435 336.603 162.155C316.175 204.158 288.089 242.046 262.767 279.372C230.127 327.618 203.852 373.949 202.805 429.25C202.59 444.68 204.57 460.741 209.019 477.638C216.874 507.209 234.16 532.303 252 557.203C274.44 588.181 299.911 619.2 312.644 654.652C338.106 725.755 312.949 790.741 253.723 848.437" stroke="#DCE9FA" stroke-opacity="0.5" stroke-width="2" stroke-miterlimit="10" stroke-linecap="round" stroke-linejoin="round" stroke-dasharray="3 3"/>
<path d="M256.02 -955.106C434.873 -837.169 368.323 -629.862 244.454 -501.518C148.826 -402.442 160.665 -283.228 251.025 -182.559C296.886 -131.613 363.261 -89.4007 379.785 -29.4451C397.625 34.9381 379.212 90.5983 346.944 151.677C324.861 193.858 296.48 233.144 271.968 271.684C240.408 321.549 219.626 369.159 222.715 424.317C223.601 439.762 226.962 455.642 232.789 472.559C242.575 501.956 261.79 527.077 279.34 552.975C300.943 584.743 325.562 617.554 336.636 653.383C358.25 723.832 330.053 789.376 269.474 845.25" stroke="#DCE9FA" stroke-opacity="0.5" stroke-width="2" stroke-miterlimit="10" stroke-linecap="round" stroke-linejoin="round" stroke-dasharray="3 3"/>
<path d="M279.959 -952.567C443.439 -838.853 380.555 -637.507 264.431 -511.26C175.167 -414.1 188.432 -298.273 274.701 -200.667C321.361 -147.706 389.633 -103.262 402.542 -40.9522C416.23 24.776 392.326 78.9565 357.298 140.397C333.283 182.751 304.607 223.437 281.18 263.194C250.697 314.878 235.139 363.363 242.36 418.579C244.349 434.039 249.087 449.938 256.019 466.67C268.011 495.898 288.88 521.041 306.144 547.737C327.184 580.299 350.948 615.102 360.091 651.105C377.856 720.899 346.896 787.006 284.689 841.053" stroke="#DCE9FA" stroke-opacity="0.5" stroke-width="2" stroke-miterlimit="10" stroke-linecap="round" stroke-linejoin="round" stroke-dasharray="3 3"/>
<path d="M303.902 -950.229C452.285 -840.733 392.785 -644.952 284.681 -520.798C201.504 -425.356 216.47 -312.913 298.648 -218.37C346.382 -163.39 416.277 -116.719 425.57 -52.0546C435.382 15.0224 405.708 67.9199 367.922 129.523C341.976 172.05 313.005 214.135 290.387 255.106C261.257 308.612 250.923 357.971 262.004 413.041C265.095 428.516 271.489 444.238 279.525 460.785C293.728 489.643 316.243 515.21 332.948 542.5C353.426 575.855 376.06 612.647 383.547 648.827C397.463 717.966 363.464 784.632 299.905 836.856" stroke="#DCE9FA" stroke-opacity="0.5" stroke-width="2" stroke-miterlimit="10" stroke-linecap="round" stroke-linejoin="round" stroke-dasharray="3 3"/>
<path d="M327.564 -947.694C460.85 -842.418 405.015 -652.598 304.379 -530.344C227.567 -436.818 243.957 -327.761 322.318 -236.078C371.128 -179.279 442.918 -130.177 448.597 -63.1573C454.255 5.26477 419.091 56.6827 378.544 118.648C350.94 161.553 321.398 205.033 299.865 247.221C271.815 302.346 266.977 352.784 282.191 407.911C286.384 423.402 294.159 438.943 303.572 455.509C319.982 484.197 343.875 509.784 360.566 538.075C380.484 572.024 402.264 610.808 407.817 647.362C417.884 715.846 380.846 783.07 316.21 833.476" stroke="#DCE9FA" stroke-opacity="0.5" stroke-width="2" stroke-miterlimit="10" stroke-linecap="round" stroke-linejoin="round" stroke-dasharray="3 3"/>
<path d="M351.506 -945.356C469.419 -844.302 417.247 -660.244 324.631 -540.082C253.909 -448.475 271.721 -342.606 346.267 -253.982C395.876 -195.168 469.566 -144.035 471.624 -74.26C473.409 -4.68954 432.473 45.6457 389.165 107.973C359.631 150.851 329.792 195.93 309.072 239.132C282.098 296.076 282.76 347.392 301.831 402.573C307.126 418.08 316.278 433.64 327.072 450.024C345.689 478.543 371.235 504.153 387.639 533.242C406.995 567.984 427.924 608.561 431.266 645.484C437.763 713.117 397.41 780.896 331.419 829.679" stroke="#DCE9FA" stroke-opacity="0.5" stroke-width="2" stroke-miterlimit="10" stroke-linecap="round" stroke-linejoin="round" stroke-dasharray="3 3"/>
<path d="M375.446 -942.817C478.258 -845.782 429.476 -667.689 344.603 -549.423C280.245 -459.732 299.205 -357.053 370.21 -271.485C420.893 -210.652 491.798 -157.353 494.649 -85.1621C497.516 -14.1735 445.852 34.8094 399.786 97.2987C368.048 140.146 337.913 186.624 318.555 231.047C292.657 289.81 298.815 342.205 322.025 397.043C328.698 412.569 338.955 427.944 350.854 444.143C371.677 472.492 398.877 498.125 414.718 528.008C433.512 563.544 453.311 606.109 454.995 643.411C457.918 710.391 414.251 778.726 346.91 825.486" stroke="#DCE9FA" stroke-opacity="0.5" stroke-width="2" stroke-miterlimit="10" stroke-linecap="round" stroke-linejoin="round" stroke-dasharray="3 3"/>
<path d="M399.111 -940.483C486.55 -847.671 441.432 -675.339 364.579 -559.166C306.308 -471.193 326.69 -371.701 393.883 -289.393C445.364 -226.544 523.126 -170.945 517.402 -96.4688C511.712 -24.3972 458.962 23.3681 410.136 86.2197C376.739 129.445 346.309 177.321 327.758 223.159C303.216 283.544 314.319 337.01 341.661 391.906C349.436 407.447 361.071 422.841 374.35 438.859C397.383 466.839 426.233 492.695 441.785 523.576C460.02 559.705 475.382 604.213 478.713 641.938C484.957 707.963 431.081 777.157 362.388 822.095" stroke="#DCE9FA" stroke-opacity="0.5" stroke-width="2" stroke-miterlimit="10" stroke-linecap="round" stroke-linejoin="round" stroke-dasharray="3 3"/>
<path d="M423.053 -937.944C495.394 -849.351 453.665 -682.984 384.556 -568.707C332.649 -482.65 353.902 -386.353 417.831 -307.096C470.111 -242.233 550.325 -184.595 540.432 -107.571C531.14 -34.147 472.346 12.3315 420.761 75.345C385.436 118.543 354.708 168.019 336.966 215.07C313.501 277.274 330.104 331.619 361.303 386.568C370.18 402.125 383.471 417.342 397.852 433.375C423.092 461.185 453.595 487.064 468.861 518.743C486.533 555.666 500.768 601.961 502.441 640.065C505.386 705.442 447.921 775.188 377.875 818.303" stroke="#DCE9FA" stroke-opacity="0.5" stroke-width="2" stroke-miterlimit="10" stroke-linecap="round" stroke-linejoin="round" stroke-dasharray="3 3"/>
<path d="M446.995 -935.606C503.963 -851.236 465.9 -690.83 404.53 -578.249C358.713 -494.111 381.11 -400.804 441.502 -324.804C494.581 -257.925 576.968 -198.052 563.456 -118.473C550.566 -43.8968 485.727 1.29476 431.379 64.8709C394.123 108.243 363.1 159.117 346.443 207.386C324.33 271.412 346.157 326.632 381.492 381.439C391.47 397.01 406.142 412.046 421.903 427.899C449.35 455.539 481.506 481.441 496.485 513.918C513.598 551.435 531.111 599.78 526.717 638.199C519.477 702.833 465.309 773.226 393.911 814.518" stroke="#DCE9FA" stroke-opacity="0.5" stroke-width="2" stroke-miterlimit="10" stroke-linecap="round" stroke-linejoin="round" stroke-dasharray="3 3"/>
<path d="M470.657 -933.071C512.527 -852.92 477.852 -698.279 424.502 -587.791C384.778 -505.773 408.319 -415.456 465.446 -342.507C519.321 -273.413 604.16 -211.501 586.482 -129.576C569.99 -53.6469 499.107 -9.74221 442.001 53.9959C403.088 97.5451 371.77 149.818 355.923 199.301C334.888 265.146 362.21 321.445 401.405 376.105C412.486 391.692 428.535 406.747 445.402 422.414C475.056 449.885 508.865 475.81 523.279 509.281C539.829 547.592 556.491 597.729 550.162 636.522C539.627 700.308 481.866 771.453 409.391 810.926" stroke="#DCE9FA" stroke-opacity="0.5" stroke-width="2" stroke-miterlimit="10" stroke-linecap="round" stroke-linejoin="round" stroke-dasharray="3 3"/>
<path d="M494.599 -930.733C521.097 -854.805 490.087 -706.125 444.48 -597.533C410.845 -517.434 435.53 -430.107 489.123 -360.616C543.796 -289.505 631.084 -225.355 609.24 -141.083C589.147 -63.8014 512.219 -21.1835 452.355 42.7166C411.511 86.4393 379.898 140.111 364.861 190.808C344.905 258.271 377.724 315.648 421.052 370.366C433.51 385.973 450.664 400.843 468.911 416.329C500.774 443.43 536.234 469.578 550.361 503.847C566.349 542.951 582.435 594.884 573.896 634.047C560.061 697.387 498.434 769.079 424.607 806.729" stroke="#DCE9FA" stroke-opacity="0.5" stroke-width="2" stroke-miterlimit="10" stroke-linecap="round" stroke-linejoin="round" stroke-dasharray="3 3"/>
<path d="M518.538 -928.194C529.938 -856.485 502.043 -713.775 464.729 -607.071C437.183 -528.891 463.012 -444.555 513.069 -378.319C568.54 -305.193 658.28 -239.005 632.267 -152.186C608.851 -73.7476 525.878 -32.4167 462.977 31.8419C420.202 75.738 388.294 130.809 374.342 182.723C356.014 252.013 393.781 310.261 440.966 365.033C454.527 380.654 473.336 395.347 492.686 410.849C526.756 437.78 563.869 463.951 577.709 499.017C593.138 538.715 608.366 592.841 597.897 632.177C581.044 694.473 515.828 766.716 440.645 802.744" stroke="#DCE9FA" stroke-opacity="0.5" stroke-width="2" stroke-miterlimit="10" stroke-linecap="round" stroke-linejoin="round" stroke-dasharray="3 3"/>
<path d="M542.206 -925.859C538.508 -858.37 514.003 -721.625 484.429 -616.617C462.973 -540.356 489.67 -459.014 536.741 -396.027C592.733 -320.689 685.199 -252.459 655.295 -163.288C628.278 -83.4976 539.261 -43.4534 473.602 20.967C428.896 65.0366 396.965 121.711 383.548 174.835C366.296 245.943 409.563 305.07 460.608 359.695C475.271 375.332 495.458 390.044 516.187 405.365C552.465 432.126 591.23 458.321 604.506 494.381C619.648 534.877 634.024 590.794 621.345 630.5C601.473 691.952 532.388 764.943 455.853 799.149" stroke="#DCE9FA" stroke-opacity="0.5" stroke-width="2" stroke-miterlimit="10" stroke-linecap="round" stroke-linejoin="round" stroke-dasharray="3 3"/>
<path d="M566.146 -923.521C547.073 -860.054 525.958 -729.274 504.405 -626.359C489.04 -552.218 516.879 -473.666 560.412 -413.934C617.2 -336.381 712.394 -266.108 678.045 -174.395C647.702 -93.2474 552.368 -54.6944 483.946 10.2888C437.308 54.5319 405.082 112.605 392.75 166.947C376.576 239.874 425.341 299.879 480.519 354.562C496.284 370.214 517.851 384.745 539.686 399.88C578.17 426.472 618.589 452.69 631.577 489.548C646.158 530.837 659.957 588.55 645.068 628.627C622.174 689.435 549.224 762.973 471.336 795.356" stroke="#DCE9FA" stroke-opacity="0.5" stroke-width="2" stroke-miterlimit="10" stroke-linecap="round" stroke-linejoin="round" stroke-dasharray="3 3"/>
<path d="M590.086 -920.982C555.642 -861.939 537.642 -737.128 524.655 -635.897C515.104 -563.679 544.087 -488.117 584.635 -431.634C641.67 -352.073 739.861 -279.354 701.349 -185.493C667.404 -102.994 566.025 -65.7274 494.57 -0.586145C446 43.8304 413.48 103.302 402.233 158.862C387.414 233.411 441.4 294.491 500.435 349.228C517.575 365.1 540.247 379.445 563.462 394.4C604.153 420.822 646.225 447.063 658.927 484.719C672.948 526.601 686.166 586.511 668.794 626.753C642.878 686.918 566.061 761.004 486.821 791.564" stroke="#DCE9FA" stroke-opacity="0.5" stroke-width="2" stroke-miterlimit="10" stroke-linecap="round" stroke-linejoin="round" stroke-dasharray="3 3"/>
<path d="M613.753 -918.648C564.212 -863.823 549.326 -744.982 544.354 -645.443C540.893 -575.144 570.744 -502.576 608.03 -449.345C665.586 -367.573 766.779 -292.807 723.825 -196.604C686.555 -112.747 578.856 -76.7717 504.642 -11.4686C454.417 33.1253 421.326 93.9918 410.888 150.765C397.146 227.134 456.632 289.092 519.803 343.686C538.047 359.373 562.097 373.738 586.689 388.712C629.591 414.764 673.313 441.228 685.45 479.878C698.908 522.555 711.55 584.26 691.969 624.872C663.305 684.398 582.348 759.026 501.756 787.764" stroke="#DCE9FA" stroke-opacity="0.5" stroke-width="2" stroke-miterlimit="10" stroke-linecap="round" stroke-linejoin="round" stroke-dasharray="3 3"/>
<path d="M637.692 -916.109C573.053 -865.503 561.279 -752.431 564.604 -654.98C566.957 -586.605 597.949 -516.827 632.252 -467.045C690.049 -382.864 794.249 -306.252 747.404 -207.698C706.808 -122.485 592.791 -88.001 515.817 -22.3356C463.66 22.4318 430.274 84.6971 420.922 142.688C408.532 220.879 473.517 283.716 540.269 338.36C559.616 354.062 585.322 368.25 611.019 383.039C656.127 408.921 701.499 435.609 713.352 474.856C726.252 518.126 738.587 582.032 716.521 623.01C684.835 681.892 600.012 757.068 518.343 783.987" stroke="#DCE9FA" stroke-opacity="0.5" stroke-width="2" stroke-miterlimit="10" stroke-linecap="round" stroke-linejoin="round" stroke-dasharray="3 3"/>
<path d="M661.634 -913.771C581.62 -867.188 572.963 -760.284 584.578 -664.522C592.745 -598.069 624.881 -531.282 655.923 -484.752C713.689 -398.367 821.442 -319.702 770.153 -218.604C726.231 -132.035 605.894 -98.8413 526.159 -32.8135C472.071 12.1273 438.39 75.7914 430.123 135C418.813 214.81 489.294 278.725 559.904 333.423C580.352 349.141 607.436 363.347 634.238 377.951C681.553 403.664 728.854 430.379 740.145 470.42C752.757 514.488 764.238 580.386 739.965 621.534C705.532 679.776 616.571 755.295 533.546 780.592" stroke="#DCE9FA" stroke-opacity="0.5" stroke-width="2" stroke-miterlimit="10" stroke-linecap="round" stroke-linejoin="round" stroke-dasharray="3 3"/>
<path d="M685.3 -911.236C590.19 -869.072 584.37 -767.942 604.557 -674.264C618.537 -609.735 651.542 -545.942 679.873 -502.656C737.606 -413.866 848.913 -333.147 793.185 -229.907C745.662 -141.985 619.283 -110.279 536.787 -43.8888C480.768 1.22543 446.791 66.2885 439.331 126.911C429.098 208.54 505.078 273.334 579.824 327.889C601.65 343.626 629.838 357.647 658.018 372.271C707.54 397.814 756.218 424.548 767.22 465.587C779.273 510.248 790.447 578.346 763.692 619.66C726.234 677.459 633.41 753.325 549.033 776.8" stroke="#DCE9FA" stroke-opacity="0.5" stroke-width="2" stroke-miterlimit="10" stroke-linecap="round" stroke-linejoin="round" stroke-dasharray="3 3"/>
</g>
</g>
</g>
<defs>
<clipPath id="clip0_0_546">
<rect width="434" height="261" fill="white"/>
</clipPath>
</defs>
</svg>
