<svg width="21" height="19" viewBox="0 0 21 19" fill="none" xmlns="http://www.w3.org/2000/svg">
<g clip-path="url(#clip0_118_1095)">
<path d="M19.4742 0.211583L0.822278 7.87287C0.822278 7.87287 -0.0625922 8.18662 0.00708264 8.77034C0.0767575 9.35406 0.794408 9.62403 0.794408 9.62403L5.48353 11.2803L5.49049 11.2876V11.2803L16.7499 3.78685C16.7499 3.78685 17.3979 3.37095 17.377 3.78685C17.377 3.78685 17.4955 3.85982 17.1471 4.20275C16.7987 4.54568 8.29839 12.5426 8.29839 12.5426L8.28446 12.6958L15.9348 18.8395C17.2098 19.4232 17.6766 18.2047 17.6766 18.2047L21.0001 0.671261C21.0001 -0.496174 19.4673 0.211583 19.4742 0.211583Z" fill="#1393E2"/>
<path d="M11.2106 15.0453L8.17975 17.942C8.17975 17.942 7.94286 18.1317 7.68506 18.0149L8.26336 12.6375" fill="#1393E2"/>
</g>
<defs>
<clipPath id="clip0_118_1095">
<rect width="21" height="19" fill="white"/>
</clipPath>
</defs>
</svg>
