<svg width="20" height="22" viewBox="0 0 20 22" fill="none" xmlns="http://www.w3.org/2000/svg">
<g clip-path="url(#clip0_118_1102)">
<path d="M18.32 12.3241C17.8 16.7852 14.66 17.0704 14.08 17.2741C13.84 17.3556 11.54 17.9463 8.67998 17.763L5.55998 21.2871V17.2334H5.53998C1.35998 16.0111 1.49998 11.4685 1.53998 9.0852C1.57998 6.70187 2.01998 4.74631 3.29998 3.42224C5.59998 1.26298 10.32 1.58891 10.32 1.58891C14.32 1.60928 16.22 2.85187 16.66 3.27965C18.12 4.58335 18.88 7.72039 18.32 12.3241ZM17.74 2.13891C17.22 1.65002 15.1 0.040758 10.38 0.0203876C10.38 0.0203876 4.81998 -0.325909 2.09998 2.26113C0.599981 3.82965 0.0599813 6.1315 0.0199813 8.98335C-0.0400187 11.8352 -0.100019 17.1926 4.83998 18.6389V20.8593C4.83998 20.8593 4.79998 21.7556 5.37998 21.9389C6.05998 22.163 6.45998 21.4704 7.11998 20.7371C7.47998 20.3296 7.97998 19.7389 8.33998 19.2908C11.72 19.5963 14.32 18.9037 14.62 18.8019C15.3 18.5778 19.16 18.0482 19.8 12.7111C20.44 7.21113 19.48 3.70742 17.74 2.13891Z" fill="#7360F2"/>
<path d="M14.7199 12.9963C14.7199 12.9963 14.0799 12.4463 13.7799 12.2019C13.4799 11.9778 13.0199 11.6722 12.7599 11.5297C12.2999 11.2648 11.8199 11.4278 11.6199 11.6926L11.2199 12.2222C11.0199 12.4871 10.6799 12.4463 10.5999 12.4259C9.9999 12.263 9.3599 11.8963 8.6999 11.2445C8.0399 10.5926 7.6399 9.90002 7.4999 9.20743L7.4799 9.16669C7.4399 8.8815 7.4799 8.73891 7.5999 8.53521L7.6199 8.51484C7.8999 8.25002 8.3999 7.94447 8.4799 7.63891C8.6799 7.10928 7.7999 6.00928 7.6799 5.82595C7.6799 5.82595 7.0399 4.97039 6.8199 4.80743C6.5799 4.60373 6.1999 4.4815 5.8199 4.72595H5.7999C4.6999 5.47965 4.3199 5.90743 4.4199 6.55928L4.4799 6.8241C5.0399 8.59632 6.0999 10.5111 7.6999 12.2019C9.2799 13.8519 10.9999 14.85 12.6799 15.5426C13.1199 15.6852 13.5799 15.563 14.0399 15.1556C14.3999 14.8093 14.6799 14.4426 14.8799 14.0556C15.0999 13.6482 15.0199 13.2611 14.7199 12.9963Z" fill="#7360F2"/>
<path d="M12.1 9.08523C12.04 9.08523 11.98 9.02411 11.98 8.963C11.96 8.49449 11.84 8.14819 11.62 7.90374C11.4 7.6593 11.08 7.53708 10.66 7.51671C10.6 7.51671 10.54 7.4556 10.54 7.37411C10.54 7.29263 10.6 7.25189 10.68 7.25189C11.18 7.27226 11.56 7.43523 11.82 7.72041C12.08 8.0056 12.22 8.413 12.26 8.94263C12.24 9.02411 12.18 9.08523 12.1 9.08523Z" fill="#7360F2"/>
<path d="M13.3399 9.53334C13.2599 9.53334 13.2199 9.47222 13.2199 9.39074C13.2399 8.51482 12.9799 7.76111 12.4599 7.17037C12.1999 6.86482 11.8799 6.64074 11.5199 6.47778C11.1599 6.31482 10.7399 6.21297 10.2599 6.17222C10.1999 6.17222 10.1399 6.11111 10.1399 6.02963C10.1399 5.94815 10.1999 5.90741 10.2799 5.90741C11.2799 5.98889 12.0799 6.35556 12.6399 6.98704C13.1999 7.63889 13.4799 8.43334 13.4599 9.39074C13.4799 9.47222 13.4199 9.53334 13.3399 9.53334Z" fill="#7360F2"/>
<path d="M14.62 10.0426C14.56 10.0426 14.5 9.98149 14.5 9.92038C14.5 9.14631 14.38 8.43334 14.16 7.82223C13.94 7.21112 13.6 6.68149 13.16 6.23334C12.72 5.7852 12.22 5.4389 11.68 5.21483C11.14 4.99075 10.52 4.86853 9.85999 4.86853C9.79999 4.86853 9.73999 4.80742 9.73999 4.74631C9.73999 4.66482 9.79999 4.62408 9.85999 4.62408C11.24 4.64445 12.4 5.11297 13.34 6.07038C13.8 6.5389 14.16 7.10927 14.4 7.76112C14.64 8.41297 14.76 9.14631 14.76 9.96112C14.76 9.98149 14.7 10.0426 14.62 10.0426Z" fill="#7360F2"/>
</g>
<defs>
<clipPath id="clip0_118_1102">
<rect width="20" height="22" fill="white"/>
</clipPath>
</defs>
</svg>
