<svg width="59" height="15" viewBox="0 0 59 15" fill="none" xmlns="http://www.w3.org/2000/svg">
<g clip-path="url(#clip0_155_1591)">
<path d="M6.36085 0.0627358C6.34932 0.0855494 6.2917 0.10266 6.23409 0.10266C6.15918 0.0969563 5.68096 0.188211 5.41592 0.256652C4.81094 0.416348 4.10801 0.667298 4.05616 0.747146C4.03887 0.775663 4.1253 0.80418 4.24629 0.80418C4.47676 0.815587 4.62081 0.832698 4.6669 0.849808C4.68418 0.855511 4.77637 0.872622 4.86856 0.884028C5.39288 0.952469 5.64639 1.01521 6.1419 1.1749C7.05225 1.47718 7.88194 1.91064 9.30508 2.81178C9.99073 3.25095 11.0797 3.86121 11.1776 3.86692C11.1949 3.86692 11.3217 3.90114 11.4657 3.93536C11.869 4.04943 12.4625 4.02091 12.7564 3.88403C13.0963 3.71863 13.2 3.58745 13.2346 3.29087C13.2749 2.97148 13.1885 2.81749 12.7218 2.3327C11.8345 1.42015 11.0336 0.878325 9.98497 0.479085C9.60469 0.3365 9.51251 0.307983 9.22442 0.250949C9.14376 0.233838 9.06309 0.211025 9.03428 0.193914C9.00547 0.176804 8.89024 0.148287 8.76924 0.131177C8.65401 0.11977 8.49268 0.0912528 8.41202 0.0798459C8.17002 0.0342185 6.38965 0.0228119 6.36085 0.0627358Z" fill="#2962FF"/>
<path d="M49.5508 0.564648C49.4702 0.615979 49.2051 0.747157 48.9631 0.849819C48.1334 1.20343 47.8742 1.63689 47.8684 2.68632C47.8684 3.03993 47.8915 3.34221 47.9318 3.41066C47.9721 3.4791 47.9836 3.53613 47.9664 3.53613C47.9433 3.53613 47.9894 3.63879 48.0585 3.76427C48.1968 4.00951 48.4734 4.21484 48.6981 4.24336C48.773 4.24906 48.8767 4.27758 48.9343 4.30039C48.9862 4.32891 49.0784 4.32891 49.136 4.30039C49.1878 4.27758 49.2916 4.24906 49.3607 4.24336C49.5047 4.22625 49.8101 4.08936 49.9657 3.96959C50.1328 3.84982 50.2999 3.41636 50.2999 3.10837C50.2999 2.70343 50.0867 2.27567 49.7871 2.07605C49.4759 1.87073 49.0438 1.84221 48.7672 2.00761L48.5656 2.12168L48.6001 1.93347C48.6462 1.68252 48.8076 1.53423 49.257 1.34602C49.6661 1.18062 50.0694 0.889743 50.0694 0.769971C50.0694 0.695827 49.8043 0.456283 49.7294 0.456283C49.7122 0.456283 49.6315 0.507614 49.5508 0.564648ZM49.3953 2.62358C49.5796 2.76617 49.643 3.05704 49.5566 3.3251C49.4817 3.54183 49.4068 3.59317 49.0784 3.63309C48.7615 3.67301 48.5713 3.46769 48.5713 3.09126C48.5713 2.86313 48.6001 2.78328 48.7211 2.6578C48.9113 2.47529 49.1878 2.46389 49.3953 2.62358Z" fill="#2962FF"/>
<path d="M54.1141 1.15783C54.0449 1.23198 53.9873 1.31753 53.9873 1.35175C53.9873 1.39167 54.1256 1.47722 54.2927 1.55707C54.6845 1.73388 55.0417 1.72247 55.4047 1.51144L55.6697 1.35745L55.4969 1.18635C55.3471 1.03236 55.3125 1.02095 55.1915 1.08369C55.0244 1.17494 54.6269 1.18064 54.4655 1.08939C54.2927 1.00384 54.2581 1.00954 54.1141 1.15783Z" fill="#2962FF"/>
<path d="M42.1182 3.05706V4.22626L42.4235 4.20915L42.7231 4.19204V3.57607C42.7231 3.23957 42.7347 2.9658 42.752 2.9715C42.7692 2.9715 42.8729 3.15972 42.9882 3.38215C43.1841 3.76998 43.2071 3.7928 43.3915 3.7928C43.5759 3.7928 43.5989 3.76998 43.7891 3.38215C43.8985 3.15972 44.0022 2.9715 44.0195 2.9715C44.0368 2.9658 44.0483 3.23957 44.0483 3.57607V4.19204L44.3537 4.20915L44.6533 4.22626V3.05706V1.88215H44.3537L44.0483 1.88785L43.7314 2.42968C43.3685 3.04565 43.4376 3.05706 42.9939 2.32702L42.7231 1.88785L42.4235 1.88215H42.1182V3.05706Z" fill="#2962FF"/>
<path d="M45.771 1.99621C45.5059 2.11598 45.2639 2.35552 45.1718 2.59507C45.0853 2.8175 45.0853 3.34221 45.1718 3.56465C45.2985 3.88974 45.7134 4.20913 46.0648 4.24906C46.0994 4.25476 46.1685 4.27758 46.2261 4.30039C46.278 4.32891 46.3702 4.32891 46.4278 4.30039C46.4797 4.27758 46.5661 4.24906 46.6122 4.24336C46.6583 4.23765 46.7677 4.20913 46.8484 4.17491C47.7933 3.80419 47.7933 2.36693 46.8427 1.9791C46.5603 1.86503 46.0418 1.87073 45.771 1.99621ZM46.664 2.62929C46.8887 2.86883 46.883 3.3251 46.6525 3.53613C46.52 3.66161 46.2146 3.68442 46.036 3.59317C45.7018 3.41636 45.6961 2.76047 46.0187 2.57225C46.2031 2.46959 46.5373 2.49811 46.664 2.62929Z" fill="#2962FF"/>
<path d="M51.458 1.96771C50.7723 2.17874 50.4208 3.03425 50.7666 3.65022C50.9164 3.92399 51.2851 4.21486 51.5098 4.24338C51.5905 4.24908 51.7 4.2776 51.7633 4.30612C51.8267 4.33463 51.9131 4.32893 51.9823 4.2833C52.0399 4.24908 52.109 4.22627 52.1321 4.24338C52.1551 4.25479 52.3049 4.20916 52.4605 4.13501L52.7486 3.99813L52.9042 4.14642C53.0597 4.29471 53.0655 4.29471 53.1519 4.18634C53.4285 3.84414 53.4285 3.84414 53.2729 3.67874C53.1346 3.53615 53.1116 3.43349 53.0482 2.84604C53.0309 2.73768 52.9963 2.59509 52.9618 2.52665C52.8465 2.31562 52.4951 2.05897 52.1897 1.96771C51.8382 1.86505 51.7864 1.86505 51.458 1.96771ZM52.1782 2.64072C52.2934 2.74338 52.3395 2.84034 52.3568 3.05707C52.3856 3.30231 52.3683 3.36505 52.2416 3.50764C52.0572 3.71866 51.6942 3.74148 51.5041 3.55897C51.3773 3.42779 51.3024 3.09699 51.36 2.88026C51.4522 2.52095 51.8901 2.39547 52.1782 2.64072Z" fill="#2962FF"/>
<path d="M57.26 1.94486C57.1447 1.99049 57.0698 2.09885 56.9373 2.41254C56.7875 2.77186 56.436 3.80988 56.3784 4.04942C56.3669 4.09505 56.3496 4.1749 56.3381 4.22053C56.3266 4.28897 56.3957 4.30608 56.7184 4.30608C57.1159 4.30608 57.1217 4.30608 57.1678 4.13497C57.2369 3.90684 57.2484 3.86691 57.3982 3.32509L57.525 2.85171L57.7151 3.43345C57.8189 3.75855 57.9168 4.08935 57.9398 4.1749C57.9687 4.32889 57.9802 4.33459 58.3662 4.33459C58.5852 4.33459 58.7753 4.31748 58.7868 4.28897C58.8272 4.22623 58.1012 2.3498 57.9514 2.13307C57.7785 1.88212 57.5826 1.83079 57.26 1.94486Z" fill="#2962FF"/>
<path d="M53.6992 3.13691V4.33463H53.947C54.1774 4.33463 54.212 4.31181 54.3906 4.07797C54.5001 3.93539 54.6038 3.82132 54.6326 3.82132C54.6557 3.82132 54.6787 3.7928 54.6787 3.75858C54.6787 3.72436 54.7767 3.58178 54.8977 3.43919L55.1108 3.17683L55.1396 3.74147L55.1685 4.30611L55.5603 4.32322L55.9463 4.34033V3.13691V1.93919H55.6812C55.3874 1.93919 55.3528 1.96771 54.8112 2.66353C54.6614 2.85744 54.5174 3.01714 54.4943 3.01714C54.4655 3.02284 54.4482 2.77759 54.4482 2.48102V1.93919H54.0737H53.6992V3.13691Z" fill="#2962FF"/>
<path d="M2.70807 2.24714C2.10309 2.45246 1.83805 2.61216 1.44049 3.0171C1.03717 3.42204 0.950744 3.54752 0.685705 4.08934C0.495568 4.46577 0.50133 4.60836 0.697228 4.49999C0.881603 4.40874 1.24459 4.36881 1.98785 4.36881C2.65045 4.36881 3.24391 4.42014 3.35338 4.48288C3.38219 4.49999 3.49166 4.52851 3.58961 4.54562C3.99293 4.60836 5.28356 5.10455 5.8482 5.41824C6.00953 5.50379 6.22848 5.62927 6.33795 5.69201C6.44742 5.74904 6.89108 5.99999 7.31744 6.24524C8.49283 6.91824 9.84684 7.52851 10.4864 7.67109C10.5325 7.6825 10.7053 7.72242 10.8609 7.75665C11.3622 7.87071 11.5984 7.89923 12.1573 7.89923C12.8084 7.89923 13.0043 7.86501 13.4249 7.70531C13.9722 7.49999 14.4101 7.03231 14.5081 6.54752C14.5772 6.20531 14.5311 5.40684 14.4389 5.31558C14.4159 5.29847 14.2834 5.33839 14.1278 5.40684C13.3903 5.74334 12.3071 5.6863 10.9473 5.24714C10.4806 5.09885 9.55875 4.6825 9.20152 4.46577C9.08053 4.39163 8.89615 4.28326 8.7982 4.22623C8.69449 4.16919 8.31422 3.94676 7.95123 3.73573C6.41861 2.846 5.3527 2.37832 4.55182 2.24714C4.47115 2.23003 4.36744 2.20722 4.32135 2.19011C4.27526 2.16729 3.97565 2.14448 3.65875 2.13877C3.18629 2.12737 3.01344 2.14448 2.70807 2.24714Z" fill="#2962FF"/>
<path d="M53.319 6.14828C52.7889 6.25094 52.8062 6.24524 52.2761 6.47908C51.5041 6.81558 50.8184 7.60836 50.5303 8.48668C50.369 8.96577 50.3459 9.14828 50.3459 9.75284C50.3459 10.2947 50.3748 10.5627 50.4669 10.7909C50.5015 10.8821 50.513 10.9506 50.5015 10.9506C50.4439 10.9506 50.7608 11.5893 50.9797 11.903C51.8152 13.1179 53.3939 13.6369 55.1224 13.2662C55.3586 13.2148 55.9694 12.9182 56.2056 12.7471C56.3324 12.6502 56.4649 12.5532 56.4995 12.5361C56.534 12.5133 56.6838 12.6616 56.8394 12.8783C56.9892 13.0893 57.2082 13.3346 57.3119 13.4258L57.5078 13.5912L57.9687 13.1407C58.2222 12.8954 58.5103 12.5931 58.6083 12.4734L58.7811 12.2624L58.5506 11.9886C58.3029 11.692 58.0436 11.2243 57.9917 10.9734C57.9745 10.8821 57.9457 10.4715 57.9399 10.0665C57.9284 9.65589 57.8938 9.22243 57.8592 9.09695C57.8247 8.97148 57.7843 8.77756 57.767 8.66919C57.7498 8.56083 57.6345 8.26425 57.5078 8.0076C57.1851 7.36311 56.6377 6.82129 55.9924 6.5076C55.7274 6.37642 55.4566 6.26235 55.3817 6.24524C55.3125 6.23383 55.2319 6.21102 55.2031 6.18821C55.0129 6.07414 53.8491 6.05132 53.319 6.14828ZM54.9611 7.95056C55.3356 8.14448 55.641 8.45246 55.8253 8.8403C55.9579 9.11406 55.9751 9.22813 55.9751 9.75284C55.9751 10.2776 55.9579 10.3916 55.8253 10.6711C55.6467 11.0418 55.3529 11.3555 55.0187 11.5266C54.4425 11.8175 53.7108 11.789 53.1231 11.4525C52.1667 10.9106 51.9765 9.11976 52.7947 8.32699C53.054 8.07604 53.3881 7.87642 53.6359 7.83079C53.7166 7.81938 53.7915 7.79657 53.803 7.79087C53.8087 7.77946 54.0104 7.77946 54.2466 7.79087C54.5578 7.80227 54.7479 7.8479 54.9611 7.95056Z" fill="#2962FF"/>
<path d="M27.9731 6.1597C27.8463 6.18822 27.6504 6.22244 27.541 6.24525C27.2125 6.30228 26.6076 6.56464 26.2619 6.79848C25.8701 7.06084 25.4091 7.58555 25.1844 8.03042C25.0519 8.29278 24.9309 8.64069 24.9424 8.70913C24.9424 8.72053 24.9079 8.8232 24.8675 8.94297C24.8099 9.09696 24.7926 9.38213 24.8042 9.87263C24.8214 10.7681 24.977 11.2871 25.4091 11.9145C26.0775 12.8897 27.0512 13.3517 28.4628 13.3802C28.8604 13.3859 29.2119 13.3745 29.2407 13.3574C29.2752 13.3346 29.3501 13.3118 29.4078 13.3061C29.6613 13.2662 30.3412 12.9981 30.635 12.8213C31.0902 12.5532 31.5281 12.057 31.8046 11.5038C31.9314 11.2472 32.0524 10.9677 32.0639 10.8821C32.0812 10.7966 32.1158 10.6654 32.1446 10.597C32.2425 10.3346 32.2022 9.13688 32.0812 8.73194C31.845 7.94487 31.384 7.28898 30.7618 6.827C30.4564 6.60457 29.7304 6.29088 29.402 6.23955C29.281 6.22244 29.1658 6.19392 29.1427 6.18251C29.0621 6.13118 28.192 6.11407 27.9731 6.1597ZM29.0505 7.92776C29.6613 8.11597 30.151 8.63498 30.2893 9.25095C30.3412 9.48479 30.3469 10.0608 30.2951 10.3004C30.1683 10.9392 29.6843 11.481 29.0909 11.6521C28.8489 11.7205 28.2209 11.7376 27.9673 11.6749C27.3681 11.5266 26.8208 10.9392 26.694 10.2947C26.4808 9.21103 26.9878 8.21863 27.9097 7.92776C28.3649 7.79088 28.5954 7.78517 29.0505 7.92776Z" fill="#2962FF"/>
<path d="M36.3564 6.21105C35.8033 6.41067 35.4115 7.00953 34.8123 8.55516C34.6855 8.88596 34.409 9.58748 34.1958 10.1236C33.9826 10.654 33.7233 11.3099 33.6196 11.578C33.5159 11.846 33.3258 12.3308 33.1933 12.6559C33.0665 12.981 32.957 13.2548 32.957 13.2662C32.957 13.2776 33.418 13.289 33.9884 13.289H35.014L35.1465 12.9582C35.2156 12.7814 35.5152 12.0057 35.8091 11.2358C36.875 8.4525 36.8059 8.6236 36.8635 8.7833C36.8923 8.86315 37.0536 9.2852 37.2149 9.72436C37.382 10.1635 37.5895 10.7168 37.6816 10.9506C37.7738 11.1844 37.9121 11.5552 37.9928 11.7776C38.0734 11.9943 38.206 12.3536 38.2866 12.5761C38.373 12.7928 38.4652 13.0438 38.4998 13.1293L38.5574 13.289H39.6694H40.7814L40.7065 13.1293C40.6662 13.0438 40.4473 12.5361 40.2283 12.0057C40.0036 11.4696 39.6118 10.5228 39.3525 9.89547C39.0875 9.26809 38.7994 8.56657 38.713 8.33843C38.3442 7.40877 37.9755 6.74147 37.6816 6.48482C37.2956 6.14261 36.8174 6.03995 36.3564 6.21105Z" fill="#2962FF"/>
<path d="M2.30469 6.17684C2.2874 6.19395 2.13184 6.21676 1.95898 6.23387C1.78037 6.25098 1.50381 6.31942 1.33672 6.38216C0.443652 6.73007 0.0576172 7.24338 0.0576172 8.07038C0.0576172 8.30422 0.0806641 8.50954 0.115234 8.52665C0.144043 8.54376 0.282324 8.53235 0.414844 8.49243C0.823926 8.38406 0.875781 8.37836 1.3252 8.37266C1.76885 8.37266 2.34502 8.42399 2.43145 8.47532C2.46025 8.49243 2.53516 8.51524 2.61006 8.53235C2.90967 8.58939 2.99609 8.6122 3.51465 8.81182C4.18301 9.06277 4.72461 9.35365 5.58887 9.91258C6.89678 10.7681 8.78662 11.6293 9.78916 11.8403C9.86983 11.8574 9.95049 11.8803 9.97354 11.8974C10.0369 11.9316 10.7514 12.0057 11.0625 12.0057C12.4741 12.0057 13.3153 11.5266 13.9088 10.3917C14.1623 9.89547 14.4273 9.24528 14.387 9.20536C14.3755 9.19395 14.1911 9.25098 13.9722 9.32513C13.54 9.47912 13.4421 9.50764 12.9639 9.57038C12.5548 9.62171 11.5695 9.62171 11.2354 9.57038C10.8205 9.50193 10.6419 9.46201 10.59 9.43349C10.567 9.41638 10.4863 9.39357 10.4172 9.37646C10.3423 9.35935 10.2616 9.34224 10.2271 9.33083C9.1208 9.03425 8.25654 8.63501 6.57412 7.65403C5.59463 7.08368 4.90322 6.75288 4.14844 6.50193C3.54346 6.30231 3.48584 6.2852 3.11133 6.24528C2.96729 6.22817 2.73682 6.20536 2.59277 6.18825C2.44873 6.16543 2.31621 6.16543 2.30469 6.17684Z" fill="#2962FF"/>
<path d="M42.1182 9.72436V13.289H43.04H43.9619V12.0571V10.8251L44.0944 10.8593C44.2442 10.905 45.097 10.9734 45.46 10.9791C45.7308 10.9791 46.4452 10.9164 46.7736 10.865L46.958 10.8365V12.0628V13.289H47.9087H48.8594V9.72436V6.15972H47.9087H46.958V7.64261C46.958 8.4582 46.9407 9.1255 46.9177 9.13121C46.8889 9.13121 46.8197 9.14261 46.7563 9.15972C46.0304 9.30801 44.9933 9.30801 44.1636 9.15402C44.1002 9.14261 44.0311 9.13121 44.008 9.13121C43.9792 9.1255 43.9619 8.4582 43.9619 7.64261V6.15972H43.04H42.1182V9.72436Z" fill="#2962FF"/>
<path d="M17.2852 9.79852V13.3632L19.175 13.3175C20.2121 13.2947 21.1397 13.2662 21.2319 13.2605C21.6353 13.2149 21.8312 13.1806 21.9349 13.1293C21.9925 13.0951 22.0616 13.0723 22.0847 13.0723C22.1077 13.0723 22.246 13.0153 22.3843 12.9468C22.7934 12.7472 23.1794 12.251 23.3177 11.732C23.335 11.6635 23.358 11.367 23.3638 11.0704C23.3811 10.5799 23.3695 10.5172 23.2255 10.2719C23.0872 10.0438 22.6839 9.70156 22.4592 9.62171C22.4131 9.61031 22.488 9.50765 22.6551 9.35936C22.9028 9.13692 23.0757 8.84035 23.1333 8.52666C23.1448 8.46392 23.1563 8.40118 23.1621 8.38407C23.1909 8.28141 23.1448 7.54567 23.0987 7.42019C22.9201 6.95822 22.4765 6.58179 21.9003 6.41069C21.4566 6.27951 21.5834 6.28521 19.319 6.2567L17.2852 6.23388V9.79852ZM20.9266 7.73388C21.2665 7.79092 21.4336 7.99624 21.4336 8.35555C21.4336 8.72057 21.2896 8.9259 20.9842 9.00574C20.8689 9.03997 20.3734 9.06278 19.8952 9.06278L19.0137 9.05708V8.37837V7.69966H19.8664C20.3331 7.69966 20.8113 7.71677 20.9266 7.73388ZM20.7998 10.4088C20.9093 10.4202 21.0591 10.4259 21.1282 10.4316C21.2031 10.4373 21.3414 10.5114 21.4394 10.597C21.5949 10.7339 21.6237 10.8023 21.641 11.0875C21.6583 11.4069 21.6468 11.4354 21.4624 11.6179C21.3414 11.7377 21.2262 11.8061 21.1743 11.7833C21.1282 11.7662 21.0764 11.7776 21.0591 11.8004C21.0418 11.8289 20.5924 11.8518 20.0508 11.8575L19.0713 11.8632V11.0932V10.3289L19.8376 10.3575C20.2524 10.3746 20.6903 10.3974 20.7998 10.4088Z" fill="#2962FF"/>
<path d="M1.20416 10.1464C0.812363 10.3289 0.846933 10.6312 1.32516 11.3384C1.69391 11.8802 2.05689 12.2738 2.50631 12.6331C2.66764 12.7586 2.8232 12.884 2.86353 12.9183C2.90387 12.9468 2.96725 13.0038 3.00758 13.0323C3.14586 13.1464 3.76812 13.5 4.11959 13.6711C4.62086 13.9164 5.56002 14.2243 5.99215 14.2928C7.08687 14.4582 8.11246 14.424 9.1899 14.1787C9.58746 14.0875 10.1809 13.8707 10.6188 13.654C11.5004 13.2148 11.5407 13.1578 10.9645 13.2148C10.1003 13.2947 9.5068 13.2548 8.81539 13.0551C8.67135 13.0152 8.54459 12.981 8.52731 12.9753C8.11246 12.8612 7.88199 12.7814 7.39225 12.5704C6.57984 12.2281 6.32633 12.097 5.32955 11.5038C4.33277 10.9107 3.52037 10.5171 2.8232 10.289C2.27584 10.1122 2.24703 10.1065 1.74 10.078C1.50377 10.0666 1.31363 10.0894 1.20416 10.1464Z" fill="#2962FF"/>
</g>
<defs>
<clipPath id="clip0_155_1591">
<rect width="59" height="15" fill="white"/>
</clipPath>
</defs>
</svg>
