<svg width="20" height="21" viewBox="0 0 20 21" fill="none" xmlns="http://www.w3.org/2000/svg">
<g clip-path="url(#clip0_118_1098)">
<path d="M17.08 3.05075C15.2 1.08657 12.7 0 10.04 0C4.56 0 0.08 4.6597 0.08 10.406C0.08 12.2448 0.54 14.0209 1.4 15.609L0 21L5.28 19.5582C6.74 20.394 8.38 20.8328 10.04 20.8328C15.52 20.8328 20 16.1731 20 10.4269C20 7.62687 18.96 5.01493 17.08 3.05075ZM10.04 19.0567C8.56 19.0567 7.1 18.6388 5.82 17.8448L5.52 17.6567L2.4 18.5343L3.24 15.3373L3.04 15.003C2.22 13.6239 1.78 12.0358 1.78 10.406C1.76 5.64179 5.48 1.75522 10.04 1.75522C12.26 1.75522 14.32 2.65373 15.9 4.28358C17.46 5.91343 18.32 8.08657 18.32 10.406C18.32 15.1701 14.6 19.0567 10.04 19.0567ZM14.58 12.5791C14.34 12.4537 13.1 11.8269 12.88 11.7433C12.66 11.6597 12.48 11.6179 12.32 11.8687C12.16 12.1194 11.68 12.7045 11.54 12.8925C11.4 13.0597 11.24 13.0806 11 12.9552C10.76 12.8299 9.94 12.5582 9 11.6597C8.26 10.9701 7.76 10.1134 7.62 9.86269C7.48 9.61194 7.6 9.46567 7.72 9.3403C7.84 9.21493 7.96 9.02687 8.1 8.8806C8.22 8.73433 8.26 8.62985 8.34 8.44179C8.42 8.27463 8.38 8.10746 8.32 7.98209C8.26 7.85672 7.76 6.58209 7.56 6.0597C7.36 5.55821 7.16 5.6209 7 5.6209C6.86 5.6209 6.68 5.6209 6.52 5.6209C6.36 5.6209 6.08 5.68358 5.86 5.95522C5.64 6.20597 4.98 6.85373 4.98 8.12836C4.98 9.40299 5.88 10.6358 6 10.8239C6.12 10.991 7.76 13.6239 10.26 14.7522C10.86 15.0239 11.32 15.1701 11.68 15.2955C12.28 15.4836 12.82 15.4627 13.24 15.4C13.72 15.3164 14.72 14.7731 14.92 14.1672C15.12 13.5612 15.12 13.0388 15.06 12.9343C15 12.7672 14.84 12.7045 14.58 12.5791Z" fill="#33CE62"/>
</g>
<defs>
<clipPath id="clip0_118_1098">
<rect width="20" height="21" fill="white"/>
</clipPath>
</defs>
</svg>
